<?xml version="1.0" standalone="no"?>
<!DOCTYPE svg PUBLIC "-//W3C//DTD SVG 1.1//EN" "http://www.w3.org/Graphics/SVG/1.1/DTD/svg11.dtd" >
<svg xmlns="http://www.w3.org/2000/svg" xmlns:xlink="http://www.w3.org/1999/xlink" version="1.1">
<metadata>
Created by FontForge 20200306 at Sun Jan  2 14:23:52 2011
 By convertio
Daniel Black is a font by Daniel Midgley.
</metadata>
<defs>
<font id="Daniel-Black" horiz-adv-x="1020" >
  <font-face 
    font-family="Daniel Black"
    font-weight="900"
    font-stretch="normal"
    units-per-em="1000"
    panose-1="0 0 0 0 0 0 0 0 0 0"
    ascent="630"
    descent="-370"
    x-height="372"
    cap-height="867"
    bbox="-183 -537 1924 1339"
    underline-thickness="50"
    underline-position="-100"
    stemh="20"
    stemv="135"
    unicode-range="U+0009-FB02"
  />
<missing-glyph horiz-adv-x="294" 
 />
    <glyph glyph-name=".notdef" horiz-adv-x="294" 
 />
    <glyph glyph-name="space" unicode=" " horiz-adv-x="294" 
 />
    <glyph glyph-name="exclam" unicode="!" horiz-adv-x="246" 
d="M186 33l-3 -50c-11 -6 -16 -12 -16 -18c0 -3 1 -6 3 -9c-2 0 -5 -2 -8 -6c-3 1 -8 3 -14 6c-2 4 -3 9 -6 14c-3 -2 -4 -4 -3 -5c1 -3 1 -5 1 -6c-1 -1 -2 -2 -5 -2s-8 1 -14 4c0 5 0 9 -2 12c-2 0 -5 -1 -10 -3c-5 -1 -7 -2 -8 -2c-2 6 -9 13 -20 21c0 19 0 29 -1 30
c-3 1 -8 3 -15 7c0 8 -1 14 -2 18c10 18 14 31 14 40c0 3 0 6 -2 8c16 17 30 26 42 26c2 -1 13 -3 31 -8c2 -3 5 -8 8 -15c22 -12 32 -32 30 -62zM258 821l-88 -462c0 -1 2 -3 5 -6v-14c0 -3 -3 -9 -9 -20c0 -21 -5 -34 -16 -38c0 -3 1 -5 3 -7l-12 -11c1 5 -1 9 -5 13
c-7 0 -12 -2 -15 -5c0 2 -2 6 -5 12c-4 0 -7 -2 -9 -7c-3 9 -7 17 -11 22l-10 -2l-6 6c2 7 3 16 3 29c-2 2 -4 6 -7 12c-1 -3 -2 -7 -5 -12v96l52 357l28 93c5 1 12 8 22 19c9 11 17 16 24 16s15 -4 25 -11c13 -10 19 -21 19 -32c2 -2 6 -6 12 -10c-1 -6 -1 -13 1 -21
c3 -11 4 -17 4 -17z" />
    <glyph glyph-name="quotedbl" unicode="&#x22;" horiz-adv-x="324" 
d="M347 739v-61c0 2 -1 0 -1 -6c-1 -7 -2 -15 -3 -25c-1 -13 -1 -28 -1 -44v-50l-16 -36l-10 2c-5 -3 -9 -5 -11 -7c-3 1 -6 2 -10 5c-3 -1 -6 -3 -10 -5c-2 2 -16 6 -41 12c-12 19 -22 52 -31 99c-2 11 -3 26 -2 45l3 88l13 58c8 8 14 16 17 25l26 6c4 0 9 -2 16 -7
c10 -11 25 -28 44 -49c11 -19 17 -36 17 -50zM173 741v-61c0 2 -1 0 -1 -6c-1 -7 -2 -15 -3 -25c-1 -14 -1 -28 -1 -44v-50l-15 -36l-11 2c-3 -2 -6 -4 -10 -7c-3 1 -6 2 -10 5c-3 -1 -6 -3 -10 -5c-3 2 -16 6 -41 12c-12 19 -22 52 -31 99c-2 10 -2 25 -2 45l3 88l12 58
c9 8 15 16 18 25l26 6c4 0 9 -2 16 -7c10 -11 25 -28 44 -49c11 -19 16 -36 16 -50z" />
    <glyph glyph-name="numbersign" unicode="#" horiz-adv-x="1034" 
d="M619 243l36 122c3 1 -9 1 -36 1l-161 -16l-46 -121h56l31 6zM1023 832c0 3 -2 -6 -5 -27c-1 -6 -4 -13 -10 -21c-12 -16 -33 -46 -62 -90c-21 -33 -42 -76 -64 -128c-9 -13 -18 -30 -24 -51c6 -6 14 -10 23 -11l28 -2c9 -3 23 -7 41 -12l45 -27c0 -3 -2 -7 -7 -11
c10 -13 15 -25 15 -35c0 -6 -6 -17 -18 -34h-13c-2 -1 -5 -7 -10 -17l-82 -13l-47 5c-5 0 -11 -1 -16 -2c-6 -1 -9 -2 -10 -2c-1 1 -2 2 -3 4l-27 -84v-9c4 -5 10 -7 19 -7c5 0 9 1 11 2l103 -25c0 -29 3 -47 8 -54c-9 -5 -17 -12 -26 -22c-8 -3 -23 -9 -45 -16
c0 -2 4 -4 13 -7l-113 -30c0 -3 1 -4 3 -4c-2 0 -6 -2 -13 -6c0 -2 -1 -9 -3 -22c-2 -10 -1 -16 3 -17l-43 -62l-10 3c-10 -7 -17 -10 -23 -10c-1 0 -3 0 -6 1s-5 1 -6 1c-3 -3 -7 -6 -13 -10h-8c-5 7 -13 16 -22 28c-3 12 -6 27 -8 44c2 3 3 8 3 13c0 4 0 8 -1 13l-7 5
l-167 -23h-35c-23 0 -38 -4 -45 -12c-4 -4 -7 -16 -9 -35c-2 -20 -7 -39 -14 -55c-20 -22 -33 -33 -40 -33h-10c-3 3 -7 6 -12 10l-10 -17h-9c-7 9 -15 18 -25 25c-1 5 -2 14 -4 26c-2 14 -2 25 0 34l4 16v22c-9 6 -16 9 -22 9h-62c-9 0 -25 4 -49 12s-38 14 -42 19
c-5 5 -11 12 -18 23c0 3 2 7 5 10c-3 7 -7 12 -12 15c-1 4 -4 15 -8 33c6 8 15 20 27 37c0 2 -1 4 -2 5c5 7 12 15 21 25c21 6 35 9 40 9l78 -3c6 -6 11 -10 15 -12c15 -3 29 -5 41 -5h36l47 109v12h-7c-1 3 -3 4 -4 3c-6 -3 -16 -4 -29 -4c-9 0 -16 1 -21 3
c-16 -5 -31 -8 -46 -8c-13 0 -27 7 -40 23c-1 3 -4 11 -10 23c-4 8 -6 18 -6 29c0 12 3 22 10 31c9 12 18 24 26 35c8 9 20 16 35 21c35 7 63 11 83 13l72 5c3 2 8 9 14 20c37 92 80 187 131 285c4 8 14 17 31 28h7c13 0 23 -11 33 -32c7 -16 11 -30 11 -42
c0 -7 -1 -15 -4 -25c-3 -24 -9 -52 -24 -84c-9 -19 -23 -48 -41 -86c-1 -16 -6 -33 -16 -52c1 -2 4 -4 9 -7h177c7 3 12 8 14 14c20 58 42 107 64 146c27 47 70 112 128 195c7 5 19 14 35 26c9 7 18 10 28 10c25 0 38 -14 39 -41c8 -15 12 -27 12 -36z" />
    <glyph glyph-name="dollar" unicode="$" horiz-adv-x="683" 
d="M527 206v14c-4 8 -18 28 -41 60c-12 16 -28 30 -48 41c-3 -3 -7 -5 -10 -5l-51 -154v-9c0 -4 2 -6 6 -5c62 13 110 32 144 58zM687 587c0 -12 -6 -25 -18 -38c-19 0 -32 -2 -40 -5l-61 15c-12 -2 -22 -4 -29 -4c-3 0 -6 1 -8 1c-3 -1 -10 -7 -21 -19
c-19 -41 -29 -64 -30 -67c0 0 1 -3 3 -10c37 -31 70 -66 99 -106c29 -39 45 -70 48 -94c8 -26 12 -42 12 -48l-2 -43c-10 -54 -32 -94 -66 -119c-4 -3 -11 -8 -21 -16c-28 -16 -62 -28 -102 -37c-26 -10 -47 -14 -63 -14c-1 0 -3 0 -5 1s-4 1 -5 1c-30 0 -47 -9 -54 -27
l-16 -74c-4 -16 -10 -48 -20 -96c-5 -13 -13 -32 -25 -58c-4 -3 -11 -8 -20 -17l-5 5l-11 -3c-2 9 -3 13 -3 13c-5 2 -12 4 -22 7c-3 6 -8 15 -15 26c0 12 -2 28 -5 48l20 156c-2 3 -3 6 -3 11c-5 3 -10 4 -15 4c-1 0 -3 0 -6 -1c-2 -1 -4 -1 -5 -1c-26 0 -71 8 -136 23
c-4 2 -10 5 -17 8c-6 7 -20 20 -41 37v56l5 5c0 2 3 12 8 31c2 0 5 2 8 5h10c11 0 20 -1 27 -2c2 1 3 3 3 4c8 0 19 -2 32 -5c0 -1 -1 -3 -3 -6l4 -3h22c1 0 3 1 5 2c1 2 3 3 4 3l69 -8h64l77 284c-49 38 -110 86 -180 145l8 8c0 3 0 12 1 26c1 15 1 25 1 29
c4 5 12 18 23 39c27 6 39 10 36 10h32l103 17l90 8c1 1 7 7 18 19c7 15 18 37 33 68c13 45 33 83 59 113c7 2 16 5 26 8c15 -10 27 -23 37 -39c12 -34 18 -53 19 -56c0 -16 -4 -34 -12 -53c-5 -11 -12 -28 -21 -51l67 -29c22 -20 33 -49 33 -87z" />
    <glyph glyph-name="percent" unicode="%" horiz-adv-x="1062" 
d="M468 173v11c-1 -6 -1 -10 0 -11zM419 698c-16 -5 -23 -7 -21 -7c-3 3 -6 5 -9 5c-11 0 -26 -3 -46 -10c-5 1 -12 2 -21 5c-2 -3 -5 -6 -10 -10c-8 5 -13 7 -15 6s-4 -2 -7 -2s-5 2 -7 4c-15 -5 -22 -8 -20 -8c-29 0 -50 -1 -63 -2c-9 3 -15 5 -19 4c2 -2 3 -4 3 -5
c0 -2 -1 -3 -2 -4c-17 0 -28 0 -34 -1c-4 1 -7 2 -11 2c-9 0 -17 -5 -23 -15c1 -3 3 -8 7 -15l-3 -3c1 -1 1 -5 1 -10c25 -27 54 -41 88 -41h16c31 0 65 9 102 27c42 21 74 48 94 80zM926 243l6 4c-9 7 -23 16 -40 27c-3 3 -8 6 -13 11c-15 4 -27 6 -38 6
c-15 0 -30 -2 -46 -6c0 -1 -1 -3 -2 -5c-7 1 -33 -4 -78 -14c-20 -9 -49 -24 -88 -44c-8 -9 -21 -20 -38 -35v-13c4 -5 9 -12 16 -20c11 -9 28 -23 50 -40c41 -7 59 -11 54 -11h38c6 2 27 8 64 18c10 6 28 16 53 30c6 3 10 8 13 14c11 3 22 11 33 22c11 12 17 22 17 30
l-30 29c3 1 6 3 9 7c4 -3 11 -6 20 -10zM320 786l54 9c-11 5 -26 12 -46 20c-11 0 -25 0 -43 1l-81 -23c12 -7 22 -10 32 -10c3 0 5 0 7 1c5 -1 14 -1 26 0l16 2h35zM1057 224c0 -14 -3 -32 -8 -55c-1 -3 -8 -11 -19 -23c-1 -8 -6 -16 -15 -25c-13 -12 -21 -20 -23 -23h-11
l-39 -48c-12 -1 -27 -8 -44 -18l-42 -26c-11 0 -27 -4 -50 -12c-13 -7 -21 -11 -24 -11c-1 0 -2 0 -3 1s-2 1 -3 1c-13 0 -23 -4 -30 -12c-5 5 -11 8 -17 7l-60 -5c-1 0 -8 2 -22 6c-13 4 -22 6 -29 7l-34 15c-39 10 -73 48 -101 115c-2 3 -6 6 -11 10v36l-5 6l-126 -89
c2 -1 5 -2 8 -2c-12 -3 -19 -4 -21 -4c-13 -15 -30 -31 -50 -49c-58 -32 -94 -48 -108 -48l-48 5c-8 0 -15 -2 -20 -5c-4 2 -11 7 -21 13v63c0 -4 4 3 12 23c10 24 26 47 48 71c17 17 37 38 61 61c79 62 163 138 250 229c88 90 158 172 209 245c2 4 3 8 3 12
c-3 2 -10 6 -18 11c-4 -2 -7 -5 -10 -7c-10 7 -19 10 -26 10c-1 0 -8 -2 -21 -5c-14 -3 -21 -5 -22 -5c-3 0 -7 2 -14 5l-27 -7c-1 -7 -4 -16 -7 -28l-90 -103c-4 -2 -10 -3 -18 -2c-7 -9 -15 -15 -24 -18l-21 -8c-9 -6 -20 -16 -33 -27c-5 1 -12 -2 -21 -7s-14 -8 -14 -8
s-2 1 -5 3c-3 -8 -13 -13 -28 -16c-2 0 -2 0 -2 1c0 2 1 4 3 6l-4 3c-6 -3 -25 -5 -57 -5c-1 0 -8 1 -20 2c-13 1 -20 1 -21 1c-29 0 -62 10 -98 29s-56 37 -60 55v8c4 0 6 1 7 2c-8 16 -13 32 -15 46l43 169c0 5 -1 8 -3 10c7 9 17 20 31 35c5 1 19 6 43 14c3 2 13 9 30 19
c7 1 17 5 30 10c15 3 33 8 56 12c40 7 62 9 65 9c19 0 42 -4 69 -11c32 -9 52 -19 59 -30c0 -1 -1 -3 -2 -5l94 -57l90 10h40c1 0 6 1 16 1c10 1 16 2 18 2c32 0 60 -7 84 -21c6 -9 12 -16 17 -20c1 -2 8 -17 21 -45c-1 -9 2 -24 8 -45c-6 -38 -21 -65 -45 -82
c-3 -5 -6 -13 -10 -24c-12 -15 -25 -29 -36 -43c-3 -3 -9 -5 -17 -6c-1 0 -1 -1 0 -3v-11l-80 -82l3 -10c-6 -3 -15 -7 -28 -13l5 -4c-2 -3 -3 -5 -3 -6l-10 2l-25 -25c0 -2 -1 -3 -2 -4c5 -4 7 -6 7 -6h-13c-9 -9 -13 -19 -12 -32c-2 -4 -10 -12 -24 -23
c-1 -3 -8 -11 -20 -24c-13 -12 -19 -20 -18 -23c-12 -4 -23 -6 -31 -6c-3 -3 -4 -7 -4 -14c-5 -3 -12 -7 -20 -12c3 -1 6 -4 10 -8c0 0 -2 0 -6 1c-3 1 -6 1 -7 1l-15 -20l2 -16c11 4 28 11 49 20c21 8 32 21 35 36c17 21 32 40 43 59c15 8 26 17 35 28c11 6 29 15 53 27
c67 19 98 28 91 28l128 15c-3 0 6 -1 27 -4c34 -4 61 -11 80 -19c8 -3 15 -9 23 -16c9 -7 31 -27 64 -62c2 -7 6 -17 13 -30c5 -29 8 -46 8 -53z" />
    <glyph glyph-name="ampersand" unicode="&#x26;" horiz-adv-x="741" 
d="M388 199v9c-6 2 -15 9 -27 20c-10 9 -19 14 -25 13c-19 -11 -40 -29 -64 -52l-56 -56l-3 -12h11c3 0 16 4 38 12c15 6 33 12 55 19c19 11 42 27 71 47zM511 706c-32 1 -83 -32 -152 -96c-9 -11 -21 -28 -38 -49c-9 -35 -13 -50 -13 -47c0 -9 6 -28 18 -57c9 1 12 2 11 2
c59 56 110 122 153 196c4 21 11 38 21 51zM708 326l-22 -64l-60 -90c1 -7 5 -18 12 -32c7 -13 10 -24 10 -33c0 -5 -1 -9 -3 -12c-6 -7 -10 -12 -12 -16c-24 -5 -35 -8 -32 -8l-24 2l-10 -10l-45 18l-79 -42c-3 -3 -7 -8 -13 -15l-60 -30c-6 -2 -25 -9 -56 -20
c-23 -5 -57 -10 -103 -16l-111 21c-1 6 -5 12 -13 19c-12 10 -19 16 -21 18c-21 37 -30 65 -29 86c-3 5 -4 12 -4 18c0 -5 3 13 10 53c49 66 92 114 128 144c24 20 44 40 59 58c-38 83 -57 144 -57 184c0 16 1 28 4 36c5 14 10 29 17 46c14 19 37 44 67 76
c19 19 45 40 80 63c2 2 5 6 10 11c13 6 33 15 60 26c3 3 6 6 10 9c11 4 29 11 56 20c11 4 33 7 65 11c29 -5 57 -21 85 -48c2 -5 5 -14 10 -24c5 -12 12 -19 21 -21c2 -6 3 -18 3 -35c0 -16 -3 -34 -10 -54c-1 -7 0 -14 2 -22l-37 -78c-8 -14 -16 -32 -24 -55
c-7 -11 -18 -27 -33 -48c-19 -37 -49 -71 -89 -100c-8 -9 -21 -25 -39 -47c10 -21 27 -40 51 -56h7c29 25 71 62 128 111c10 4 26 9 48 16c3 -4 8 -11 13 -20c2 1 5 2 10 2v-10l15 -17c1 -6 -1 -13 -7 -20c2 -3 6 -5 12 -5z" />
    <glyph glyph-name="quoteright" unicode="&#x2019;" horiz-adv-x="240" 
d="M257 838v-30c-7 -14 -12 -29 -16 -46c-23 -33 -58 -81 -105 -145c-10 -5 -24 -12 -43 -21l-43 33c-19 38 -28 64 -28 78c0 21 15 57 45 107c28 47 42 71 41 72c20 27 40 41 60 41c39 0 64 -22 77 -66c8 -17 12 -25 12 -23z" />
    <glyph glyph-name="parenleft" unicode="(" horiz-adv-x="508" 
d="M510 824c0 -42 -24 -74 -73 -94c-2 -3 -7 -8 -13 -14h-10c-1 -2 -4 -5 -7 -9c-1 -1 -15 -10 -41 -27c0 2 -8 -6 -27 -23c-3 -5 -9 -15 -16 -28h-3l-107 -149c1 -4 1 -9 -1 -16c-3 -11 -14 -27 -32 -47c-5 -25 -14 -59 -29 -103c-10 -30 -15 -58 -15 -83
c0 -80 60 -148 180 -201c25 -11 64 -28 115 -50c0 -1 -2 -3 -5 -6l27 -19c0 -5 4 -13 11 -23c-5 -5 -8 -8 -8 -10c0 -3 1 -6 3 -8l-8 -5c1 -2 1 -4 1 -6c0 -5 -2 -11 -5 -17c-5 -10 -7 -16 -6 -20c-8 -3 -18 -9 -31 -17c-9 -1 -17 -2 -22 -4l-54 13h-29c-8 0 -33 10 -74 29
c-41 20 -69 35 -85 46c1 -1 2 2 2 11c-5 6 -10 9 -13 9c-1 -1 -1 -2 0 -4c0 -1 0 -2 -1 -4c-2 3 -6 6 -11 9c1 2 2 4 3 7c-18 5 -35 21 -51 48c-9 16 -23 40 -41 72c-2 5 -3 11 -3 17c0 5 1 10 2 16c-5 13 -9 30 -14 50c-3 11 -4 25 -4 44c0 77 25 175 74 293
c11 21 30 51 56 92c2 9 3 14 3 15c8 6 17 16 25 31c10 18 17 29 21 34c20 25 54 67 103 124c4 6 22 26 56 58c10 3 21 10 33 23c28 17 49 26 62 26c8 0 22 -6 42 -16c1 -7 6 -16 14 -29c4 -23 6 -35 6 -35z" />
    <glyph glyph-name="parenright" unicode=")" horiz-adv-x="538" 
d="M476 431l5 -86l-1 -9c0 -5 0 -14 -1 -26c-5 -85 -36 -165 -92 -241c-57 -58 -110 -98 -159 -121c-9 -8 -21 -20 -35 -34l-161 -91c-10 5 -22 9 -36 13c-2 8 -5 13 -10 15c-5 21 -8 33 -8 34c0 19 15 50 44 93c1 1 1 4 1 10c28 27 74 63 138 105c62 41 97 65 105 71
c41 34 63 66 66 99c8 23 12 45 12 66c0 1 -1 8 -2 21s-2 21 -2 25c-1 1 -1 3 -1 5c0 4 0 8 2 13l-15 80c-5 15 -12 39 -23 72c-14 25 -23 44 -28 58c-5 10 -11 18 -16 23c-1 5 -11 21 -31 47c-20 27 -30 42 -30 47c-6 5 -16 13 -28 25c-13 11 -19 20 -20 28
c-11 11 -17 18 -17 20v18l5 8c0 1 -1 4 -2 8c-1 5 -1 8 -1 9c29 54 54 80 76 80c10 0 20 -3 30 -11c9 -8 15 -12 19 -14v-8c2 -2 8 -7 17 -15c8 -6 12 -13 11 -18c3 -4 6 -6 10 -6c0 4 1 0 3 -13c22 -26 35 -42 39 -47c10 -14 22 -33 34 -55c13 -15 29 -46 48 -93
c24 -57 41 -125 54 -205z" />
    <glyph glyph-name="asterisk" unicode="*" horiz-adv-x="416" 
d="M446 854v-29l-110 -97c40 -29 73 -60 100 -95v-58c0 -9 -5 -19 -15 -28c-1 -7 -1 -13 0 -18c-9 -2 -14 -3 -14 -3l-132 65c-3 -2 -6 -8 -9 -16c-1 -11 -4 -28 -8 -50c-5 -23 -15 -34 -31 -34c-18 0 -32 18 -41 54c1 6 1 14 1 25c0 2 -2 6 -5 11l-95 -112
c-5 0 -10 1 -16 2c-4 8 -9 13 -15 15c-7 17 -11 31 -11 40c0 5 5 17 14 36c9 21 14 33 15 38c4 7 8 17 12 30c8 11 16 24 24 38v9c-3 4 -6 5 -9 5c-3 6 -5 11 -5 15c-35 36 -53 62 -53 78c0 -2 5 9 14 31c2 19 8 33 19 41h16l88 -41h6l35 95c17 9 28 13 31 13
c16 0 27 -13 34 -41c2 -3 7 -11 14 -26l104 65h8c8 0 17 -8 28 -26c-1 -6 -1 -14 -1 -25c3 -5 6 -7 7 -7z" />
    <glyph glyph-name="plus" unicode="+" horiz-adv-x="605" 
d="M534 432l51 -73c-3 -6 -6 -15 -11 -26l-35 -13h-28l-35 -8s-2 0 -6 1c-3 2 -5 2 -7 2c-1 0 -5 -1 -10 -4c-5 -2 -9 -4 -10 -4s-3 1 -4 2c-1 0 -2 1 -3 1c-3 0 -15 -6 -37 -19c-15 0 -30 -3 -45 -10c-2 -2 -6 -8 -12 -18c-6 -51 -11 -95 -14 -132c-2 -33 -2 -56 1 -68
c-4 -7 -6 -13 -5 -18c-3 -2 -6 -5 -10 -8h-11c-1 0 -24 9 -68 28c-3 3 -7 9 -13 17c-5 0 -8 1 -9 3c-3 -3 -6 -8 -10 -15l-31 25v84l12 94c-1 6 -3 14 -6 24h-20c-5 -5 -11 -7 -19 -7c-5 0 -10 2 -16 5l-5 -5h-10c-2 0 -5 2 -10 7c-5 -5 -9 -7 -11 -7h-20c-5 15 -8 23 -8 23
c-4 2 -10 4 -17 7l-33 57c6 45 24 68 51 68l145 2c8 20 14 53 17 97c3 43 11 74 23 93c9 9 20 13 33 13c8 0 14 -1 16 -2l45 -26c12 -17 23 -41 34 -74c5 -14 6 -30 5 -46c-1 -9 -2 -24 -4 -43l5 -4h64z" />
    <glyph glyph-name="comma" unicode="," horiz-adv-x="388" 
d="M304 49c0 -10 -3 -20 -7 -32c-8 -36 -19 -64 -34 -85c-31 -31 -55 -55 -74 -73c-30 -29 -56 -46 -76 -51c-5 -5 -9 -8 -13 -9c0 1 -1 3 -5 7h-16v13c-3 1 -7 4 -13 8c2 6 3 8 3 7c-5 6 -12 13 -20 20c-1 5 -3 12 -8 21c7 21 33 64 79 129c40 57 60 102 61 134
c7 14 20 21 40 21c10 0 21 -4 32 -11c6 -7 15 -16 27 -29c16 -32 24 -55 24 -70z" />
    <glyph glyph-name="hyphen" unicode="-" horiz-adv-x="729" 
d="M218 173l6 3c-1 -3 -3 -4 -6 -3zM666 246v-9c-2 -1 -8 -9 -17 -22c-13 -9 -31 -14 -54 -16l-175 -13h-130c-54 0 -89 -4 -105 -12c-1 0 -4 1 -7 3c-4 1 -6 2 -7 2h-4c-2 -1 -2 -2 -2 -3s1 -3 3 -4c-3 -2 -8 -3 -14 -3c-2 3 -5 6 -8 10h-52c-8 7 -20 16 -36 28
c-2 9 -7 18 -14 25c-7 19 -11 36 -11 48c0 13 3 26 8 39c5 5 14 12 25 23l85 1l181 -10l92 6c3 0 12 3 26 8c3 -1 6 -3 10 -5l103 12c19 -11 38 -21 58 -29c9 -12 19 -29 30 -54c3 -6 9 -14 15 -25z" />
    <glyph glyph-name="period" unicode="." horiz-adv-x="272" 
d="M181 101l16 -57c1 -8 -4 -16 -14 -26c-10 -4 -27 -10 -52 -17c1 -1 3 -2 8 -2c0 -7 0 -11 -1 -11c-1 2 -5 7 -12 15l-6 -9c-3 3 -9 8 -16 13c-8 2 -18 6 -30 14c-4 16 -13 39 -27 70c-1 4 2 9 8 16c0 1 0 4 -1 10s-1 9 -1 10c5 5 11 11 19 18c5 2 13 4 24 8
c33 -14 61 -31 85 -52z" />
    <glyph glyph-name="slash" unicode="/" horiz-adv-x="697" 
d="M697 835c0 0 0 -6 -2 -17s-3 -19 -3 -23l-10 -17l8 -5c-4 -10 -6 -17 -6 -21c-4 -5 -10 -12 -19 -22c0 -2 1 -4 4 -4c-4 -2 -5 -6 -5 -10c0 -2 0 -4 1 -5c0 -2 -3 -1 -7 3c-2 -3 -9 -14 -21 -34c0 0 0 -2 1 -3c3 1 5 2 6 2c-2 -4 -4 -11 -8 -22h-10
c-10 -11 -14 -23 -12 -35c-2 -1 -6 -4 -10 -7c4 -2 5 -5 5 -7c-1 0 -4 -1 -8 -3c-3 -2 -6 -3 -6 -3c-4 -8 -12 -21 -26 -37c0 -3 2 -6 5 -10l-27 -26c0 -2 1 -4 1 -6c0 -9 -5 -18 -14 -28c-11 -13 -16 -25 -15 -39c-5 -4 -11 -11 -20 -22c0 0 0 -1 2 -3c1 -2 1 -4 1 -5
l-23 -25c0 -2 2 -8 5 -20c-5 -8 -16 -20 -32 -37v-12c1 -6 -2 -12 -8 -17l-15 -16c1 -4 2 -7 2 -10c0 -2 -1 -4 -2 -6c-17 -12 -24 -26 -23 -44c-17 -24 -26 -39 -25 -46c-15 -9 -23 -19 -23 -29c0 -3 1 -5 2 -8c-18 -7 -26 -20 -24 -38c-5 -4 -9 -10 -10 -17
c1 -1 1 -4 1 -7c-9 -6 -15 -17 -20 -31c-4 -11 -10 -18 -18 -22v-10l-100 -188c-1 -6 0 -13 3 -19c-5 -18 -12 -41 -23 -69c-1 -2 -15 -13 -40 -32c2 -1 8 -3 16 -7c-5 -2 -19 -13 -42 -34h-13c-2 0 -4 1 -6 3c-3 2 -4 3 -5 3c-2 -2 -3 -5 -3 -11l-10 3c-3 -5 -7 -8 -11 -8
c-6 0 -10 7 -10 21c0 2 1 4 1 6c-12 2 -24 7 -35 14c0 1 2 4 5 10c3 5 5 10 5 13c-1 8 -7 19 -17 33c2 11 5 27 8 47c3 6 7 13 13 23c7 28 23 67 47 116c3 1 8 11 15 29c6 10 16 25 29 45c0 3 2 10 6 20c12 20 51 86 116 198c1 3 1 6 2 10c12 16 28 43 50 81
c21 36 69 116 142 238c7 20 30 66 70 136c0 4 2 11 5 22c11 21 26 52 44 93c2 4 3 10 4 16c9 16 28 42 57 79h21c7 0 13 -2 16 -6c33 -33 48 -60 48 -81z" />
    <glyph glyph-name="zero" unicode="0" 
d="M913 517c0 26 -6 59 -18 97c-7 22 -21 46 -43 70c-21 23 -41 38 -60 46c-9 9 -25 18 -47 28c-18 7 -33 13 -45 18c-15 3 -36 8 -61 15l-120 3c-13 0 -40 -4 -82 -13c-2 -3 -6 -4 -11 -6h-12c0 2 -1 4 -2 6c-1 0 -4 1 -7 2s-6 1 -7 1l-75 -33l-90 -80c1 -2 1 -4 2 -6
l-35 -14c-3 3 -8 5 -16 7c-6 -13 -11 -22 -15 -25c-7 -11 -17 -29 -28 -54c-4 -18 -7 -32 -10 -43s-5 -19 -6 -23s-2 -4 -2 -2v-35c0 -1 0 -3 -2 -5c-1 -3 -2 -5 -2 -6c0 -8 3 -21 8 -39c0 -4 -1 -10 -1 -17c32 -102 80 -184 145 -246c23 -22 63 -47 121 -73
c45 -8 73 -13 84 -13c47 0 101 15 163 45c81 40 148 96 198 169c51 72 76 148 76 226zM917 769c-1 2 -2 4 -6 7c0 -3 2 -5 6 -7zM1003 586v-56c0 -1 -1 -5 -4 -12c1 -27 -5 -67 -18 -120c-8 -20 -20 -48 -37 -87c-1 -7 -8 -22 -22 -45c-23 -50 -70 -110 -142 -182
c-1 -2 -2 -5 -4 -8c-5 -2 -11 -5 -19 -10c0 -3 1 -6 4 -10h-7l-26 -22h-8c-75 -56 -162 -89 -261 -99c-3 0 -6 -2 -11 -5c-4 0 -11 0 -19 -1c-8 0 -12 -1 -12 -1c-26 -1 -75 12 -145 36c-43 29 -81 60 -114 92v11c-7 8 -17 22 -29 40c-66 80 -104 175 -110 286l-2 41
c-1 10 0 24 4 39c7 59 24 121 49 187c1 3 9 15 22 36c30 62 76 117 141 162c3 4 11 9 22 16c9 3 18 5 25 5c9 7 23 12 43 15c3 2 7 5 13 8c9 0 17 3 26 7c5 0 25 3 59 9c22 4 35 6 39 6h66l55 -12h40c1 0 3 1 4 3c2 1 3 2 4 2s7 -1 20 -3c12 -1 20 -2 24 -2c1 -2 3 -5 6 -9
l13 2c4 -2 9 -5 15 -10c2 0 4 1 8 2c3 1 5 1 6 1l47 -15c-1 -1 -2 -3 -4 -5c4 -5 9 -8 18 -8c5 0 10 0 15 1l31 -19c-3 1 -6 3 -8 4c-2 2 -5 0 -8 -4l72 -52c1 0 2 0 3 1l-48 44c35 -19 65 -43 90 -74c7 -9 23 -36 47 -81c2 -4 3 -11 4 -21c7 -11 11 -23 11 -38
c3 -5 4 -14 4 -27c5 -6 8 -13 8 -18z" />
    <glyph glyph-name="one" unicode="1" horiz-adv-x="642" 
d="M442 745l-11 -205c-1 -17 -4 -39 -6 -67c0 -2 1 -5 4 -8l-25 -232l-40 -229l-6 -8c-7 0 -12 2 -15 5l-5 -5h-15c-2 -3 -5 -8 -10 -15c-16 3 -25 5 -26 5l-40 47c-1 -1 -2 -2 -3 -2c-2 0 -3 1 -5 3c2 3 3 5 3 7l6 -5l6 6c-2 5 -7 9 -14 12v71c1 6 4 12 8 17v35l4 2
c1 5 5 13 11 24c2 25 2 39 2 42c1 9 2 20 4 33c4 0 7 4 7 12c1 16 2 25 3 28c-2 2 -4 4 -5 7c7 15 12 30 15 45v10c0 9 2 18 6 28l4 62c8 22 12 36 12 41c0 10 -2 20 -5 31l13 271c-1 2 -1 5 -1 8c0 6 1 14 4 23c3 3 7 5 10 5c2 5 5 10 11 18l5 -5l4 7h10c3 -1 11 -5 26 -11
c4 -2 7 -7 11 -14c12 -3 23 -18 32 -43c8 -23 11 -42 11 -56z" />
    <glyph glyph-name="two" unicode="2" 
d="M960 141v-43c-12 -5 -28 -14 -49 -25c-20 -4 -32 -6 -36 -6h-39c-2 0 -4 -1 -6 -2c-2 -2 -4 -3 -5 -3h-96l-144 -23c-7 -1 -14 0 -23 3l-217 -48l-181 -20c-28 0 -46 5 -55 15c-14 4 -25 17 -34 38c-10 9 -15 18 -15 29v38c15 19 28 34 39 44c62 57 133 123 212 200
c7 6 14 11 21 17c16 15 42 44 78 89c49 75 79 125 91 150c25 49 37 97 37 143c0 23 -5 38 -15 45c-10 8 -32 12 -64 13l-83 -30c2 0 -1 1 -10 3l-129 -70c0 -4 -1 -9 -4 -13l-10 2l-72 -42h-36c-3 5 -12 17 -26 36c0 2 -1 7 -4 16s-4 14 -4 15s1 6 2 15s1 15 1 17
c17 11 36 25 56 42c20 13 55 35 107 63c59 32 103 52 129 61c31 10 67 13 108 13c38 0 76 -10 117 -34c47 -28 71 -61 73 -99c6 -22 9 -31 9 -25v-37c0 -1 -1 -8 -3 -21c-2 -14 -3 -22 -4 -26c-5 -59 -31 -127 -75 -206c-6 -11 -35 -55 -86 -132c-24 -20 -45 -45 -63 -75
c-7 -7 -17 -19 -30 -35c-21 -18 -46 -42 -74 -72l7 -4l365 50l95 -2c15 -2 40 -7 76 -13c31 -6 53 -16 66 -31c0 -5 -1 -9 -3 -10c2 -2 4 -5 6 -10z" />
    <glyph glyph-name="three" unicode="3" 
d="M953 171c0 -9 -4 -21 -12 -35c-14 -23 -22 -37 -24 -40l-100 -51c-1 1 -3 1 -5 1c-3 0 -6 -1 -10 -2c-7 -3 -35 -9 -85 -20c-6 -5 -14 -8 -22 -9c-87 -15 -135 -22 -142 -22h-33l-77 -10l-117 -3l-154 2c-12 5 -20 7 -24 7c0 5 -3 10 -10 16h-7c-3 3 -11 12 -23 27
c-2 8 -5 14 -8 19c0 -3 2 4 7 20c0 2 -2 5 -5 8c2 7 3 16 5 25c14 13 25 20 31 20l231 -3l163 10c7 1 16 4 27 6c78 7 150 30 216 69c0 2 1 4 3 6c-8 20 -24 41 -49 60c-14 11 -34 26 -60 47l-88 46c-20 7 -49 18 -88 32c-25 4 -45 8 -60 11c-14 3 -25 5 -30 6
c-5 2 -6 2 -2 2c-2 0 -4 -1 -7 -2l-29 9c-3 1 -7 -1 -12 -5l-6 6l-90 12l-39 59v8c0 5 3 11 10 17l-5 5c1 4 2 8 2 12c0 5 -1 9 -2 14l40 27c1 -1 4 -2 7 -2c21 0 53 8 97 22c7 2 29 12 66 28c11 5 27 17 48 36c20 18 34 31 40 41c17 17 26 29 26 36v11
c-12 12 -21 19 -27 22c-35 7 -63 10 -85 10c-8 0 -30 -2 -65 -7c-36 -12 -60 -20 -71 -24c-25 -9 -43 -18 -55 -27c-5 -2 -18 -8 -38 -20c-21 -11 -31 -17 -31 -17h-39l-27 30c2 4 3 8 3 14c-7 8 -14 12 -19 14c-1 3 -3 9 -7 16c-8 0 -13 -1 -14 -2c0 4 1 8 2 9
c0 2 -3 6 -8 12c6 6 13 11 21 13c13 2 19 4 20 4c3 7 8 12 12 15c18 10 38 20 62 30c26 17 76 37 151 61c42 9 74 13 97 13c7 0 26 -2 57 -6c54 -8 103 -25 149 -53c11 -13 24 -25 36 -39c15 -17 21 -33 20 -46c4 -7 6 -15 6 -24c0 -37 -10 -73 -32 -107
c-5 -5 -24 -23 -59 -53c-24 -21 -42 -43 -57 -66c9 -9 28 -19 55 -30c45 -17 71 -28 80 -32c18 -11 51 -30 96 -59c29 -19 64 -54 106 -104c45 -54 67 -96 67 -126z" />
    <glyph glyph-name="four" unicode="4" 
d="M202 279l4 4h-15zM954 375c-2 -2 -5 -4 -9 -8c2 -1 4 -4 8 -8c-13 -16 -20 -25 -22 -27c-9 -9 -18 -15 -27 -17l-133 2l-7 -7c-9 -31 -20 -63 -29 -94c-8 -27 -13 -63 -17 -108l2 -116c-8 -3 -12 -8 -12 -14c0 -2 0 -4 1 -6c-11 -5 -26 -11 -47 -20c-7 6 -14 8 -20 8
s-10 -1 -13 -3c-4 2 -16 14 -37 35c0 -2 1 1 4 9c-1 2 -4 2 -11 2c-9 19 -14 29 -14 30v126l29 147l-4 4h-21s-3 0 -7 -2c-5 -2 -8 -2 -10 -2l-109 -13c-3 2 -10 3 -21 3l-93 -14c-5 3 -11 5 -16 5l-22 -5h-49c-2 0 -5 -2 -8 -5c-3 3 -8 5 -14 5c-10 -6 -18 -10 -25 -10
c-15 3 -24 4 -27 3c-12 5 -17 7 -15 7l-10 -3c-1 5 -6 8 -15 11c-12 4 -19 9 -23 14c-2 8 -8 18 -18 29s-19 18 -28 20c4 6 6 23 8 51c26 50 65 124 115 222c0 1 1 4 1 9l140 277c7 1 15 3 25 6c7 -5 16 -10 25 -12c0 -5 12 -21 38 -49c0 -3 0 -8 1 -16s2 -13 2 -14
c0 -37 -29 -110 -82 -221l-79 -162c-2 -1 -5 -5 -9 -12v-10h46l208 13l142 18c8 27 20 69 36 125c1 4 19 55 54 152c9 28 28 67 56 119c12 15 28 30 48 45h9c-8 0 2 -3 28 -9c1 -2 4 -11 8 -26c3 -9 11 -15 25 -19c0 -2 1 -6 3 -14c1 -8 2 -12 2 -13c0 0 -2 -10 -6 -29
c-6 -9 -13 -18 -19 -26c-6 -9 -13 -25 -20 -47c-4 -12 -9 -32 -18 -61c-20 -61 -38 -124 -55 -191l7 -6h51c46 0 79 -26 99 -78z" />
    <glyph glyph-name="five" unicode="5" 
d="M882 833v-9c0 -10 -12 -27 -36 -51l-254 -14c-13 -1 -33 2 -61 9c-1 0 -3 -2 -6 -5h-24c-1 0 -3 1 -7 3c-4 1 -6 2 -8 2c-1 0 -4 -1 -10 -2s-10 -1 -11 -1l-95 6c-20 -24 -32 -40 -38 -48c-8 -13 -19 -34 -32 -66c9 -8 17 -13 26 -15c162 -29 286 -64 371 -105
c50 -25 95 -60 136 -108c41 -47 62 -94 62 -140c0 -35 -21 -74 -63 -118c-9 -10 -39 -30 -91 -61c-11 -7 -24 -12 -37 -16c-19 -10 -37 -19 -54 -27c-11 -4 -31 -10 -58 -16c-11 -4 -25 -9 -45 -15c-49 -9 -123 -23 -221 -42c-9 -5 -17 -8 -24 -10c-17 -3 -31 -7 -43 -13
c-49 -6 -71 -9 -68 -9c-1 0 -4 1 -9 2c-5 2 -8 3 -9 3c-1 2 -2 6 -5 11l-10 -2c-4 7 -11 12 -19 15c0 2 1 5 4 8c-1 2 -4 6 -8 10l-10 -1c1 4 3 8 5 12c2 9 6 17 13 24v12c24 20 43 36 58 46c28 19 49 28 65 29c9 3 22 8 40 15c43 9 108 22 194 42c68 16 133 45 193 86
c29 20 43 36 43 49c0 2 -5 17 -17 44c-7 4 -17 11 -30 21c-7 -1 -13 0 -20 2c-2 7 -7 14 -14 21c3 0 -8 3 -33 8c-1 4 -5 8 -12 12c-11 4 -17 6 -18 8c-9 3 -18 6 -29 9c-22 7 -44 11 -64 12c-16 5 -22 8 -17 8c0 0 -2 0 -5 -1c-3 2 -5 5 -7 9c-18 1 -36 5 -54 11h-5
c-4 0 -5 0 -5 -2l-148 34c-2 0 -3 -2 -3 -5c-1 1 -2 2 -4 5c-2 -3 -4 -5 -6 -5c0 0 -6 3 -17 8c-11 2 -29 10 -55 23c-5 10 -14 23 -25 40v11c-5 5 -11 11 -19 16c0 2 0 8 -1 16s-1 13 -1 14c0 14 1 24 4 30c4 11 16 35 37 69c1 6 3 11 7 17c10 22 25 54 46 97
c19 38 50 58 91 68l167 -19h51l36 -5h125l102 12c12 0 25 -3 40 -9c19 -8 28 -17 28 -28c0 -4 -1 -8 -2 -12c4 -3 12 -13 23 -29z" />
    <glyph glyph-name="six" unicode="6" 
d="M223 227c0 1 -1 4 -2 6c-2 0 -4 -1 -6 -4c2 -1 4 -2 8 -2zM376 354c-3 -2 -5 -4 -5 -7c0 0 0 -1 1 -1c4 5 6 8 4 8zM841 311c0 0 -1 4 -4 12c-2 8 -3 14 -3 17c-7 5 -17 13 -29 25c-23 13 -49 20 -79 21l-7 7h-19c-1 3 -6 6 -14 9s-12 4 -12 4c-6 -2 -9 -5 -10 -7l-41 3
h-59l-69 -13c-1 -3 -2 -6 -4 -9c-6 -1 -14 -1 -24 -1c0 -2 -1 -3 -2 -4c-1 2 -3 2 -5 2c-1 0 -6 -1 -15 -4c-8 -3 -13 -5 -13 -5c-3 0 -5 1 -7 3c-1 -2 -3 -5 -8 -7c-2 3 -5 4 -9 4c1 0 3 -1 7 -5l-51 -26c1 -1 1 -3 1 -4s0 -2 -1 -2c-9 -6 -23 -14 -41 -22
c0 -2 -3 -5 -7 -8c-2 2 -3 5 -3 8l-49 -33c-2 0 -3 1 -4 2c-3 -4 -3 -8 -3 -13l-20 -17c1 -6 -1 -10 -5 -15c-7 -8 -11 -13 -12 -16c-2 1 -3 3 -4 6c-2 2 -3 4 -6 4s-8 -3 -15 -8v-12c0 -12 14 -29 42 -49c29 -21 51 -31 66 -31c36 -18 78 -26 125 -24l55 3
c21 3 51 10 90 21c52 9 106 31 162 66c5 3 14 7 26 14c6 6 14 14 25 23c13 4 26 16 38 37c11 18 17 33 17 44zM947 282c0 -2 1 -18 6 -46c2 -17 -8 -31 -32 -42h-4c-16 -21 -24 -34 -24 -40h-7c-1 -2 -7 -8 -16 -17c0 2 -2 4 -4 6c-2 -1 -5 -3 -8 -7l4 -4h11c1 -3 1 -5 0 -6
l-9 -9l-6 -3c-10 -13 -31 -28 -64 -46l-72 -40h-6c-2 1 -4 1 -5 1c-12 -4 -29 -9 -50 -14c-7 -6 -11 -9 -10 -9s0 0 -3 1c-2 -1 -2 -3 -2 -5l-92 -22l-3 1l-52 -10l-36 4l-10 -4l-89 9c-4 3 -6 5 -5 5h-16c-7 0 -38 12 -95 35c-5 9 -18 15 -39 19c-16 16 -32 29 -49 39
c1 7 -5 15 -19 25v3c0 9 -8 16 -25 20c1 1 3 4 7 7c-2 7 -7 13 -15 17c-28 63 -41 118 -41 165c0 31 4 63 12 95c0 0 1 1 1 3s-1 4 -2 7c1 3 4 11 9 25c6 34 20 63 41 85c3 21 16 44 37 71c8 9 29 32 62 66c2 10 11 19 29 29c1 4 4 10 8 17c19 22 41 41 80 74
c38 33 63 52 76 58c0 -3 1 -4 4 -4c4 6 12 15 22 27c20 12 38 22 55 30c9 3 21 7 36 13c5 3 13 4 24 4c12 0 26 -4 41 -13c2 -8 8 -18 17 -27c0 -1 0 -3 -1 -4l9 -9c-2 -4 -3 -9 -3 -16c-4 -3 -8 -8 -13 -16c-6 -2 -14 -6 -24 -10c4 -4 6 -6 6 -5c-2 0 -8 -5 -18 -14
c-1 1 -4 2 -8 2l-80 -58v-11c-3 -1 -9 -4 -19 -8c-5 -4 -14 -11 -26 -23c-15 -2 -24 -13 -25 -30l-167 -170c0 -5 -5 -18 -16 -37c-2 -5 -14 -27 -36 -64c-4 -15 -7 -26 -7 -35c-1 -5 -4 -14 -9 -26c0 -4 2 -7 7 -9c-3 0 -4 -3 -4 -8h2c1 1 2 1 3 0c1 2 1 5 0 11l19 16
c4 9 9 20 15 35l44 35c6 -1 14 4 24 16c3 -1 5 -1 8 -1c9 0 15 3 20 10c0 3 -3 6 -9 9c8 4 14 5 18 3c2 2 2 3 2 4l131 36c-1 -4 -2 -7 -2 -9s1 -3 2 -4c-3 0 1 1 12 2c15 11 24 17 27 17l172 7c13 1 39 -4 80 -13c11 -2 34 -10 70 -23c12 -8 29 -19 52 -33
c13 -18 24 -27 31 -27l31 -56c0 -1 0 -3 -1 -7c0 -4 -1 -7 -1 -8c5 -7 8 -18 9 -34s2 -26 3 -28z" />
    <glyph glyph-name="seven" unicode="7" horiz-adv-x="889" 
d="M443 766v-9c2 1 3 2 3 4c0 1 -1 3 -3 5zM787 840c0 2 -2 -9 -6 -33c-3 -21 -2 -34 1 -40c-16 -32 -33 -61 -51 -88c-8 -12 -17 -21 -25 -26c-15 -22 -26 -41 -35 -57c-2 -2 -7 -5 -12 -9c1 -2 2 -4 2 -6c-2 -1 -6 -5 -12 -11c-5 -18 -20 -42 -44 -69
c-7 -25 -23 -47 -46 -67c-2 -4 -3 -11 -4 -21c-2 -6 -8 -14 -18 -24l-17 -37c3 -5 4 -8 4 -10c0 -1 -1 -2 -1 -3c-10 -11 -14 -22 -14 -31c0 -3 0 -7 2 -10c-2 1 -3 2 -4 2s-2 -1 -3 -2v-14c-3 -1 -8 -6 -14 -14c-6 -4 -14 -12 -23 -26c-8 -14 -14 -22 -15 -24
c1 -3 1 -6 1 -9c0 -9 -5 -16 -15 -22c1 -8 -3 -21 -10 -38c-9 -20 -14 -33 -15 -40c2 -2 3 -4 3 -5c-2 1 -3 2 -5 2c-1 0 -2 -1 -2 -1v-20c-4 -4 -9 -10 -14 -19c1 -3 1 -10 1 -22l-5 -5l-10 3l-4 -5v-8c3 1 6 2 10 2v-13c-8 -10 -19 -25 -33 -46c1 0 -3 0 -12 -2
c2 3 3 7 3 10c0 2 0 4 -2 7c0 -2 -1 -4 -1 -7c-17 -7 -30 -10 -40 -10h-14c-7 7 -12 10 -16 10h-17c-2 4 -6 9 -11 16c-1 1 -5 1 -11 1c4 14 7 22 7 24c0 1 -2 8 -5 19s-5 18 -5 20c0 3 5 21 15 52c8 9 17 28 29 56c13 32 26 64 40 96c8 18 22 49 40 93c11 14 20 30 29 49
c12 25 20 39 22 44c12 24 30 67 66 124c0 0 38 57 112 171v8c-11 3 -23 5 -36 3c-18 -2 -35 -3 -50 -1c-4 5 -9 7 -13 7c-3 0 -6 -1 -9 -2c0 -1 2 -2 7 -4c5 -3 8 -4 8 -6l-82 -9h-36c-6 0 -8 1 -7 3c-9 -5 -15 -8 -16 -8s-3 0 -5 1c-3 1 -4 1 -6 1c2 0 -7 -2 -29 -6l-5 7
c-3 0 -7 -2 -13 -7h-10h-16c-1 1 -3 0 -5 -1c-4 -2 -6 -3 -7 -3h-43c-3 0 -6 -1 -9 -4c-10 0 -17 1 -20 3l4 4c3 2 5 4 7 6l-4 4h-20c-3 0 -4 2 -4 5c-10 7 -19 10 -26 10c-2 0 -5 0 -7 -1l-29 39v33c0 20 4 35 11 44c16 11 24 17 24 17h146l212 24h36c1 0 5 0 10 1s8 2 9 2
l112 6l70 -12c37 -35 55 -59 55 -71zM359 762l12 -3z" />
    <glyph glyph-name="eight" unicode="8" 
d="M914 288c0 17 -15 39 -46 65c-30 27 -58 44 -83 50c-3 2 -20 7 -51 14c-34 8 -58 12 -71 11l-189 -5l-169 -28c-4 -1 -9 -2 -15 -3c-21 -10 -52 -22 -93 -36c-5 -3 -10 -7 -17 -12c-19 -7 -35 -19 -51 -36c-15 -17 -23 -34 -25 -50c4 -10 10 -17 16 -23
c14 -12 21 -18 22 -20c18 -8 44 -22 79 -40c14 -4 28 -8 42 -15l97 -17l86 -2c16 0 52 4 108 13c23 3 51 8 84 14c17 5 37 10 61 15c7 1 15 4 24 10c10 2 24 3 41 6l78 33s15 7 43 19c20 11 29 23 29 37zM800 694c-13 15 -25 24 -36 30c-19 15 -56 26 -110 30l-58 5l-63 -12
l-4 5c-26 -6 -65 -16 -116 -31c-45 -13 -81 -34 -108 -60c14 -19 42 -34 85 -46c33 -8 64 -13 93 -13c1 0 10 0 27 1c16 1 25 2 26 2c16 0 64 10 145 31c15 7 30 12 45 14l71 29l2 5c1 3 1 7 1 10zM1028 329l-5 -28v-33c0 -1 -1 -6 -5 -15c-3 -8 -5 -14 -5 -16
c-1 -5 -6 -13 -15 -22c-1 -3 -5 -10 -11 -23c-16 -20 -56 -52 -118 -95c-19 -9 -45 -18 -77 -28c-4 -2 -8 -5 -12 -8l-238 -60c-2 0 -5 1 -8 1c-5 0 -13 -1 -23 -3c-17 -3 -29 -6 -33 -6l-112 -7c-1 0 -3 1 -5 3c-2 1 -3 2 -4 2h-42l-123 26c-15 6 -37 15 -65 27
c-14 8 -29 18 -44 29c-3 2 -19 14 -48 37c-29 44 -44 81 -44 112c0 30 6 61 18 93c6 10 15 25 27 44c20 39 52 71 97 97c20 11 56 28 110 48l-2 8c-30 17 -52 43 -68 77c-1 5 -4 17 -8 35c-3 15 -4 24 -4 28c0 21 9 49 27 85c20 38 40 62 61 73c39 12 57 18 55 18
c8 0 15 -2 22 -7c3 0 9 0 20 -1s17 -1 18 -1l9 -3c5 4 13 11 23 19l106 34l105 14l51 -7c4 1 10 4 18 7c5 -4 18 -7 40 -8c18 -2 30 -7 36 -17c2 0 3 2 3 5c7 -2 13 -6 19 -10c39 -5 82 -39 130 -104c5 -17 8 -30 8 -38c0 0 -1 -8 -3 -23s-3 -26 -3 -33
c-2 -4 -6 -10 -13 -19c0 -4 -8 -21 -22 -50c-8 -1 -18 -8 -31 -19c-6 -5 -14 -13 -26 -23c5 -5 11 -10 19 -15c4 -3 10 -5 18 -6c25 -14 46 -26 62 -38c3 -3 5 -9 8 -17c4 -2 11 -6 21 -11c54 -54 83 -96 86 -128z" />
    <glyph glyph-name="nine" unicode="9" 
d="M661 593l-5 42c-6 49 -25 80 -61 94c-7 3 -21 7 -39 15c-5 0 -12 0 -23 1c-12 0 -17 1 -18 1l-48 -5c-7 0 -33 -8 -77 -25c-9 -6 -22 -16 -39 -28v-15c0 -4 11 -15 32 -33c11 -9 28 -23 50 -41c21 -8 51 -21 91 -38l6 4c10 -6 21 -9 33 -9c1 0 6 0 15 1h16
c8 0 17 -1 27 -4c8 -8 17 -17 29 -27c1 2 3 8 7 18c2 42 4 58 4 49zM789 609c0 -127 -50 -254 -149 -381c-4 -3 -9 -7 -15 -12c-23 -30 -53 -61 -89 -93c-24 -22 -67 -61 -130 -116c-2 -8 -2 -11 -2 -10c-6 -2 -14 -8 -22 -16c-11 -3 -24 -8 -39 -17h-8l-4 5
c-3 -1 -6 -3 -10 -5l-23 23l-13 -2c0 5 0 9 -2 11l6 5v8c-2 2 -5 4 -9 7v13c0 2 4 18 12 48c49 64 116 129 202 196c15 15 36 38 64 70c24 26 39 50 46 71c0 1 1 2 1 2c-1 1 -2 2 -4 2h-8c2 0 -2 -2 -14 -7c-5 0 -15 -1 -29 -3l-21 -3c-2 0 -28 6 -79 18
c-15 8 -40 22 -74 40l-63 52c-23 19 -39 35 -46 48c-7 14 -13 31 -19 51c-1 6 -6 11 -13 16l-4 62c-2 18 6 40 22 67c17 27 38 48 64 62c16 9 38 22 66 42l96 38c2 -6 9 -7 19 -5c8 2 15 3 23 5l34 -5c6 3 10 5 12 5s14 -4 36 -12c32 2 66 -14 101 -47
c36 -32 56 -66 61 -101c16 -14 24 -58 24 -132z" />
    <glyph glyph-name="colon" unicode=":" horiz-adv-x="222" 
d="M143 74v-41c-20 -24 -39 -36 -57 -36c-7 0 -14 2 -20 6v7c-5 2 -12 5 -21 8c-3 5 -6 7 -9 7l-8 65c0 1 1 6 2 13c0 8 1 12 1 14c13 13 22 20 26 20h25c19 -16 40 -37 61 -63zM161 312v-18l-24 -26c-11 -9 -20 -14 -30 -15c-25 11 -38 17 -40 17c-18 29 -26 48 -26 59
c0 15 3 29 9 42c8 18 19 27 32 27c11 0 21 -4 30 -12c15 -13 23 -21 25 -22c2 -2 7 -10 13 -24c7 -15 11 -25 11 -28z" />
    <glyph glyph-name="semicolon" unicode=";" horiz-adv-x="304" 
d="M260 58c0 -8 -5 -23 -14 -46c-10 -23 -18 -36 -23 -41c-23 -26 -62 -62 -117 -109c-6 -5 -15 -13 -27 -24c-18 -15 -30 -23 -36 -23h-18c-4 2 -10 6 -18 10c-10 5 -18 19 -27 41c0 8 -2 18 -6 30v18c0 12 8 27 26 47c19 21 54 59 104 114c4 8 11 18 20 32
c5 11 11 22 16 33c7 15 17 23 28 24c2 1 5 2 8 4c13 -6 32 -18 56 -36c1 -5 6 -13 14 -22c9 -27 14 -44 14 -52zM237 391c0 -7 -2 -13 -5 -20c-5 1 -10 -2 -15 -9c-8 -10 -13 -15 -16 -16h-10c-8 0 -28 10 -58 30c-14 17 -21 36 -21 57c0 7 3 21 11 40c9 12 16 18 21 18h22
c11 -9 28 -21 50 -35c14 -28 21 -50 21 -65z" />
    <glyph glyph-name="less" unicode="&#x3c;" horiz-adv-x="702" 
d="M752 -69v-36l-26 -36s-5 0 -13 2c-3 1 -7 -2 -12 -7c-4 0 -11 2 -20 5c-1 0 -5 -2 -10 -7h-10c3 0 -13 13 -48 38c-1 4 -3 8 -7 12c-53 49 -100 79 -139 92c-3 4 -5 8 -5 11c-4 3 -11 4 -22 4l-115 63c-1 0 -2 -1 -4 -3c-16 5 -27 10 -33 13c-11 7 -20 16 -28 28
c-11 2 -23 6 -35 12c-20 16 -35 27 -45 31c-12 8 -25 14 -40 18c-13 11 -26 20 -41 27c-1 2 0 7 2 15c-3 3 -7 5 -12 4c-1 2 -7 10 -19 23c-15 23 -28 51 -39 83c2 10 7 25 14 44c37 35 115 112 234 229c40 32 88 78 146 137l118 121l28 14c16 -2 33 -11 53 -26
c19 -16 31 -30 34 -42c2 -3 5 -9 10 -16v-56l-81 -78c-1 -1 -2 -2 -2 -3s1 -2 2 -3c-11 -9 -24 -22 -39 -41c-43 -27 -79 -62 -107 -105c-4 -3 -10 -7 -17 -11c-13 -10 -26 -26 -40 -47c-12 -9 -30 -20 -53 -33c-1 -1 -2 -2 -2 -4c0 -1 1 -3 3 -5c-16 -7 -23 -17 -23 -30
c-8 -5 -16 -8 -23 -8c-3 -5 -7 -14 -10 -27c-7 -5 -17 -12 -32 -20c1 -3 1 -6 0 -11l-8 -4c0 2 -1 -1 -2 -9c13 -14 33 -30 61 -47c0 0 22 -13 66 -40h10c31 -22 61 -37 88 -46c6 -4 14 -9 25 -16c2 -2 7 -3 15 -4c31 -20 72 -45 122 -76c28 -17 49 -30 63 -37
c6 -5 25 -25 57 -59z" />
    <glyph glyph-name="equal" unicode="=" horiz-adv-x="722" 
d="M247 134c-2 -3 -4 -5 -6 -4c1 1 3 2 6 4zM689 203v-9c-3 -2 -9 -9 -18 -22c-9 -6 -27 -11 -54 -16l-175 -12h-130c-54 0 -89 -4 -105 -13c-1 0 -3 1 -6 3c-4 2 -6 3 -8 3h-4c-1 -1 -2 -2 -2 -3s1 -3 3 -4c-3 -3 -7 -4 -14 -4c-1 3 -4 6 -7 10h-53c-7 6 -19 16 -35 28
c-2 9 -7 18 -15 25c-7 19 -11 36 -11 49c0 12 3 25 8 38c5 5 14 13 26 23l84 1l181 -10l92 6c3 0 12 3 26 8c3 -1 6 -3 11 -5l102 12c19 -11 38 -20 58 -28c8 -10 18 -28 31 -55c1 -3 6 -11 15 -25zM621 393l-15 -21c-22 -12 -39 -18 -51 -20c-41 -6 -75 -10 -102 -11
l-168 -7c-8 -7 -12 -11 -13 -12c-5 3 -14 8 -26 17l-73 -10c-18 2 -39 5 -62 8c-12 4 -19 11 -21 23c-6 5 -12 13 -17 25c-13 20 -20 36 -20 48c0 18 6 37 18 56c12 7 23 11 34 13l63 -13l185 -9l149 19c24 -2 44 -6 61 -11c11 -12 22 -21 32 -29c5 -8 11 -19 18 -33
c1 -16 4 -27 8 -33z" />
    <glyph glyph-name="greater" unicode="&#x3e;" horiz-adv-x="587" 
d="M573 344c-1 -2 -2 -10 -5 -24c-1 -3 -1 -5 -1 -8c0 -5 2 -10 6 -12l-65 -87c-13 -9 -29 -23 -49 -42c-2 -2 -3 -4 -3 -7l-144 -131s-2 -1 -5 -2c-2 -1 -4 -1 -5 -1l-97 -117c-2 -2 -9 -3 -20 -3c-3 -3 -10 -8 -21 -15c-3 1 -7 3 -13 8h-9c-1 0 -5 -1 -12 -4
s-11 -4 -12 -4c-11 0 -21 3 -30 8c-5 6 -14 18 -27 33c-3 11 -8 22 -16 32v38c0 2 2 5 4 8c4 21 20 46 48 75c31 30 54 54 72 70c7 6 50 47 130 121c8 7 23 20 43 40c5 5 16 20 34 44l-153 162c-4 4 -5 8 -3 11c-4 3 -11 8 -22 14c-1 16 -11 28 -30 38c0 2 1 4 2 6
c-4 3 -8 8 -12 16c-8 4 -17 11 -29 21c-6 15 -12 23 -20 25c-3 3 -8 8 -13 15c-7 12 -18 31 -32 56c-14 24 -21 45 -21 62c0 12 7 27 20 46c14 18 26 27 36 28l51 -25c9 -11 24 -25 43 -42c1 -2 8 -9 21 -22c10 -10 17 -24 20 -40c21 -34 57 -81 108 -142c1 -3 2 -7 6 -12
c2 -3 34 -34 95 -94c13 -13 32 -32 57 -56c6 -3 14 -6 25 -11l13 -30c5 -3 12 -9 20 -18c10 -11 15 -21 15 -28z" />
    <glyph glyph-name="question" unicode="?" horiz-adv-x="727" 
d="M248 4c0 -1 -2 -8 -6 -23c-3 -14 -5 -23 -4 -27c-6 -2 -10 -4 -11 -4c-3 -6 -8 -15 -15 -28c-1 0 -3 1 -6 3l-3 -5c0 -6 0 -8 1 -8c-2 3 -7 9 -15 18c-5 -1 -10 -2 -15 -2s-11 1 -17 2c-1 -3 -3 -6 -6 -10c-3 4 -5 6 -5 8c0 1 0 2 2 2c1 -1 3 0 5 2v1h-11
c-1 -1 -5 1 -12 6c-6 4 -10 6 -12 6l-5 8c0 1 0 4 1 8s1 6 1 7c-5 5 -8 7 -10 7v26c0 3 1 6 4 11c1 8 2 20 3 37c3 4 6 10 10 17c-1 1 -1 2 -1 3c0 6 5 14 15 23c12 11 22 16 31 15c12 -1 27 -10 45 -24c10 0 20 -10 30 -31c4 -18 6 -34 6 -48zM734 742
c0 -50 -25 -114 -75 -190c-2 1 -3 1 -5 1s-5 0 -7 -2c1 -2 2 -4 2 -8l-63 -56c-9 -1 -20 -5 -32 -9c-11 -19 -31 -34 -60 -44c-16 -11 -38 -28 -66 -51c-8 -4 -20 -8 -35 -12c-27 -14 -66 -38 -118 -72c-6 2 -10 3 -14 3c-3 0 -6 -1 -8 -2c1 -1 0 -2 -2 -4c3 -1 6 -3 10 -6
c0 0 -2 1 -5 2c-3 0 -5 1 -6 1c-3 -5 -10 -9 -19 -13c-1 -1 -2 -2 -2 -3s1 -2 1 -3c3 2 5 2 6 2c-12 -17 -33 -43 -62 -79c-8 -25 -16 -38 -24 -38c-1 0 -3 2 -5 7c-2 4 -4 6 -5 6c-3 -8 -8 -12 -16 -12c-1 3 -2 7 -4 12l-5 -5c-3 5 -8 13 -16 23h-13c1 5 -3 9 -10 12l-2 46
l10 79c6 7 11 16 16 27c18 42 73 91 165 148c2 1 6 2 12 3c39 24 85 52 138 86c3 2 7 3 12 5c21 14 55 35 100 64c3 5 14 16 35 32c20 16 32 27 35 34v10l-35 27c-13 4 -33 7 -59 11c-1 1 -5 1 -11 1s-13 -1 -19 -4c-3 1 -16 1 -37 1c-13 -4 -26 -7 -39 -7l-19 6
c-9 -3 -21 -7 -38 -12c-19 -2 -36 -4 -50 -7c-23 -4 -42 -11 -57 -21c-7 -2 -20 -5 -38 -8c-17 -13 -42 -29 -75 -51c-3 4 -7 7 -11 8h-19c-3 -4 -8 -6 -14 -4c-1 3 -5 4 -12 4c-3 7 -5 12 -5 16c-3 2 -8 4 -15 7c0 4 -3 11 -10 21l8 13c2 6 3 11 3 16c0 6 -1 11 -3 17
l17 42c13 8 31 19 55 32c26 9 64 23 115 41c55 18 102 28 139 30l125 8c22 2 54 -2 95 -11c7 -1 12 -3 15 -4s3 -2 0 -2c21 1 46 -13 76 -42c27 -26 44 -50 50 -70c0 -4 1 -14 2 -29c2 -14 3 -22 3 -23z" />
    <glyph glyph-name="at" unicode="@" horiz-adv-x="962" 
d="M808 463l-5 49c-14 16 -34 40 -61 72c-8 6 -24 14 -48 23c-28 11 -50 16 -65 16c4 0 -7 -2 -33 -5c-16 -2 -32 -1 -48 3c-1 -2 -3 -4 -5 -5c-44 -5 -88 -13 -132 -24c-12 -3 -38 -13 -76 -29l-106 -86c1 -3 -1 -10 -7 -21c-6 -12 -10 -19 -10 -21l-10 -10l-28 -91
c-5 -32 -7 -54 -7 -65c0 -31 7 -54 21 -68c11 -11 39 -28 86 -51l95 -15h84c13 0 52 5 118 16c26 7 62 18 109 33c-22 3 -54 23 -99 59l-108 -33h-34c-4 0 -8 -2 -11 -5l-20 10c-1 -1 -4 -2 -7 -2c-21 0 -50 25 -89 74c-3 9 -9 21 -17 38c-7 41 -11 60 -11 57
c0 16 6 42 18 79c25 20 44 33 59 39c69 28 117 43 143 43c11 0 30 -5 57 -13c5 -4 11 -9 20 -14c5 -1 12 -2 22 -5l47 -79c-4 -5 -5 -11 -5 -19c0 -15 4 -30 14 -46c9 -16 19 -26 30 -29c3 2 8 4 15 6c28 5 52 19 73 42c20 23 31 49 31 77zM545 391c0 2 -1 4 -3 7
c-2 0 -5 0 -10 1c-4 1 -8 1 -9 1l-88 -28c0 -1 -1 -3 -3 -6c3 -2 7 -5 11 -8h8c10 0 23 2 40 7c25 7 43 15 54 26zM898 527l20 -88l-15 -88c-7 -15 -17 -38 -31 -67c-7 -9 -18 -22 -32 -38c-15 -9 -38 -24 -67 -43v-6c2 -1 6 -3 12 -8v-12c1 -1 5 -2 10 -2v-29
c-3 -3 -6 -8 -10 -15l8 -15c-9 -13 -14 -22 -14 -28c0 -2 0 -3 1 -4c-21 -17 -33 -26 -35 -26c-3 0 -5 1 -6 2c-3 -3 -4 -6 -4 -9c-5 -3 -14 -7 -24 -12c-11 -6 -18 -13 -21 -21l-87 -23l-2 3l-109 -20l2 -5c-4 -1 -10 -1 -18 0c0 1 1 1 2 -1l7 6h-46c-2 0 -4 -1 -9 -3
s-8 -3 -9 -3s-6 1 -13 2c-7 2 -12 3 -13 3s-6 0 -13 -1s-10 -1 -11 -1c-25 0 -76 11 -153 33c-18 11 -45 27 -81 50c0 7 -6 14 -17 22c-19 14 -30 21 -32 23c-21 28 -39 67 -56 118c0 10 -1 27 -3 51l-2 37l7 78c0 -11 4 5 13 48c0 0 5 17 17 51c7 20 15 34 25 39
c7 25 28 54 61 87c29 28 57 49 85 65c41 17 78 32 113 45c14 5 30 10 48 13c56 11 103 16 139 16c23 0 63 -5 119 -16c14 -4 36 -10 65 -18c65 -29 111 -68 137 -114c24 -20 38 -46 42 -76z" />
    <glyph glyph-name="A" unicode="A" horiz-adv-x="812" 
d="M415 415l117 -46c-2 6 -5 22 -12 48c-8 34 -13 55 -14 63l-38 120c-15 47 -33 86 -53 117c-9 -9 -18 -26 -28 -50c3 -4 5 -9 -3 -26l-6 9l-12 -18l-3 10l-63 -138c1 -1 1 -3 1 -8c-20 -22 -33 -47 -40 -76c5 1 11 1 20 1c7 -2 12 -2 15 -3l3 -1c5 1 11 2 20 7l33 1
c1 0 11 -2 28 -7c15 -4 24 -6 25 -6h1c4 2 6 3 9 3zM210 219c0 16 2 22 9 35l24 -11c-13 -13 -18 -17 -33 -24zM22 226h3l-2 2v1c1 2 1 5 2 12c19 17 31 32 39 47c16 16 25 32 29 48c6 12 15 28 26 49c6 16 16 36 31 57c7 16 16 40 29 73c3 5 7 11 12 20c3 10 4 15 4 18
c13 27 35 73 66 142c3 7 14 26 31 54c4 6 11 21 22 44c12 33 28 74 51 125c7 3 12 5 23 11c11 -4 24 -7 43 -11c20 -14 35 -25 45 -36c4 -6 7 -14 12 -24c27 -34 63 -111 108 -230c0 0 1 -1 8 -1c0 -9 2 -15 5 -24c4 -10 6 -18 6 -22c0 -3 0 -5 -1 -8c2 -2 4 -3 8 -7
c17 -46 41 -134 73 -267l5 -10c15 -73 35 -131 61 -176c0 -6 7 -24 28 -65l-14 -11c0 -4 1 -8 1 -12c0 -9 -2 -18 -18 -79v58c-2 2 -5 5 -7 8h10s-1 -2 -2 -3l-1 -2c1 0 1 0 4 -3v-17c-4 -4 -9 -6 -13 -7c-3 -7 -6 -14 -13 -25h-60l-50 65c-7 39 -20 69 -42 95
c4 10 5 13 5 15c-3 4 -8 13 -14 26c-13 17 -27 32 -44 45c-13 13 -26 23 -39 30c-24 12 -38 20 -44 23c-16 1 -32 5 -48 13c-5 2 -7 3 -14 3c-1 4 -2 7 -3 9c-1 -2 -3 -5 -7 -10c-20 3 -38 8 -58 15c-5 -4 -13 -9 -29 -20c-3 7 -5 11 -9 15c-1 -1 -2 -1 -6 -5
c-4 2 -7 3 -9 4c3 -3 8 -7 14 -16c-36 -4 -49 -10 -58 -22h-27l-5 5c-4 0 -8 -1 -11 -1l-38 -75l-1 -1c0 -1 0 -2 2 -7c-6 -12 -11 -24 -21 -41c-11 0 -18 1 -24 2l-4 -7h-18c-5 11 -9 15 -13 17c-8 3 -14 6 -19 10c0 4 0 6 1 8c-4 6 -6 13 -7 20c-3 4 -7 10 -14 19v37z" />
    <glyph glyph-name="B" unicode="B" horiz-adv-x="839" 
d="M622 310c-14 11 -37 22 -69 34c-12 9 -39 16 -80 20c-12 7 -20 10 -25 10l-186 -14l2 -3c0 -9 -1 -22 -3 -40c2 -16 5 -33 8 -49c5 -29 16 -58 30 -86c-2 -2 -5 -5 -11 -9v-15c2 -1 5 -3 7 -5c24 4 54 14 91 29l95 40c13 3 56 25 128 67c7 10 11 17 13 21zM535 722v24
h-25c-1 0 -4 0 -11 -1s-11 -1 -14 -1l-69 -10c-4 -4 -7 -7 -9 -7c0 0 0 1 -2 1c-1 1 -3 1 -5 1c-4 0 -12 -4 -25 -12c-6 0 -13 0 -23 -1c-13 -7 -31 -16 -53 -26c-5 -4 -13 -10 -23 -17c0 -7 -2 -12 -6 -17c-4 -17 -6 -35 -5 -56l3 -49c125 56 214 113 267 171zM803 285
l-20 -49l-5 5c-3 -22 -14 -43 -34 -63c-15 -16 -32 -28 -50 -36c-12 -8 -25 -18 -38 -31c-6 0 -12 -1 -19 -5h-13c-6 -5 -9 -12 -9 -20c-2 1 -6 -2 -13 -8c-1 2 -5 3 -12 3l-221 -95c-3 0 -6 2 -10 5l-77 -23c-12 5 -26 8 -41 8c-1 0 -6 -2 -12 -5c0 3 1 5 4 8
c-2 1 -3 2 -4 2v10c-8 3 -19 8 -34 15v36c-2 3 -5 7 -10 12c5 7 9 16 10 27c2 11 3 17 3 18c-6 11 -15 26 -27 45c-4 11 -11 27 -20 48c-8 43 -13 64 -13 63v32l-10 68l-3 55l10 135l-7 43c-5 -3 -10 -4 -15 -4s-10 2 -14 5v15c-10 -7 -14 -13 -14 -17c-8 5 -18 14 -30 27
l-14 6c2 5 4 12 6 22l-3 4c-1 -1 -4 -2 -9 -2v33c3 1 5 6 5 15c0 6 -1 14 -2 24c26 16 61 44 107 82c7 36 21 54 41 54c10 0 20 -5 32 -15h22l130 45c8 -2 18 -1 31 4c16 6 27 9 32 10c52 7 89 11 109 11c9 0 22 0 36 -1c4 -2 10 -5 20 -9c24 -6 45 -21 65 -45
c19 -25 29 -48 29 -70s-3 -41 -8 -57c0 -9 -1 -23 -3 -40c-18 -49 -61 -104 -129 -164c0 -1 2 -3 3 -7c46 -13 91 -35 134 -64c52 -35 82 -71 90 -107c6 -6 14 -25 24 -58z" />
    <glyph glyph-name="C" unicode="C" horiz-adv-x="901" 
d="M630 76h-9c0 2 -1 -1 -3 -9c3 0 7 3 12 9zM860 163c-6 -1 -17 -9 -32 -23c-1 -3 -1 -5 -1 -7s0 -4 1 -6c-1 0 -6 1 -14 2c-2 0 -4 -3 -6 -9c-14 -3 -29 -9 -46 -20l-47 -13c-4 0 -7 1 -8 2c-5 -4 -7 -6 -7 -5c3 -4 7 -8 15 -13c-2 -1 -6 -1 -10 -1c-8 0 -18 1 -32 3
c5 0 8 2 8 6h-9c-3 -3 -5 -7 -5 -10c-3 3 -8 5 -15 5v-9l-12 -7c13 0 21 -1 25 -3c-3 0 -5 -2 -5 -5h-77c-2 0 -3 -1 -3 -3l-68 -12c10 0 25 -3 44 -8c1 2 2 6 5 12h9l-2 -3l11 -2l8 5c0 -1 1 -4 5 -8h26c-7 -1 -18 -4 -32 -9c-2 1 -6 2 -10 5l-4 -5c-2 1 -6 2 -13 2
c-2 -1 -5 -3 -9 -6c8 -2 17 -3 28 -3c-3 0 -9 0 -19 -1c-9 -1 -15 -2 -18 -2c-1 0 0 2 4 5h-18l5 -4c0 -5 -3 -8 -9 -8h-100c-5 5 -8 7 -8 7h-5l2 -5c-19 0 -46 -1 -79 -5c-5 4 -7 7 -7 8s1 1 1 1c-5 2 -10 3 -16 3c-2 0 -4 0 -9 -1s-8 -1 -9 -1c-14 0 -22 3 -25 10h-7
c1 0 -2 -1 -8 -3l-68 24c1 2 3 2 5 2s4 -1 6 -3h7c3 0 7 1 12 4c-8 4 -13 6 -17 6c-1 0 -3 -1 -5 -3c-2 3 -13 7 -32 15c-1 -1 -2 -4 -2 -7h-9c-1 4 -4 7 -9 8c-8 3 -12 5 -13 5c-1 5 -2 7 -3 7c1 0 2 2 2 3c-2 2 -5 3 -9 3c3 0 4 1 6 2l-6 4l-5 -5c-2 2 -5 3 -8 3
c-2 4 -5 10 -8 18l-28 13c0 1 1 3 3 5c-3 1 -8 7 -13 17c-4 1 -13 12 -24 33c-2 18 -4 43 -9 75l-7 50c0 127 75 259 226 396c13 4 25 10 35 19c15 13 26 19 33 17c4 6 11 15 20 26c18 10 45 25 80 44c7 -2 11 -2 13 -2l42 30l136 37h43c2 -5 5 -13 9 -23c3 -3 8 -9 17 -16
c-7 -3 -10 -8 -10 -14c0 -22 0 -34 1 -35c0 0 1 1 1 2c4 -3 10 -10 18 -18c-2 0 -6 -2 -13 -5c0 2 1 -1 3 -10l-15 -12c3 -1 10 -4 20 -7c-12 -7 -21 -10 -28 -10c-2 0 -4 0 -6 1c-1 -2 -4 -4 -7 -7c-10 -1 -23 -4 -40 -7c-6 -4 -24 -12 -55 -25c-9 -3 -24 -10 -45 -20
c-18 -11 -52 -30 -103 -57c-29 -27 -57 -48 -82 -64c-20 -21 -50 -55 -89 -103c-4 -2 -7 -4 -11 -7c-6 -3 -9 -9 -9 -16c0 -3 1 -7 4 -11c-6 -7 -16 -17 -30 -31c0 2 1 -1 3 -9l-15 -55v-36c0 -3 5 -9 14 -17s16 -12 20 -12c4 -3 9 -8 17 -14c2 -1 28 -8 78 -22
c11 -2 31 -5 60 -6l86 -3l96 6l130 15c5 0 9 -1 13 -3l38 13c1 -2 4 -3 7 -3l57 15h21l5 -7h35c2 -2 3 -6 3 -11c1 -1 4 -2 8 -2c-1 -2 -2 -5 -3 -8c5 -4 8 -7 8 -6c-4 -2 -10 -6 -18 -14c-1 -1 -1 -2 -1 -2c0 -1 2 -2 4 -2h15c0 2 -3 -4 -8 -19c3 -1 6 -3 10 -5z" />
    <glyph glyph-name="D" unicode="D" horiz-adv-x="919" 
d="M710 551c0 0 -2 8 -4 23c-3 15 -5 25 -5 29c-9 22 -21 42 -37 58c-9 13 -23 28 -44 45c-4 -1 -6 -2 -7 -2c-5 0 -10 4 -14 11c1 0 1 0 1 1c-1 1 -2 3 -3 4c-2 -1 -5 -2 -7 -2l-109 41l-116 5l-70 -3c-6 -1 -34 -7 -84 -18c-4 -2 -16 -17 -37 -44l9 -516l-11 -10v-8
c2 0 5 -2 8 -6l98 29c13 8 38 21 78 40c42 20 67 33 75 37c26 6 77 42 152 108c84 75 127 134 127 178zM849 558c0 -70 -42 -154 -124 -252c-3 -3 -10 -9 -21 -18c-1 -6 -3 -13 -5 -22l-131 -108c-30 -19 -71 -44 -124 -75c0 2 -1 4 -3 5l-103 -57c-11 -20 -31 -30 -60 -30
c-3 0 -8 0 -12 1c-13 -7 -26 -11 -38 -11l-10 -9l-18 1c-7 1 -13 -3 -19 -8c2 -1 3 -2 5 -2c-3 -2 -7 -3 -11 -6l4 8l-6 4c-7 -4 -12 -5 -14 -5c-7 0 -13 2 -17 8l-7 -1c-4 -1 -8 -1 -13 -1l4 4c-3 5 -6 7 -8 7c0 0 -2 -1 -8 -2c1 2 2 3 2 5l-11 8c-4 0 -10 2 -19 6
c0 5 -1 8 -3 10l5 6c1 6 -1 13 -7 19v34c0 4 4 16 11 36c-2 9 -6 16 -13 21c-5 9 -12 21 -22 38c-5 38 -8 59 -8 65v297l5 145l-4 3c-10 -2 -33 -18 -71 -49c-2 5 -5 10 -9 14h-10c-2 0 -4 -1 -4 -4c-7 8 -13 13 -20 14c-1 11 -7 20 -19 26c0 2 2 8 4 20l-9 9c-1 3 0 7 2 12
l-5 4v11s1 3 4 10c3 6 5 11 5 15c0 3 -1 5 -1 8c1 4 5 8 12 14c144 78 256 120 336 126c2 1 7 2 16 3c9 2 14 3 15 3h40c8 0 18 2 31 5c12 -5 24 -8 38 -8c1 0 6 1 13 2c8 1 12 1 13 1c28 0 54 -4 81 -12c38 -5 64 -12 77 -21c86 -24 151 -69 198 -134
c44 -62 66 -126 66 -193z" />
    <glyph glyph-name="E" unicode="E" horiz-adv-x="862" 
d="M854 849c-17 -9 -25 -19 -24 -31c-7 -5 -18 -13 -32 -22l4 -4c3 0 6 1 7 3c2 -4 3 -6 3 -8c-1 0 -6 -2 -13 -6l-5 8c-3 -5 -8 -8 -15 -8c-10 0 -17 -1 -21 -2c1 -1 4 -2 7 -2c-38 -15 -55 -22 -51 -22c0 0 -2 1 -5 3c-1 -3 -5 -7 -10 -14h-25c-16 -19 -34 -27 -55 -24
c-33 -4 -50 -11 -50 -21c-4 0 -8 2 -11 6c-28 -8 -38 -12 -33 -12c-6 0 -10 1 -11 3c-3 -3 -6 -8 -10 -14l-6 6c-1 -1 -3 -1 -7 -1c-3 0 -8 0 -14 1c-2 -3 -3 -7 -3 -10s1 -7 3 -10c1 4 -1 6 -5 6h-8c-5 -4 -7 -7 -7 -11l-16 2c-1 0 -6 -1 -13 -4c-8 -3 -13 -4 -15 -4
c0 0 -2 1 -7 3c-3 -3 -4 -7 -4 -11l-66 -29c-5 -16 -13 -37 -24 -63c1 -5 2 -12 4 -22l255 20h74c0 -10 -1 -15 -2 -15c0 0 -1 0 -1 1h33c-1 -2 0 -5 2 -10c-5 -6 -7 -8 -7 -7c6 -2 15 -6 27 -12c-5 -7 -12 -13 -23 -16l-4 -8c0 -1 1 -5 2 -10v-12c-2 -3 -7 -6 -15 -9
c1 -2 2 -5 3 -8l-104 -35c-9 0 -15 1 -18 3c-5 -4 -17 -8 -37 -11c-3 -4 -8 -9 -15 -17c-4 1 -7 1 -11 1c-3 0 -5 0 -7 -1c-1 1 -2 1 -2 1c-1 0 -2 -3 -2 -6c-3 0 -13 -2 -31 -5c-15 -3 -25 -1 -31 4l-76 -31c-9 0 -19 -3 -30 -9c-12 -6 -22 -10 -30 -13
c-2 -3 -7 -12 -14 -25c-6 -19 -12 -40 -18 -63v-19l325 25c1 0 5 -1 11 -2c7 -2 10 -3 11 -3h47c5 -1 18 -3 40 -7c16 -2 36 -5 61 -9c10 -3 25 -8 45 -14c9 -9 24 -23 44 -42v-29l-10 -11l7 -8c-12 -5 -19 -8 -20 -10h2c-1 -5 -4 -12 -7 -22c-2 -1 -6 -1 -11 -1
s-12 0 -20 1c-1 -2 -2 -5 -2 -8c-9 -3 -15 -7 -19 -12c0 3 -3 5 -9 8c-5 -1 -12 0 -22 1c-7 1 -13 2 -17 2c-7 0 -14 -2 -20 -7l7 -6c-10 0 -16 1 -19 2c0 2 2 4 4 7c-2 1 -6 1 -13 1c0 0 0 -2 1 -4l2 -4l-135 -3c-17 0 -27 -4 -31 -11l-6 5h-22l-101 -17c-6 0 -10 1 -11 3
c0 0 -2 -2 -5 -4s-5 -3 -5 -4h-17c-2 -2 -3 -5 -3 -10c0 3 -1 5 -3 7h-9c-3 -3 -5 -6 -5 -8c-5 -1 -21 -3 -48 -4c-4 -3 -12 -6 -23 -10l-77 -10h-56l-6 18c-27 19 -44 43 -51 71c-4 16 -6 38 -6 66c1 3 4 14 11 34c16 47 30 94 42 140c-1 3 -1 5 -1 6c7 12 11 24 12 36
c-5 24 -7 34 -7 32v39c3 4 9 15 18 35c6 13 14 19 23 17l24 75v13l-4 5h-15c-33 36 -52 70 -58 103l17 65c19 13 29 20 29 21c1 0 3 0 6 -1c3 -2 5 -2 6 -2c19 0 45 6 80 17c8 9 22 20 41 36c17 -9 28 -14 35 -14c2 0 7 1 17 3c10 1 17 1 23 0l196 42c6 0 10 -1 11 -3
c1 2 2 4 2 6l36 6c7 -1 19 -3 35 -6c9 5 16 10 20 14c3 0 8 -1 16 -3l60 12c2 -1 10 -3 24 -6c3 4 8 8 15 11c4 0 6 -3 6 -8c-5 -3 -11 -5 -17 -7c1 -1 6 -2 13 -2c1 1 11 3 29 8c1 0 1 -1 1 -1c0 -1 -1 -2 -3 -3c5 -7 8 -10 8 -8v-11c2 -1 6 -2 11 -4c3 3 8 5 15 5
c17 -4 32 -6 43 -6c2 -3 2 -6 2 -7zM471 657c-1 3 -3 4 -4 4c4 -1 5 -3 4 -4z" />
    <glyph glyph-name="F" unicode="F" horiz-adv-x="865" 
d="M589 440c-4 -1 -8 -1 -12 -2c0 -2 1 -4 3 -7c6 3 9 6 9 9zM875 767c0 -1 0 -4 -1 -8c-1 -5 -2 -9 -2 -10l-10 -10c-1 -8 1 -15 8 -19c-16 -6 -26 -9 -28 -9c-4 0 -8 2 -11 5l-5 -5c-3 1 -7 3 -11 5c-1 0 -6 -1 -14 -5c-2 2 -7 3 -15 3c0 -1 1 -4 1 -8h-13
c-8 0 -13 3 -18 8c-6 -3 -11 -5 -15 -5l-91 -3c0 4 -1 7 -2 8c-4 0 -8 0 -12 -1l-5 -2c-3 -3 -5 -6 -5 -10c-7 0 -13 3 -18 8c0 -1 -4 -3 -12 -8c-10 3 -19 5 -26 5c-6 0 -14 -2 -23 -5c0 5 -1 9 -4 10c-6 -3 -9 -6 -9 -8c0 -1 1 -2 3 -3c-1 0 -3 -1 -7 -2
c-3 -1 -5 -2 -6 -2c0 4 -1 7 -4 10c-3 0 -8 -2 -13 -6c1 -2 4 -3 7 -3c-7 -1 -13 -2 -20 -2c-6 0 -12 1 -18 2c2 -1 4 -2 6 -2c-2 -1 -9 -3 -22 -6c-14 -1 -36 -1 -65 0c-1 1 -2 2 -4 2c-7 -7 -13 -10 -20 -10c-19 0 -52 -5 -98 -13c-9 -6 -14 -12 -16 -19
c-5 -20 -12 -51 -21 -92v-14c3 -5 7 -8 12 -10l87 3l210 35c5 0 16 1 33 2c17 2 25 3 25 3c1 0 7 -2 16 -4c9 -3 14 -4 15 -4c15 0 22 1 20 2c0 -3 1 -6 2 -7h38l7 -7c3 -2 11 -4 26 -8c0 -6 3 -14 7 -26c-3 -3 -9 -8 -17 -15l2 -9c6 1 10 0 13 -3c-1 -1 -3 -4 -6 -7
c-2 2 -7 3 -15 3c-1 -1 -2 -2 -2 -3c5 -5 8 -7 8 -6c-3 -3 -12 -7 -26 -12c-15 -5 -23 -10 -26 -14c-1 2 -2 4 -5 7c-3 -1 -8 -4 -16 -11c-11 -1 -29 -7 -52 -15c5 -3 10 -5 15 -5c-14 -2 -28 -7 -41 -16c-1 0 -4 0 -9 1c-4 1 -8 1 -9 1c-9 0 -17 -4 -25 -12h-16l-4 5
c-22 -11 -35 -17 -39 -16v4h-6c-3 -5 -8 -10 -17 -15c-5 0 -22 -3 -53 -9c-11 -6 -20 -9 -27 -9c-1 0 -5 0 -10 1c-6 0 -9 1 -11 1l-99 -12c-7 3 -11 5 -11 5h-12c-4 -6 -10 -28 -17 -67c0 -25 1 -38 3 -39c0 -3 -3 -6 -8 -11l-2 -125c-1 -1 -1 -19 -1 -55
c-3 -3 -4 -8 -5 -13c-7 -7 -16 -16 -29 -27c3 0 7 -5 12 -16c0 0 -3 -1 -10 -2c-6 -1 -9 -3 -8 -5c0 -2 -2 -3 -6 -3c-2 0 -3 3 -4 8c-2 7 -3 11 -4 12c-3 0 -5 0 -7 2c-2 -5 -6 -15 -11 -30c-1 0 -8 3 -19 10l-7 -7h-7c-9 0 -16 8 -21 22c-3 0 -6 -1 -10 -2
c-3 7 -8 11 -15 10c-5 11 -8 21 -8 31l-10 10l-8 71c1 13 2 34 5 64l8 100c15 84 26 156 33 218l29 133v17c-1 1 -5 2 -12 2c-4 7 -6 12 -5 16c-12 34 -18 53 -18 57c0 10 9 31 28 64l153 28l266 24l116 5l87 -4c3 -3 11 -6 24 -10l8 5c2 -1 8 -2 18 -4c1 -1 21 -8 59 -22
c23 -8 41 -20 52 -35c0 -2 1 -7 4 -14s4 -11 4 -12z" />
    <glyph glyph-name="G" unicode="G" horiz-adv-x="1155" 
d="M431 501l24 9l2 -2c120 3 241 10 362 10c67 0 129 -29 183 -65c5 -4 25 -17 28 -20c20 -24 37 -53 55 -78c1 -4 1 -8 1 -12c0 -8 0 -16 -1 -24c-5 -6 -10 -12 -11 -20l-9 -4l-3 -8l-4 2l-12 -14l9 -2c-13 -25 -37 -43 -60 -57c-2 5 -4 10 -6 14c-5 -7 -10 -13 -15 -20
c0 -3 2 -6 3 -9l-37 -36l3 -1l-92 -52c-3 1 -7 2 -9 2c-12 0 -25 -13 -33 -20c8 -1 17 -1 26 0l-3 -3l-12 2c-87 -37 -245 -115 -353 -117l-2 -7c-11 -3 -22 -7 -33 -12c-14 2 -27 5 -41 8l-11 -9l-5 9l-9 -10h-22c-10 10 -25 8 -38 15l-139 66l-4 -2l-3 4
c-31 18 -51 50 -72 78c-38 53 -57 117 -57 182c0 140 55 262 150 364c100 107 214 165 352 208c49 15 97 36 149 36c31 0 121 -38 108 -79c7 -10 16 -24 17 -37l-9 -19l4 -6c-2 -17 -16 -30 -18 -47c-4 -6 -10 -10 -17 -10c-3 0 -6 3 -8 5c-5 -4 -10 -8 -14 -13
c-27 7 -60 8 -88 8c-6 0 -47 -16 -53 -20l-10 9c-6 -3 -11 -7 -12 -13c-17 -2 -31 -11 -46 -17l-140 -61c-4 -1 -9 -11 -11 -15c-22 -7 -43 -29 -58 -45l-6 6c-4 -6 -7 -12 -10 -18c-17 -11 -39 -43 -46 -62l-13 -4c-24 -60 -59 -119 -59 -185c0 -114 121 -134 211 -134
c59 0 115 25 174 27c76 31 239 85 289 145c-7 3 -13 7 -18 13l-4 8c-9 -1 -18 -3 -27 -3s-25 6 -34 9c-14 -2 -27 -4 -40 -6c-6 4 -12 7 -17 10c-11 -13 -35 -7 -50 -7l-1 -3c-8 5 -17 3 -26 3l-5 -9c-17 0 -33 6 -50 6c-12 0 -24 -3 -36 -4c-4 -5 -10 -11 -16 -11
c-7 0 -13 0 -19 3c-12 -2 -29 -9 -40 -9c-12 0 -26 2 -35 10v13c-6 4 -10 9 -14 15l-14 6l1 8l-4 13l4 10l-12 12c4 14 4 29 4 43c3 5 10 17 10 22c0 4 -3 9 -6 12c6 4 10 10 13 16z" />
    <glyph glyph-name="H" unicode="H" horiz-adv-x="922" 
d="M251 313c-11 -4 -17 -6 -17 -7c7 0 13 2 17 7zM895 728v-23c0 -1 -6 -13 -17 -35c-10 -19 -18 -36 -25 -51c-1 -3 -1 -5 -1 -8c0 -5 1 -9 2 -14c-6 -13 -10 -25 -12 -35c-4 -14 -10 -53 -20 -116c-9 -62 -17 -106 -24 -132c0 -6 1 -15 1 -27c-6 -15 -9 -28 -9 -40v-23
c-2 -3 -5 -6 -8 -10c2 -5 3 -11 3 -17c0 -2 -1 -5 -1 -8l-4 -7v-35l-15 -111c-2 -3 -4 -9 -6 -17c-1 -6 -5 -9 -10 -9l-15 -37c-1 3 -4 6 -8 10c-9 -12 -21 -18 -35 -18l-12 5c-3 -3 -7 -7 -11 -12l-10 10l-10 -3c-4 8 -13 18 -28 31c-10 22 -18 64 -23 126l25 197v42l-4 5
h-9c-1 0 -5 -1 -12 -3c-7 -1 -11 -2 -13 -2c-1 0 -4 -2 -7 -6c-1 0 -2 1 -4 3h-6l2 -4l-48 -11s-2 0 -5 1s-5 2 -7 2s-8 -1 -18 -4c-11 -3 -17 -4 -18 -4h-14c-7 -7 -13 -10 -19 -10c-5 0 -12 2 -23 5c-4 -2 -6 -6 -6 -11h-75c-4 -2 -5 -4 -5 -7h-35c1 -5 -2 -11 -8 -17
c-1 1 -1 2 -1 3c0 3 1 5 2 8c-3 2 -5 4 -9 7c-9 0 -14 -1 -16 -2c0 0 1 -2 1 -5c1 -3 2 -5 3 -5c-2 1 -8 -2 -18 -8c-5 1 -13 2 -24 2v-7c-3 1 -7 2 -11 5c-5 -5 -11 -8 -19 -8c-8 -20 -12 -42 -12 -66v-35l-5 -28c-4 -5 -9 -7 -14 -6c-3 -3 -4 -7 -4 -10c1 0 -5 -1 -19 -4
c-1 -2 -4 -5 -7 -9c-1 2 -4 3 -9 3c-3 -3 -8 -8 -16 -15c-4 1 -8 2 -12 2s-9 -1 -13 -2c-3 3 -6 6 -9 10c-7 1 -15 6 -22 15c-11 13 -17 21 -20 23c-5 23 -8 41 -11 55s-5 24 -7 29c-1 5 -2 6 -2 2l5 47v65c0 1 6 36 19 106c22 119 45 210 70 273c0 15 15 40 46 75
c3 1 11 3 26 8c12 -5 26 -14 43 -28c3 -10 8 -25 16 -45c3 -1 6 -3 10 -5l7 -43c1 -1 2 -2 2 -3c0 -5 -5 -14 -14 -27c3 -3 5 -9 5 -15l-43 -188c5 -5 15 -7 28 -6l229 10l53 7h50l79 15c5 5 9 13 11 22c14 70 33 128 57 175c33 62 71 101 116 114l45 -30c4 -2 5 -7 4 -13
c-2 -10 -3 -15 -3 -16c3 -3 7 -9 11 -17c2 -4 5 -6 9 -5z" />
    <glyph glyph-name="I" unicode="I" horiz-adv-x="325" 
d="M219 783l5 -73l-18 -290l3 -71c-3 -5 -5 -11 -5 -16v-41l-8 -67v-40l-2 -143c0 -2 2 -6 7 -11c-2 0 -6 -3 -11 -8h-7s-3 1 -8 3c-13 -9 -19 -18 -17 -25c-13 -5 -26 -8 -37 -8c-7 0 -13 2 -18 5c-12 8 -28 21 -49 36l-13 83l35 586c2 13 4 29 7 49c1 6 2 14 4 24
c1 1 8 18 22 51c10 23 22 37 36 40c5 -1 11 -4 18 -7c21 -22 31 -34 32 -35c11 -13 19 -27 24 -42z" />
    <glyph glyph-name="J" unicode="J" horiz-adv-x="771" 
d="M664 652l10 -98l-11 -196l-32 -208c-7 -9 -14 -21 -20 -38c-7 -8 -16 -17 -28 -30c-23 -19 -44 -34 -65 -46c-1 -3 -7 -8 -18 -14c-7 -5 -30 -11 -71 -19c-45 -9 -74 -13 -87 -12l-133 10c2 0 -27 10 -88 31l-8 8c-11 3 -34 15 -71 37c-8 7 -16 13 -24 17
c-1 13 -5 31 -13 56l5 6v17c8 5 14 12 16 23c3 12 4 18 5 18c15 12 25 18 28 17h10c3 -1 8 -5 15 -12c11 1 24 -3 39 -10c11 -5 23 -11 36 -17c60 -19 108 -28 144 -28c2 0 11 0 28 1l28 1c12 1 28 4 47 12c19 3 38 13 56 31c19 19 29 38 29 57c2 2 4 6 6 12c2 17 5 35 8 54
c4 23 6 35 6 36v33l10 92v66l-5 37v48c0 2 -2 8 -4 17c1 9 -1 22 -6 38l-5 95c1 6 2 13 3 23c-2 41 17 72 58 93h28c6 -14 19 -30 38 -50c0 -3 2 -10 6 -20c6 -6 13 -32 21 -78c6 -35 9 -56 9 -65v-45z" />
    <glyph glyph-name="K" unicode="K" horiz-adv-x="880" 
d="M825 821c-3 -8 -4 -14 -4 -20c-11 -12 -27 -29 -47 -52c0 -2 0 -3 2 -4l-262 -288c-12 1 -30 -18 -52 -60c-3 -4 -8 -6 -14 -7c-5 -4 -9 -10 -13 -18c-9 -7 -16 -15 -20 -24c4 -3 10 -8 18 -15c14 -6 43 -13 87 -23s72 -17 83 -22c87 -12 156 -37 209 -72
c4 -4 11 -16 21 -35c-2 -5 -3 -11 -2 -20c-2 1 -3 1 -4 1c-3 0 -6 -1 -9 -3c2 -6 6 -16 13 -29c-4 -1 -14 -6 -30 -13s-27 -11 -32 -11c0 0 -4 1 -10 3c-2 -6 -12 -8 -28 -8l-135 12c-4 2 -18 5 -41 10c-18 3 -41 7 -69 13c-16 3 -47 11 -94 23c-23 7 -54 18 -93 37
c-10 5 -27 15 -52 30c-2 0 -16 15 -43 43l-9 -5v-255c-4 0 -9 -3 -16 -8c-4 3 -8 5 -11 5c-5 -7 -8 -11 -8 -15c0 -1 1 -2 1 -2c-23 -9 -32 -13 -27 -13c-5 -3 -8 -8 -10 -13l-14 4c-2 1 -4 3 -6 6c-22 8 -39 19 -52 33c-11 16 -17 36 -20 58c0 0 -2 17 -5 51l2 105l34 476
c2 18 8 51 15 100c1 2 5 11 10 27c27 32 45 47 55 47c1 0 5 0 12 -1s11 -1 13 -1c3 -6 11 -13 23 -21c9 -18 20 -46 34 -83l-17 -413c2 0 5 2 8 4c7 12 18 29 33 51c13 14 32 36 58 66c8 10 27 30 58 61c17 16 46 44 87 84c16 20 39 50 72 90c20 17 46 42 75 75
c10 12 26 31 49 54c5 5 24 20 55 45c29 24 49 35 60 35c14 0 26 -10 37 -31c10 -18 15 -31 15 -39c0 -1 -1 -3 -2 -4c3 -4 7 -11 12 -21z" />
    <glyph glyph-name="L" unicode="L" horiz-adv-x="928" 
d="M931 202c-3 -3 -7 -8 -12 -15l7 -7v-17c-5 0 -8 -2 -10 -7c-11 -6 -26 -14 -45 -25c-15 -3 -34 -7 -56 -13c-25 -7 -37 -10 -38 -10h-32l-206 -37c-1 1 -4 2 -8 2l-203 -44c0 -1 1 -2 2 -4c8 1 13 -1 18 -4h-46l-16 -8c0 1 -1 2 -2 3s-3 0 -4 -3l-165 -30
c-22 4 -33 6 -34 7c-13 3 -21 8 -25 16h-18v3c-14 9 -21 23 -21 40c-3 7 -4 18 -4 34l32 257v30l23 185v32c3 23 5 38 4 43c2 34 7 79 14 135c1 9 5 37 13 83c9 11 23 27 42 48c17 5 25 8 23 8c8 0 16 -3 23 -9c11 -9 18 -15 21 -16c1 -5 4 -10 9 -16c5 -16 8 -27 8 -32
c7 -8 13 -12 18 -15l-15 -184v-45l-38 -409l24 -2c11 3 26 4 45 5l487 71l109 -1c15 -2 36 -8 64 -19c0 2 -2 0 -5 -7c3 -3 7 -5 12 -4c0 -1 2 -8 5 -19z" />
    <glyph glyph-name="M" unicode="M" horiz-adv-x="1086" 
d="M991 528l10 -10l-30 -291v-85l-10 -69c-24 -15 -38 -22 -44 -20c-2 -3 -6 -8 -12 -14c-7 -1 -13 -4 -20 -11c-5 4 -7 7 -7 8c-19 11 -30 17 -35 17c-4 0 -7 -1 -9 -3c-19 28 -28 55 -28 80v107l25 273v100c0 7 -3 15 -7 24c-2 -6 -6 -15 -12 -28c-2 -1 -11 -7 -26 -19
c-8 -11 -18 -27 -29 -47c-15 -17 -29 -38 -40 -63c-11 -14 -19 -29 -22 -45c-2 -4 -6 -7 -12 -10c1 -2 0 -6 -2 -13c-1 -4 -2 -7 -2 -9c-3 -2 -5 -3 -7 -3c-1 0 -2 1 -2 1c-3 -7 -8 -20 -13 -39c-23 -31 -47 -69 -74 -116c-17 -18 -29 -35 -36 -49c-9 -5 -14 -10 -14 -16
c0 -4 2 -7 5 -11c-21 -19 -32 -41 -34 -66c-17 -27 -30 -41 -40 -41c-1 0 -4 1 -7 2s-6 1 -7 1c-2 -2 -11 -10 -28 -23c-9 2 -20 3 -33 3c0 0 -4 3 -13 9s-18 9 -28 9c-6 7 -14 17 -25 30c-9 33 -17 93 -23 178l-7 89l-101 -199l-60 -135c0 -1 1 -3 3 -5l-26 -64
c-6 1 -14 0 -23 -1c-12 -9 -26 -16 -43 -21l-61 25c-7 24 -10 42 -10 54c0 17 6 30 17 40c12 18 24 41 36 68c7 11 14 25 20 42c7 12 20 33 39 63c7 14 20 42 42 83c42 78 66 122 71 132c22 41 36 73 44 95c31 68 56 133 67 198c5 9 15 23 32 42c3 3 10 4 21 4
c5 5 10 7 17 7c15 0 30 -9 44 -27c12 -15 19 -30 21 -44c1 -5 5 -9 12 -12l-2 -323l7 -57c2 0 3 -1 4 -2c36 39 78 97 127 172c27 42 68 106 123 190c15 22 54 75 118 160c5 9 9 18 12 26c-2 0 1 1 10 3c8 8 19 18 35 30c11 -2 27 -5 46 -9c7 -7 17 -17 30 -32
c1 -4 5 -13 11 -27c7 -15 10 -23 10 -24v-38c0 5 1 -4 2 -26l5 -83c1 -3 2 -11 4 -23c-1 -3 -1 -6 -1 -10c0 -5 0 -9 1 -15c-1 -12 -2 -29 -2 -51c-2 0 -3 -2 -4 -6v-30z" />
    <glyph glyph-name="N" unicode="N" horiz-adv-x="1056" 
d="M996 820l-11 -68l-3 6l-5 -6l1 -5c0 -7 -3 -15 -10 -22c4 -5 7 -9 7 -14l-5 2c-3 -2 -5 -4 -7 -7c-1 -7 -3 -18 -5 -32c4 -2 6 -6 8 -10c-6 -5 -12 -12 -18 -22l7 -5v-10c-6 -1 -10 -5 -12 -10l5 -3c-3 -8 -7 -18 -12 -30c0 -23 -4 -36 -10 -39l2 -4l-12 -15l5 -31
l-10 -7l-1 -10l3 -5l-12 -11l4 -6c-4 -8 -8 -15 -13 -21l8 -9v-9c-2 -1 -6 -4 -12 -7v-12l13 -2l-9 -8c-3 -8 -3 -19 0 -32c-1 -10 -6 -20 -14 -31c0 -9 -2 -16 -5 -18c-4 -3 -6 -9 -6 -17c-4 -8 -6 -13 -5 -14c2 -7 4 -12 5 -15c-5 -8 -12 -19 -19 -33l2 -4l6 5v-4
c0 -7 -2 -14 -5 -21l-10 1l-3 -31l-10 -7c1 -4 2 -9 4 -14c-3 -10 -7 -24 -14 -43l4 -13l-6 -12c1 -3 2 -8 2 -13c0 -1 -3 -14 -7 -40l-10 -3l-12 -24c-5 -10 -12 -16 -19 -18c-2 1 -10 3 -24 5l-2 -4c-7 -4 -14 -6 -21 -6l3 -7c-4 -1 -11 -1 -21 -1c-14 0 -32 8 -53 25
c-76 59 -143 149 -202 269c-2 4 -7 10 -16 20c-3 11 -9 24 -19 40c-8 12 -16 24 -24 37c-14 22 -24 51 -33 86c-4 14 -17 39 -39 76c-22 35 -39 60 -52 73c-10 -16 -20 -43 -28 -84c-6 -30 -11 -60 -17 -90c-2 -11 -8 -25 -18 -43c-8 -14 -16 -28 -23 -42v-3
c0 -3 -6 -22 -20 -57c3 -12 4 -19 4 -20c0 -12 -8 -29 -27 -51c-13 -15 -27 -30 -41 -45h-3c-7 0 -13 -3 -19 -8c-4 1 -8 4 -11 8h-25l-3 10l-20 7c-3 8 -9 20 -18 36v28c0 6 5 18 16 38c10 19 16 33 17 40c30 49 59 123 87 224c39 142 61 219 66 232c4 11 18 28 43 53
c4 0 10 1 19 2c8 1 14 1 19 1c11 0 26 -6 46 -18c19 -13 31 -24 35 -33c43 -39 86 -97 125 -177c34 -70 65 -141 99 -212c38 -80 76 -138 112 -174c22 30 53 113 93 250c34 116 58 208 72 278c0 14 1 34 4 61c0 4 2 10 6 21c3 8 4 15 4 21c6 7 10 15 15 22l10 4
c6 6 10 10 11 12c5 4 10 6 15 7c1 3 2 6 5 10c7 -3 19 -13 38 -30l9 10c3 -7 7 -13 12 -18h9c1 -6 -1 -12 -4 -18l4 -6c-2 -6 2 -15 11 -26z" />
    <glyph glyph-name="O" unicode="O" horiz-adv-x="1157" 
d="M946 491l2 60c0 21 -7 47 -23 78c-15 31 -30 46 -43 47c-3 3 -24 15 -62 36c-13 3 -31 9 -53 17c-59 13 -99 19 -123 19l-65 -9l-2 4l-70 -23c-2 4 -3 6 -3 8c0 1 1 2 2 2l-12 -6c-5 -9 -11 -15 -16 -18c-7 -3 -18 -6 -32 -9c-10 -5 -25 -17 -45 -36
c-17 -17 -32 -31 -43 -42l-40 -100c-3 -2 -4 -9 -5 -22c-4 -4 -8 -6 -12 -7c-3 2 -6 5 -10 10c-3 -5 -7 -11 -13 -20c-4 3 -9 8 -17 15l-5 -8c-1 2 -2 7 -1 14c-2 5 -8 12 -16 21c-4 4 -8 6 -13 5c-9 -9 -15 -15 -16 -19c1 -2 2 -3 2 -6c-5 -5 -9 -12 -12 -22
c0 0 -1 0 -4 -1c-2 -1 -3 -2 -4 -2c1 -2 2 -5 2 -8c0 -8 -3 -18 -9 -30c-1 -7 -1 -12 0 -13c-5 -17 -8 -27 -8 -30v-47c0 -9 3 -25 8 -49c11 -20 27 -46 50 -77c5 -4 13 -10 25 -20c3 -2 19 -10 49 -25c33 -16 53 -24 61 -24c3 0 5 1 6 3c5 -6 15 -10 30 -10l80 -3
c15 0 31 3 48 9c63 12 128 37 194 76c79 46 139 101 179 164c9 20 18 43 27 70c3 9 7 18 12 28zM1081 554l-15 -107l-45 -132l-93 -105s0 -2 1 -6c1 -3 1 -6 1 -7c1 3 0 5 -4 5h-6l-55 -52v-13c-1 1 -2 4 -4 7h-11l-88 -77c-11 -2 -25 -7 -42 -18h-12v-2
c-29 -13 -45 -20 -48 -20s-4 1 -6 2l-72 -35h-8c-13 0 -18 1 -15 3l-98 -13h-50l-88 13c-21 7 -51 17 -92 30c-15 9 -43 24 -80 51c-62 44 -98 104 -112 175c-2 9 -6 26 -11 50v53c-2 21 -3 28 -3 21c0 14 8 49 24 104c0 3 4 17 12 43c19 61 53 112 104 152
c24 19 49 35 74 46l64 29c32 32 54 51 68 55c63 51 156 81 278 89c5 -2 8 -5 11 -10l8 2c0 -2 -1 1 -2 8h11c2 -3 3 -5 3 -7c-4 0 -7 -1 -10 -4c15 -5 27 -8 37 -8c6 0 12 1 16 3c-9 2 -21 5 -38 10c11 4 19 6 24 6c0 0 14 -4 42 -10c29 -8 47 -12 56 -13c0 -1 4 -4 11 -7
c0 -3 -2 -6 -5 -9c-1 1 5 2 17 2l87 -45c5 0 10 1 15 2c1 0 1 0 1 -1l-5 -5c22 -16 36 -24 42 -24c2 -5 5 -11 10 -20c7 -1 12 2 15 8l68 -134c0 -7 -1 -12 -2 -15c1 -7 6 -15 15 -23c-1 -1 -3 -1 -5 -3c2 -12 5 -26 10 -44zM991 261l-6 -4z" />
    <glyph glyph-name="P" unicode="P" horiz-adv-x="959" 
d="M651 777c-9 0 -16 1 -22 2c0 0 4 0 9 -1c6 0 11 -1 13 -1zM775 713c0 26 -15 44 -44 54c-7 2 -19 3 -37 4c-11 1 -18 4 -20 9l-63 5c-28 3 -49 0 -63 -7l-5 5c-5 -2 -13 -3 -23 -3c0 -1 -1 -3 -2 -5c-9 3 -15 5 -18 5c-15 0 -61 -8 -140 -23c-6 -1 -29 -8 -68 -20
c-16 -5 -25 -13 -28 -26c5 -2 8 -6 8 -13v-12l7 -7v-17l-25 -123c-3 -7 -4 -13 -4 -18c0 -2 0 -3 1 -5c-5 -5 -8 -9 -7 -12l-22 -151h8s-1 0 -1 1c0 4 27 21 82 50c37 20 99 46 188 79l52 26c55 18 115 59 182 122c9 12 17 25 25 37c11 18 17 33 17 45zM771 467
c-1 0 -3 -1 -6 -3l1 -1c1 0 3 1 4 2c2 1 2 2 1 2zM925 707v-41c-7 -2 -10 -5 -10 -9c0 -2 1 -5 3 -8v-5c-13 -42 -33 -78 -59 -106h-10c-1 -2 -3 -6 -7 -10v-15l-60 -37l8 -1c2 0 3 1 3 3c-9 -22 -20 -33 -33 -33c1 -1 2 2 2 8l-4 4l-69 -48l5 -6c-2 -1 -9 -2 -20 -4
l-50 -25c-5 -4 -12 -11 -21 -19c0 1 -1 3 -3 5h-6c-1 -1 -2 -4 -2 -10c-17 -6 -42 -16 -74 -32c-19 -6 -48 -17 -87 -32c-3 -2 -9 -6 -15 -11c-8 0 -19 -1 -33 -4c-7 -4 -11 -6 -13 -6c-1 0 -3 1 -5 1c-1 1 -2 1 -2 2c-22 -14 -35 -21 -40 -21c-2 0 -4 1 -9 3l-95 -35
c0 2 -1 5 -4 7h-16c2 -2 4 -5 4 -9c0 -10 -2 -26 -4 -49l10 -94v-48c-3 -1 -7 -3 -13 -7c3 -3 5 -8 5 -16c-13 0 -24 -4 -33 -12c-13 -2 -29 -8 -48 -18c-25 13 -45 38 -59 74s-20 76 -17 119l7 126c0 1 2 6 5 14s4 14 4 17c2 12 4 29 7 52c3 8 4 19 5 35c8 16 11 34 10 53
l67 219c-8 -3 -19 -10 -33 -22c1 -4 3 -17 8 -39c0 -1 -4 -3 -11 -7c-6 -3 -10 -5 -13 -5c-3 -2 -4 -6 -4 -14c-12 -6 -19 -9 -21 -8l-5 -8l-15 3c1 -1 1 -5 1 -13c-4 2 -9 7 -16 13l-5 -5c-26 19 -41 45 -46 79c1 9 1 17 1 22c0 6 0 9 -1 10c1 17 15 36 39 56
c7 6 24 19 52 39c7 2 25 10 52 24c2 2 2 3 3 5l-1 1c7 3 14 5 20 5c2 0 4 0 6 -1l70 30c2 -1 4 -2 6 -2s18 7 48 22c-2 -1 -3 -2 -3 -5h15c2 0 3 2 3 5c13 0 20 1 20 2l32 8c5 0 8 0 9 -2l8 7l12 -2c9 4 19 10 30 17h11l5 -5c7 4 14 7 22 8l79 15c11 0 19 0 26 -1l5 5h21
c0 -3 2 -6 5 -10c-1 0 2 3 9 7s16 6 27 6h52c67 0 132 -18 196 -54c35 -34 53 -79 53 -134c0 -6 -1 -12 -1 -18zM668 391c-1 -1 -2 -3 -5 -6c3 6 5 8 5 6zM324 873l-8 -5z" />
    <glyph glyph-name="Q" unicode="Q" horiz-adv-x="1151" 
d="M976 533v33l-28 75c-4 5 -11 13 -20 22c0 1 0 4 1 8c2 4 2 7 2 8c-5 2 -9 5 -11 8l-5 -5c-8 9 -21 20 -41 33c-22 14 -38 21 -47 21c-6 -1 -12 1 -20 6c-3 0 -6 -1 -9 -1c-5 0 -11 1 -19 3s-13 3 -15 3l-52 -3c-6 0 -11 -2 -13 -5c-3 3 -6 5 -7 5l-123 -20
c-25 -4 -74 -20 -146 -48c-1 -3 -4 -6 -7 -9c-3 0 -8 0 -15 -1c-17 -13 -27 -18 -30 -17c0 -3 -2 -7 -5 -10c0 0 -1 0 -1 2c-1 1 -2 1 -4 1s-9 -4 -20 -12c-13 -9 -22 -15 -26 -16c-6 -9 -14 -23 -25 -42c-15 -26 -22 -45 -22 -57v-52l-10 -12c-5 -18 -7 -31 -5 -38
c-5 -5 -9 -8 -11 -7c-3 7 -8 16 -15 28c-8 0 -12 1 -15 4l-13 48c-1 0 -3 1 -4 2c0 1 0 3 1 4c1 2 1 3 1 4c-5 1 -12 4 -21 8c-10 -10 -19 -24 -26 -42s-13 -33 -17 -44c0 -14 -3 -27 -8 -38v-42c0 -23 7 -50 20 -80c15 -33 31 -55 51 -65c4 -2 9 -6 15 -11
c7 -3 27 -8 60 -17c37 -10 60 -14 70 -14l66 3c9 1 27 3 52 5c29 10 64 18 106 28c15 4 39 16 71 35c-20 43 -30 67 -30 75c0 -4 2 4 6 23c0 2 0 7 -2 14c-1 7 -2 11 -2 11c12 14 22 24 31 29c13 -8 27 -15 40 -21c10 -9 32 -31 67 -67h11l63 50h8c9 11 13 17 13 18l40 20
c0 4 -1 7 -3 9c7 4 17 10 30 19c-1 6 8 16 27 31c8 13 18 32 32 57c2 11 5 25 9 43zM1074 515c0 -77 -13 -132 -40 -163c-2 -2 -4 -9 -8 -20c-7 -3 -19 -15 -37 -35c-5 -15 -16 -31 -34 -47c-26 -25 -40 -38 -42 -41c-24 -11 -40 -23 -47 -37l40 -67v-41
c-7 -5 -16 -13 -28 -23c-6 0 -16 0 -29 -1c-4 2 -9 4 -13 6c-5 1 -8 0 -11 -5l-73 55h-7l-165 -80s-2 0 -6 1c-3 1 -5 1 -6 1l-109 -30h-40c-1 0 -5 0 -10 -1c-6 -1 -9 -1 -10 -1c-2 0 -3 -1 -3 -4c0 2 -1 4 -3 6h-11c-2 -1 -8 -3 -16 -7c-8 7 -27 12 -56 15
c-2 0 -3 -1 -6 -1l-8 -2c-8 3 -24 9 -45 19c-19 9 -53 27 -101 52l-55 48c1 2 1 4 1 7c0 4 -1 9 -3 15c-5 3 -10 7 -18 12l-45 125l-15 110c0 25 1 42 2 52c3 22 8 45 15 68c1 3 3 8 7 15c12 40 32 78 60 117c32 44 67 72 102 92c9 8 23 16 42 25c2 5 18 13 48 24
c27 10 41 15 44 15s5 -1 7 -2c13 5 29 10 47 16c3 1 7 4 12 8c98 34 170 52 215 54c7 3 13 5 17 5c-1 0 5 -2 19 -6l12 8c-1 0 5 -2 18 -5c3 3 7 5 10 5l84 -2c12 0 25 -3 39 -7c7 -6 13 -9 20 -9h13c1 -1 2 -4 5 -7c10 -4 25 -10 46 -18c1 2 2 3 2 5c5 -2 10 -4 13 -7
c-1 0 -4 -2 -8 -6c5 -3 13 -10 24 -20c6 -6 12 -9 18 -9c3 0 6 1 7 2c0 -1 1 -4 2 -9s2 -8 2 -9c7 -5 17 -13 31 -26c10 -18 26 -44 50 -79c18 -43 26 -73 24 -88c7 -16 10 -39 10 -68z" />
    <glyph glyph-name="R" unicode="R" horiz-adv-x="922" 
d="M567 723v15c-10 6 -23 9 -39 9c0 0 -9 -1 -28 -3c-18 -2 -31 -3 -37 -3c-25 -7 -58 -16 -99 -26c-36 -16 -79 -31 -129 -47c-32 -16 -47 -34 -47 -51c0 -6 1 -13 3 -20c0 -8 -2 -20 -6 -35l-10 -206c83 61 144 108 183 140c61 51 112 100 151 148c39 47 58 73 58 79z
M939 60v-11l-5 -6l1 -4c2 -3 2 -6 2 -8l-22 -17c-27 -6 -42 -9 -46 -9c6 0 -2 1 -25 2c-15 1 -27 1 -38 0c-6 -2 -13 -4 -21 -4l-328 56l-144 49l-122 57c-6 -4 -9 -9 -9 -16v-52l16 -71c-3 -9 -4 -17 -4 -24v-8l-36 -54c-2 0 -7 2 -15 5l-6 -7c-8 4 -23 7 -43 10
c-5 4 -16 11 -33 21c-13 8 -19 15 -19 21c-4 15 -9 38 -15 70l3 144l21 395c-1 9 -8 21 -22 35c0 5 1 8 3 9c0 1 -1 4 -2 7c-2 4 -3 6 -3 7c0 8 10 32 31 74c87 72 160 110 218 115c4 5 13 10 29 17s25 12 29 15c18 6 43 14 76 25c20 2 43 5 69 8l48 6c7 0 32 -3 75 -11
c1 0 8 -4 21 -11c15 -10 28 -24 41 -42c16 -12 34 -33 53 -65l13 -63c0 1 -2 -7 -5 -21c-4 -15 -6 -24 -6 -28c-6 -15 -13 -26 -19 -33c-4 -11 -10 -25 -17 -44c-14 -20 -28 -36 -40 -49c-9 -17 -23 -36 -44 -57c-32 -32 -50 -51 -54 -56c-17 -12 -33 -24 -47 -36
c-9 -14 -24 -27 -45 -37c-8 -7 -22 -16 -43 -28c-22 -12 -43 -28 -65 -47c0 -4 1 -7 2 -7h1c2 -2 6 -5 12 -11c61 -18 129 -35 205 -51c116 -24 191 -40 223 -48c8 0 15 -4 22 -12l64 -22c34 -22 51 -37 51 -43l14 -12c0 -2 -4 -7 -12 -16c4 -2 8 -4 12 -7z" />
    <glyph glyph-name="S" unicode="S" horiz-adv-x="840" 
d="M754 321c0 -8 -6 -28 -18 -58c-5 -10 -15 -24 -28 -43c-9 -9 -20 -21 -34 -38c-8 -1 -22 -9 -42 -22c-28 -19 -45 -30 -49 -33c-19 -7 -48 -20 -85 -37c-58 -18 -86 -26 -83 -26c-5 0 -9 1 -12 3c-10 -5 -15 -8 -17 -8c-1 0 -2 1 -3 2s-2 1 -3 1c-9 0 -22 -5 -41 -15
c0 -5 2 -6 5 -5l-170 -38l-100 10c-5 5 -15 13 -28 23c0 4 2 8 5 11l-13 12c0 5 1 9 3 10c-3 5 -7 10 -13 18c3 3 6 14 7 33c1 17 8 28 19 35c14 3 37 9 66 17c6 1 22 3 47 7c5 3 12 8 23 14l24 -2c5 5 11 9 18 11c20 6 75 23 165 53c66 22 105 37 120 47c12 5 35 20 67 45
c-1 3 -7 8 -17 16c-13 8 -72 37 -175 87c-16 5 -59 23 -128 53c-48 21 -81 38 -100 53c-31 11 -65 38 -100 79c0 3 1 7 4 10c-11 29 -17 42 -17 39c0 28 4 48 10 61c13 24 40 44 83 58c20 6 56 17 108 33c83 12 121 18 114 18c5 0 8 -1 9 -2c16 8 33 12 50 12h65
c1 0 3 0 5 -1s4 -1 6 -1h37c3 0 19 -5 48 -16c10 -8 27 -20 51 -36v-17l12 -20c3 -8 4 -16 3 -24l-3 -20l-16 -15h-55c-5 0 -13 2 -25 6c-27 3 -44 4 -51 4c-18 0 -72 -7 -162 -23c-14 -2 -36 -11 -64 -26c0 -3 2 -7 7 -11c9 -3 49 -20 120 -50c4 -2 16 -5 35 -11
c20 -8 50 -21 90 -39c35 -8 65 -22 91 -42c20 -6 40 -18 61 -36c24 -21 40 -42 45 -63c9 -7 16 -23 22 -49c5 -21 7 -39 7 -54z" />
    <glyph glyph-name="T" unicode="T" horiz-adv-x="1003" 
d="M1012 790c-2 -5 -4 -15 -4 -30c-1 -17 -2 1 -3 -2c3 -5 5 -10 5 -16c-1 0 -3 -1 -6 -2s-4 -1 -5 -1c-2 -10 -10 -23 -23 -39c3 -6 4 -9 4 -8c-3 -3 -8 -6 -15 -10l-69 6c-141 -9 -76 19 -216 1c-5 -5 -7 -8 -7 -10c-5 2 -8 5 -9 8c-5 -1 -9 -2 -12 -2c-4 0 -7 1 -10 2
c-5 -3 -7 -6 -7 -10h-30c-1 -2 -2 -3 -2 -5l-70 -15c-12 -31 -28 -125 -47 -225c2 -8 2 -16 1 -25c-26 -155 -40 -271 -42 -348c-2 -3 -6 -4 -13 -4c-3 -9 -4 -16 -4 -22c-12 -7 -21 -14 -26 -20c10 0 -5 3 -46 10c-5 12 -8 18 -9 19c-1 0 -4 1 -9 1c-6 9 -14 23 -23 41
l3 130c11 63 26 185 46 309c8 31 16 63 24 98v19c-1 2 -4 5 -7 9c-18 -5 -26 -7 -24 -7c-2 0 -4 1 -5 3c-2 1 -4 2 -5 2c-2 0 -9 -2 -23 -6c-13 -5 -20 -7 -21 -7s-5 1 -9 2c-5 1 -8 1 -9 1l-65 -13s-2 1 -6 2c-3 0 -5 1 -6 1l-87 -20l-87 -9l-48 1c-12 9 -24 15 -36 20
c-2 2 -3 6 -3 11c-3 3 -6 5 -10 7c0 7 -3 15 -10 25v14l21 45c7 4 19 10 33 19c50 9 138 27 268 41l563 63h163c0 -5 5 -12 14 -24c10 -12 15 -19 15 -21s-1 -3 -1 -4c2 -1 5 -3 9 -5z" />
    <glyph glyph-name="U" unicode="U" horiz-adv-x="1064" 
d="M1020 777v-51c0 10 -7 -19 -21 -90c-61 -161 -126 -270 -193 -328c0 -5 -2 -10 -7 -16c-33 -29 -81 -74 -146 -134c-50 -37 -105 -72 -167 -107c-5 -3 -10 -7 -16 -14c-7 -3 -15 -9 -21 -18c-6 -1 -27 -7 -63 -19c-23 -2 -42 -4 -56 -6s-24 -3 -29 -4s-6 -1 -2 -1
c-15 0 -46 10 -93 31v3c-53 35 -95 77 -126 127l-26 64c-11 27 -16 47 -15 59l-20 128v62c0 18 9 74 28 168c22 66 35 101 37 106c20 41 48 71 84 91c4 -1 11 -3 20 -7c1 -2 9 -7 23 -16l26 -67c-5 -10 -10 -25 -16 -45c-27 -33 -46 -65 -56 -98c-4 -13 -9 -42 -16 -87
l3 -115c16 -112 48 -175 96 -190c24 -7 34 -11 31 -11c1 0 8 -1 20 -3c12 -1 19 -2 20 -2s15 3 41 8c67 13 141 47 220 102c69 47 137 111 204 192c19 24 47 67 83 130c0 1 7 21 20 60c3 12 4 24 4 36c0 10 -1 21 -3 31c-1 1 -1 2 -1 3c0 3 1 6 3 10c-3 7 -5 12 -5 17
c0 25 16 54 49 89l15 -2c3 4 8 7 14 10c6 -12 11 -21 16 -26h16l19 -35c4 -20 6 -32 6 -35z" />
    <glyph glyph-name="V" unicode="V" horiz-adv-x="845" 
d="M809 819c-4 -11 -9 -28 -13 -53c-6 -11 -14 -27 -25 -48c-16 -20 -27 -41 -32 -62c-2 -2 -14 -19 -36 -50c-23 -44 -44 -80 -64 -108l-82 -171l-76 -122c-1 -5 -3 -11 -4 -18c-16 -27 -47 -83 -95 -168c-4 -8 -9 -13 -14 -17c1 -6 2 -9 2 -8c-5 -5 -11 -8 -16 -8
c-5 -11 -9 -18 -12 -22c-2 0 -8 -1 -18 -2s-16 -1 -18 -1l-3 2l-40 13c-40 49 -72 109 -96 179c-4 14 -23 70 -54 170c-1 4 -2 11 -4 22c-1 3 -3 6 -6 10c0 4 -8 31 -23 81c-14 46 -32 128 -55 245l20 86c9 3 18 8 25 18h8c6 0 20 -13 41 -38c17 -27 32 -62 44 -105l35 -126
l114 -324c46 50 91 136 159 245c4 7 22 35 53 85c2 5 3 10 4 13c3 6 10 15 17 27c37 59 85 152 147 278c9 12 24 33 47 62c3 0 7 4 11 11c2 -1 3 -1 5 -1c4 0 8 1 14 4c0 -4 1 -9 3 -16c7 -5 16 -7 26 -7l-1 -26c1 -1 6 -3 12 -7c1 -9 1 -24 0 -43z" />
    <glyph glyph-name="W" unicode="W" horiz-adv-x="1453" 
d="M1427 846v-37c-5 -10 -9 -20 -14 -31c-1 -6 -6 -20 -16 -40s-15 -32 -16 -37c-6 -9 -15 -23 -26 -41l-49 -77c-4 -7 -21 -27 -51 -61c-4 -5 -6 -10 -6 -14c-5 -2 -10 -7 -17 -15c-7 -17 -21 -38 -41 -65c-24 -31 -40 -52 -46 -63c-1 -3 0 -5 2 -7c-2 -2 -10 -8 -22 -18
c-3 -6 -7 -13 -12 -22c-7 -19 -24 -45 -51 -78c-20 -36 -36 -68 -48 -98c-2 -3 -5 -4 -8 -4l-45 -83c0 -2 2 -4 6 -7c-9 -8 -17 -11 -24 -9c-5 -15 -7 -22 -7 -20h-13c-2 -3 -5 -6 -10 -10l-48 23l-5 -5c-40 47 -76 124 -107 231c-14 47 -23 90 -27 129l-45 170
c-1 0 -2 1 -3 3l-117 -213c0 -3 1 -5 2 -6c-3 -8 -10 -19 -22 -31c-14 -28 -31 -65 -51 -110c-25 -35 -41 -61 -50 -80c-41 -39 -62 -75 -62 -107c0 -4 1 -8 3 -11l-51 -41h-13c-5 0 -19 6 -41 20c-3 0 -4 -1 -5 -1l-2 -1c-2 4 -6 8 -12 12c-3 2 -7 4 -10 6c-1 1 -3 6 -5 14
c-17 32 -32 70 -44 115l-32 116c-5 60 -34 181 -85 364c-6 20 -18 62 -37 124c-1 1 -5 10 -12 28c-8 18 -12 31 -12 37c0 0 1 8 3 23c2 16 3 26 3 30l17 49l34 18c8 -5 23 -21 47 -49c6 -12 15 -30 28 -53c29 -71 58 -160 85 -268l83 -321l7 -7c67 66 121 140 161 222
c24 49 58 123 105 222c7 15 18 42 34 82l17 32c8 8 19 21 33 40l31 9c10 -8 24 -21 43 -37l42 -95c17 -39 24 -68 24 -86c2 -6 18 -72 47 -197c3 -11 15 -53 38 -125c1 -3 6 -11 14 -22c3 0 6 3 10 9c23 33 77 110 162 232c8 11 25 35 52 74c25 27 58 69 98 127
c9 10 32 52 70 126c6 8 14 20 22 37c8 8 16 17 26 25c3 8 8 16 14 25c18 0 27 0 27 -1c-1 -4 2 -8 9 -13c9 -17 16 -36 21 -57z" />
    <glyph glyph-name="X" unicode="X" horiz-adv-x="884" 
d="M808 743l13 -10l-8 -41c-6 -5 -10 -12 -12 -22c-5 -3 -11 -6 -20 -10c0 -5 1 -9 2 -12c-3 -5 -8 -7 -13 -6c-1 -1 -2 -4 -2 -7l-90 -33c-5 -5 -9 -9 -10 -13l-105 -62c-2 -1 -3 -5 -3 -10l-60 -45c19 -30 42 -61 70 -92l92 -104c11 -31 16 -49 16 -56
c-1 -5 -5 -20 -11 -46c-29 -39 -52 -58 -66 -58c-2 0 -7 1 -14 4c-13 -3 -32 7 -55 32c-14 14 -34 36 -61 65c-1 3 -4 10 -9 20c-29 36 -59 70 -88 102h-10c-4 0 -16 -14 -37 -42l-56 -75c-9 -21 -22 -46 -40 -75c-2 -3 -12 -34 -31 -93c-12 -37 -29 -62 -51 -73h-31
c-5 12 -11 17 -20 15c0 11 -5 20 -15 25l-8 51v35c0 1 3 10 7 27c5 19 8 31 9 36c7 23 18 46 30 70c14 25 60 99 139 221v6l-241 213c1 1 2 3 5 6c-3 5 -4 17 -5 35l44 86l37 12c-5 0 2 -1 19 -3c28 -14 73 -48 134 -102c30 -27 76 -68 136 -122c66 46 148 100 247 163
c16 10 26 18 30 23c42 19 69 29 81 29c39 0 60 -6 64 -19l-8 -6v-9c4 -4 8 -7 13 -9c0 -7 -3 -14 -8 -21z" />
    <glyph glyph-name="Y" unicode="Y" horiz-adv-x="778" 
d="M744 821l-4 -4c1 -2 2 -3 2 -5l-1 -1c-2 -6 -5 -15 -9 -28l-125 -225c-3 1 -7 -1 -11 -5c0 -1 1 -3 2 -5c0 -6 -1 -12 -5 -19c-11 -22 -33 -59 -66 -111c-6 -12 -30 -57 -71 -134c-32 -57 -50 -99 -56 -126c-26 -58 -38 -115 -38 -172c0 -12 0 -24 2 -36
c-6 -9 -13 -22 -21 -41c-5 1 -9 -3 -13 -11c-6 -1 -14 -3 -23 -7c-16 7 -31 12 -46 17c-6 9 -11 14 -16 15c-3 9 -8 20 -16 34c0 7 -1 17 -5 30c1 1 1 4 1 10c0 5 0 13 -1 24c4 36 11 85 22 145c2 3 6 9 14 16c6 5 9 11 9 17c-1 6 1 14 5 25c1 3 0 6 -2 11c4 10 10 23 20 40
c-6 8 -13 12 -21 12c-3 0 -7 -1 -10 -2l-9 9l-6 -4c-7 1 -17 6 -30 14c-12 19 -32 49 -59 90c-49 106 -92 216 -130 330c-6 29 -12 55 -10 77l4 50c9 5 17 13 24 25h19l39 -39c6 -8 13 -21 20 -39c9 -14 18 -34 26 -59l22 -67c13 -27 30 -65 51 -112c6 -15 12 -30 19 -44
c8 -17 16 -31 25 -42h8c18 21 44 46 77 73c16 25 31 44 46 56c3 4 8 12 15 24c0 0 5 8 14 22c15 19 38 46 69 80v6l62 62c0 4 1 8 3 13c19 23 52 58 99 106c7 1 17 3 31 5c3 -2 5 -6 5 -12c2 -2 6 -4 10 -7c3 -15 11 -24 23 -24c2 -12 7 -28 13 -48c0 -1 1 -4 3 -9z" />
    <glyph glyph-name="Z" unicode="Z" horiz-adv-x="1175" 
d="M1184 99c0 -3 -2 -8 -4 -15c-2 -5 -1 -9 2 -12l-10 -10v-6c2 0 5 -2 9 -4c0 -2 -3 -6 -7 -12c-5 -7 -7 -12 -7 -14c-5 -1 -13 -4 -22 -9l1 -4v-7c-4 -2 -9 -4 -14 -5c-3 -1 -5 -2 -5 -4l-292 11c-3 -3 -6 -5 -9 -5h-103c-1 0 -3 0 -6 1s-5 1 -6 1s-6 0 -14 -1
s-13 -1 -14 -1c-17 0 -36 -1 -58 -2l-4 4l-233 -8l-176 -16c-3 -2 -6 -5 -9 -9l-83 -14l-35 11h-23c-3 3 -8 8 -16 14l1 4c0 2 1 5 1 8c-1 1 -6 7 -14 16s-12 16 -12 20v36c4 5 6 12 8 23c1 12 2 18 2 19c26 32 67 73 121 123l125 117c33 30 90 84 172 160
c25 23 52 51 102 99c10 7 26 21 45 43l85 92l-4 3l-106 -5c-4 0 -11 1 -20 5l-38 -9l-218 -16c-11 -1 -19 1 -26 6c-9 1 -17 4 -25 9c-5 7 -13 17 -24 30c0 2 0 8 1 19c2 11 2 22 0 32l16 46c4 7 13 15 25 22c18 5 39 8 62 10l283 22h116c33 -3 73 -9 119 -18
c7 -7 18 -17 32 -29l21 -55v-57c-15 -20 -44 -56 -85 -108c-10 -12 -43 -48 -99 -109c-13 -7 -23 -19 -51 -48s-49 -48 -62 -56c-17 -18 -43 -44 -77 -78c-2 0 -5 -1 -8 -3c-43 -53 -86 -95 -129 -126c-7 -9 -14 -19 -22 -30c-6 -4 -16 -13 -29 -27l4 -3h6l151 9l471 -6
l58 6l35 -5c1 1 6 3 15 7l59 -7l27 -14c4 -11 12 -26 23 -45c0 -1 -1 -3 -1 -5c0 -3 1 -7 2 -11z" />
    <glyph glyph-name="bracketleft" unicode="[" horiz-adv-x="381" 
d="M408 829v-14c-5 -5 -8 -8 -9 -10c-7 -22 -29 -35 -64 -40c-14 -6 -33 -10 -58 -14c-22 -4 -37 -8 -46 -14c-3 -15 -7 -36 -13 -63l-12 -266v-212l-5 -60v-104l7 -120h119c28 -6 46 -13 55 -21c9 -9 14 -24 14 -45c0 -16 -7 -30 -22 -43c-5 -5 -22 -16 -51 -34
c-8 -3 -39 -12 -93 -27c-62 -16 -101 -24 -116 -24s-32 7 -51 21c-25 19 -41 29 -47 32c0 1 1 3 2 5l-13 35c4 8 9 23 15 44c-1 4 -1 12 -1 22c1 3 3 12 7 27l-2 137l4 146l18 440c15 112 33 188 56 229c8 5 19 13 32 23l211 37c8 -1 19 -5 33 -10c0 -6 6 -16 15 -29
c8 -11 11 -23 11 -34v-8c3 -3 4 -6 4 -6z" />
    <glyph glyph-name="backslash" unicode="\" horiz-adv-x="615" 
d="M659 -281c-1 -5 -2 -12 -5 -21c-26 -12 -42 -18 -49 -18c-1 0 -4 3 -9 8c-2 -3 -5 -6 -10 -8c-1 -1 -2 -4 -2 -9c-5 -3 -16 -13 -33 -31h-10c-11 5 -20 8 -26 8l-58 66v12c-35 51 -67 110 -101 173c-19 35 -32 56 -38 67c-12 22 -20 42 -25 58c-12 17 -22 34 -30 53
c-1 3 -4 13 -10 30c-10 18 -26 46 -47 83c0 1 1 3 3 5c-5 8 -13 28 -26 61c-8 20 -18 36 -32 48c0 4 2 8 5 11c-6 12 -10 21 -13 29c-13 11 -19 21 -19 30c0 4 0 8 1 13c-12 27 -23 48 -33 63c0 3 -3 16 -9 37c-5 5 -10 14 -15 25c-1 5 0 10 3 15c-3 5 -8 11 -14 18
c0 7 -8 25 -24 52c-16 28 -25 44 -25 50c-4 3 -15 26 -33 68c-3 8 -11 23 -24 45c0 4 -2 11 -5 23c-3 11 -5 17 -5 18v64c0 6 4 16 11 29c8 13 14 20 20 22c2 0 8 0 16 1s13 2 14 2c13 0 24 -4 35 -12l31 -23c1 -9 14 -32 40 -70l163 -371c0 -1 -1 -3 -2 -6
c3 -7 9 -20 19 -39c5 -15 13 -36 24 -63c12 -24 31 -61 55 -110c4 -5 10 -12 19 -22c0 -2 1 -6 2 -12s1 -10 1 -11l94 -171c33 -61 67 -112 100 -154c14 -22 28 -38 40 -50c6 -11 16 -27 28 -48c1 -12 3 -25 8 -38z" />
    <glyph glyph-name="bracketright" unicode="]" horiz-adv-x="520" 
d="M471 782l12 -71l-7 -150l-70 -670c0 -2 2 -5 5 -9l-5 -106c0 -7 -13 -23 -39 -50c-18 -9 -31 -13 -38 -13l-226 -8c-31 -1 -65 7 -102 23c-45 20 -66 45 -63 77c2 9 8 17 18 25c9 3 22 7 40 12c59 9 94 13 107 13l103 12l22 174v36l10 102l53 413v132l-10 7h-72l-60 8
h-32l-43 2c-14 1 -44 5 -88 13c-37 27 -56 55 -56 87c0 2 2 8 6 20s7 20 7 22c8 12 27 24 56 37l172 -23c1 0 2 1 3 2c3 1 9 2 16 2c2 0 6 0 13 -1h13c8 0 14 1 18 4c8 -4 17 -6 29 -5l85 7l52 -7l25 -24h14c23 -36 34 -63 34 -81c0 -5 -1 -9 -2 -12z" />
    <glyph glyph-name="asciicircum" unicode="^" horiz-adv-x="532" 
d="M553 701l15 -7c1 -1 2 -1 2 -2c0 -2 -6 -7 -19 -15v-21l-20 6h-4c-3 -5 -9 -9 -16 -12c-6 1 -14 2 -24 2c-1 0 -13 6 -34 18c-13 7 -35 18 -66 37c-9 5 -39 29 -91 72h-7l-98 -135c-1 1 -3 2 -5 3c-2 -2 -4 -5 -6 -11c4 -2 6 -4 6 -5c-6 1 -14 -3 -26 -12l-17 -5
c0 -7 0 -11 2 -11v0h-9c-2 -2 -4 -4 -4 -5h-9c-7 -6 -14 -8 -20 -9c-15 5 -36 23 -64 55l181 261c7 4 17 6 29 6c39 0 84 -18 135 -57c27 -20 66 -51 119 -91c11 -2 28 -13 50 -32c3 -4 4 -8 4 -14c0 -5 -1 -10 -4 -16z" />
    <glyph glyph-name="underscore" unicode="_" horiz-adv-x="1026" 
d="M224 -200c-1 -3 -2 -4 -4 -4c-1 1 -1 1 -2 1c2 0 4 1 6 3zM1088 -118v-9c-2 -1 -8 -9 -17 -22c-11 -9 -30 -14 -54 -16l-175 -13l-552 -12c-56 -1 -91 -5 -105 -12c-1 0 -4 1 -7 2c-4 2 -6 3 -7 3h-5c-1 -1 -1 -2 -1 -3s1 -2 3 -4c-3 -2 -8 -3 -14 -3c-2 3 -5 6 -8 10
h-52c-8 7 -20 16 -36 28c-2 9 -7 17 -14 25c-7 19 -11 35 -11 48s3 25 8 38c5 5 14 13 25 23l85 2l332 -7l363 15c3 0 12 3 26 8c3 -1 6 -3 10 -5l103 12c19 -11 38 -21 58 -29c9 -11 19 -29 30 -54c3 -6 8 -14 15 -25z" />
    <glyph glyph-name="quoteleft" unicode="&#x2018;" horiz-adv-x="222" 
d="M238 586v-9c-1 -1 -4 -5 -8 -13c-17 -5 -27 -11 -32 -20c-4 0 -8 0 -13 1l-6 2c-1 4 -7 13 -18 27c-3 1 -7 3 -14 6c-6 3 -9 6 -9 10c-9 8 -22 20 -39 37c-33 53 -52 97 -59 131c-8 13 -12 23 -12 28v42c0 -1 3 7 8 26c22 14 35 21 40 21c3 0 15 -3 36 -10
c3 -1 12 -6 25 -16c10 -15 23 -37 40 -68c13 -35 31 -88 55 -158c0 -4 0 -10 -1 -17c4 -11 7 -18 7 -20z" />
    <glyph glyph-name="a" unicode="a" horiz-adv-x="676" 
d="M379 251h-26c-10 0 -30 -7 -61 -19c-18 -7 -36 -14 -55 -22c-20 -12 -42 -29 -66 -52l-2 -6l28 -3c67 17 120 45 159 84c2 2 10 8 23 18zM619 102c-9 -11 -21 -25 -36 -44l-17 3c-2 -3 -4 -8 -8 -13c-5 2 -11 6 -20 12c-9 -2 -27 9 -56 32c-6 12 -21 35 -44 67l-129 -97
c0 -1 1 -2 2 -4c2 -2 3 -3 3 -4c-3 -5 -9 -10 -19 -15c-8 -4 -15 -8 -24 -12c-73 -22 -109 -34 -107 -34c-50 0 -90 20 -120 59c-14 38 -21 66 -21 83c0 11 13 47 39 106c23 25 39 37 50 38c3 3 27 21 72 51c21 9 54 23 101 43c50 12 73 18 69 18c3 0 11 -1 25 -2
c16 -1 26 -2 31 -1c20 -9 29 -18 29 -29v-4c6 -5 11 -12 15 -21c5 -11 8 -17 9 -20c3 1 6 1 9 1c15 0 29 -6 42 -18c21 -33 40 -64 57 -94c23 -39 39 -73 48 -101z" />
    <glyph glyph-name="b" unicode="b" horiz-adv-x="750" 
d="M576 303v8c-8 9 -19 19 -33 28c-35 14 -76 22 -123 24c-8 3 -13 4 -14 4l-99 -5c-17 -1 -48 -9 -92 -25v-16c0 -1 1 -4 2 -8c2 -3 3 -6 3 -7v-53l19 -131c1 1 3 2 5 2c1 3 3 6 6 10c25 14 67 33 128 56c56 21 92 37 107 49c12 2 42 23 91 64zM739 303
c0 -5 -12 -31 -34 -76c-10 -6 -17 -15 -20 -27c-39 -36 -86 -67 -142 -95c-9 -4 -57 -26 -143 -63c-10 -2 -29 -6 -55 -14c-24 -7 -36 -11 -38 -11c-1 0 -5 1 -10 1c-5 1 -9 1 -11 1c-10 10 -19 15 -29 15h-6c-2 4 -6 11 -12 18c-2 -2 -5 -7 -9 -15c-3 -8 -6 -13 -8 -15
c-7 -3 -14 -4 -22 -3l-10 -10h-8c-2 0 -11 4 -28 13c0 0 -2 -1 -6 -2s-7 -1 -9 -1c-17 14 -25 26 -25 36c-8 10 -13 24 -15 43c-5 9 -9 18 -11 29c-1 6 -2 16 -4 28c-4 21 -6 28 -6 21v52c-3 20 -5 33 -4 38c-1 4 -1 9 -1 14c0 6 0 12 2 18c-3 6 -14 13 -32 20
c-12 15 -18 31 -18 49c0 12 5 26 14 42c10 15 20 26 31 33l3 250c2 5 2 13 3 22c0 18 1 45 4 81c2 31 10 56 24 78c2 2 6 6 12 11c13 6 21 9 24 9c2 0 5 -1 10 -2c6 -2 9 -3 10 -3c4 -9 12 -21 24 -38c5 -12 10 -28 15 -48c0 -5 0 -14 1 -27c2 -16 3 -28 3 -36l10 -238
c1 -2 3 -4 6 -5c6 3 18 2 35 4l102 9l99 -2c7 0 21 -1 40 -3c27 -5 51 -10 70 -15c4 -2 11 -6 20 -11c28 -6 55 -23 84 -51c25 -25 42 -49 50 -73c13 -41 20 -58 20 -51z" />
    <glyph glyph-name="c" unicode="c" horiz-adv-x="623" 
d="M573 165l5 -11c1 -10 1 -23 0 -38c-6 -11 -17 -20 -32 -28c-23 -12 -37 -20 -40 -23c0 -6 -4 -12 -12 -16c-21 -11 -53 -20 -97 -28c-18 -11 -35 -16 -50 -16c-5 0 -10 1 -13 2c-7 -6 -18 -10 -33 -11c-11 -1 -22 -2 -33 -4l-57 8c-1 0 -3 -1 -7 -2s-7 -1 -8 -1l-35 10
c-7 -1 -11 -2 -11 -2c-8 0 -19 4 -35 10c-18 8 -29 12 -32 13c-35 39 -53 75 -53 108c0 15 5 38 15 67c10 30 19 47 26 53c53 55 136 107 250 158c8 3 21 10 40 18c2 0 19 5 53 16c25 8 46 12 63 12c1 0 4 0 11 -1s11 -1 14 -1c5 0 9 1 13 2l23 -66c-5 -11 -13 -21 -22 -31
c1 -6 2 -9 2 -7c-3 -2 -50 -23 -140 -64c-3 -2 -10 -8 -21 -19c-20 -7 -50 -17 -89 -33c-29 -12 -51 -33 -65 -61c1 -1 2 -3 2 -5c19 -13 47 -19 82 -19l226 25z" />
    <glyph glyph-name="d" unicode="d" horiz-adv-x="772" 
d="M711 148c0 -3 -4 -7 -14 -12c-10 -6 -15 -13 -15 -23c0 -4 1 -9 4 -15c-3 -4 -13 -11 -30 -20c-18 -9 -30 -16 -34 -21c-20 -9 -50 -22 -90 -40c0 0 -5 0 -16 -2c-10 -1 -17 -2 -21 -2l-48 -10c-21 0 -39 -1 -51 -2l-20 -3l-48 3c-2 0 -5 -1 -8 -4c-8 -1 -21 -2 -38 -3
l-28 -1c-20 -1 -61 8 -123 24c-14 4 -33 12 -58 25c-14 11 -24 24 -29 37c-13 11 -19 25 -19 41c0 15 5 41 16 78c5 7 13 17 25 30c73 52 178 93 316 120c19 4 53 9 102 17c7 1 13 4 17 8l14 415s2 4 4 12c3 20 7 44 14 70c25 39 49 53 74 54c38 -18 55 -55 52 -109
c1 -4 1 -8 2 -14c2 -1 4 -5 7 -12l-4 -481l-16 -63h-28c-9 -12 -21 -18 -34 -18c-1 0 -8 1 -20 4c-13 3 -20 4 -21 4c-57 -9 -113 -5 -171 -20c-50 -13 -148 -47 -148 -72c0 -21 159 -20 258 -5c65 9 163 43 163 43c11 -2 20 -3 28 -3c5 0 9 0 13 1l8 -9l-7 -12
c4 -3 11 -7 22 -10z" />
    <glyph glyph-name="e" unicode="e" horiz-adv-x="624" 
d="M348 339c0 -2 -2 2 -7 13c-41 -17 -54 -14 -84 -32c-33 -21 -59 -46 -73 -70c4 0 7 -1 11 -5c33 13 62 18 95 40c26 18 41 35 58 54zM570 109c-4 -6 -10 -15 -17 -29c-5 0 -8 1 -10 3c-4 -1 -10 -4 -17 -9c7 -3 17 -7 28 -14c-4 -1 -13 -8 -27 -21
c-13 -4 -34 -10 -62 -16c-9 -5 -15 -13 -18 -22l-124 -16c-89 6 -161 26 -214 61c-38 39 -62 84 -72 135c-3 8 -5 13 -5 17c0 32 14 71 41 116c31 50 64 82 101 97c2 1 7 1 16 1c16 13 43 25 83 35c35 9 65 13 89 13c22 0 47 -8 76 -24c-1 -1 -1 -5 -1 -12c6 -1 13 -3 22 -5
c0 -2 2 -5 6 -10c0 -12 5 -27 14 -47v-21c0 -3 -2 -6 -6 -10c2 -3 3 -7 3 -11c0 -7 -3 -15 -9 -24c-1 -5 -1 -11 -2 -20c-7 -10 -50 -49 -87 -74c-54 -36 -152 -70 -152 -70c11 -6 82 -20 131 -20c57 0 180 42 180 42c6 -9 19 -34 33 -45z" />
    <glyph glyph-name="f" unicode="f" horiz-adv-x="663" 
d="M817 689v-11c-1 -2 -5 -7 -12 -15c-5 -6 -7 -11 -5 -17c-3 -3 -11 -6 -24 -9c-15 -3 -23 -6 -25 -7h-8c-16 16 -26 24 -30 23c-1 10 -10 21 -27 35c-17 13 -31 20 -43 20c-18 14 -48 27 -89 40s-73 20 -97 20c5 0 -13 -4 -54 -11c-12 -6 -24 -16 -36 -29
c-2 -2 -9 -14 -20 -35c-19 -76 -29 -159 -29 -248c0 -9 1 -16 1 -21l7 -89c5 -4 10 -6 14 -6l183 7c5 -1 12 -2 21 -5c2 -3 5 -7 10 -12c8 1 18 -5 30 -19c-1 -2 -3 -4 -7 -8v-7c3 -3 7 -5 10 -5c-3 -3 -4 -7 -4 -10c0 -2 0 -4 1 -6c-8 -5 -15 -11 -20 -20
c-12 -3 -29 -12 -50 -27c-23 -6 -57 -15 -101 -25c-3 -1 -7 -4 -14 -10c9 -13 20 -32 34 -57c9 -45 14 -65 14 -58v-8l-33 -20v-8h-28c-3 -3 -5 -7 -5 -13c-13 3 -21 5 -26 5l-10 -2c-17 18 -42 40 -75 66c-11 16 -27 39 -48 69h-14c-2 0 -8 -2 -20 -5c-11 -3 -18 -5 -19 -5
h-45c-22 0 -37 4 -45 12c-30 1 -45 19 -45 52c0 18 15 47 45 85c5 2 12 4 21 6c10 3 18 3 23 0c8 4 18 6 28 6c3 0 7 0 11 -1l4 4v32c0 1 -2 8 -5 21s-5 21 -5 22v65c0 37 4 83 13 139c10 66 23 116 38 150c40 89 88 138 143 147c8 3 39 10 93 22c14 1 35 -3 63 -13
c1 0 3 0 6 2c3 1 5 1 7 1c-4 0 4 -3 24 -8c3 3 6 5 9 5c15 0 65 -19 149 -58c46 -34 82 -68 109 -101c-2 -3 -1 -11 2 -23s5 -20 5 -24z" />
    <glyph glyph-name="g" unicode="g" horiz-adv-x="627" 
d="M411 261l-49 4l-96 -8c5 0 -20 -10 -77 -29c-3 -3 -9 -8 -16 -15c0 -1 1 -3 3 -6c36 -9 61 -13 75 -13c25 0 55 6 89 18c40 14 64 30 71 49zM-85 -193c0 -1 -1 -2 -3 -3s-3 0 -4 1c5 0 7 1 7 2zM579 -84l-3 -97c-8 -68 -29 -126 -62 -173c-4 -6 -17 -20 -39 -44
c-5 -2 -17 -11 -35 -26c-17 -10 -34 -18 -50 -22c-9 -6 -24 -14 -45 -26c-11 -4 -28 -11 -50 -20l-159 -26l-77 -3c-1 0 -6 2 -16 4c-18 2 -40 7 -68 16c-21 5 -37 9 -49 16c0 0 -18 13 -53 38c-5 8 -13 17 -26 27c-20 46 -30 71 -30 74v70l34 51c9 7 26 18 48 33
c4 -3 5 -7 5 -11s-1 -8 -5 -13c2 -1 4 -1 6 -1c2 1 3 4 3 9c5 2 14 5 26 8l-1 -17l-9 -7c2 -3 4 -9 8 -19c8 2 13 3 15 3c-3 -7 -9 -18 -18 -31v-10c2 -1 3 -3 4 -5c0 -9 0 -23 2 -42c1 -2 4 -8 10 -17c21 -16 34 -25 40 -28c13 -5 36 -8 68 -10l44 -2c2 0 7 1 17 3
c11 3 16 4 17 4s3 -1 5 -1c3 -1 5 -1 6 -1c11 0 30 3 58 7c16 8 34 15 51 21c32 11 60 24 85 37c8 5 19 13 32 26c53 33 79 94 79 182l-31 192l-4 4h-10l-135 -43c-7 2 -19 3 -35 4c-35 -3 -76 10 -125 41c-51 32 -77 65 -77 97l5 20c-1 4 -2 8 -2 13c0 23 12 50 35 80
c21 27 40 43 56 46c27 15 60 26 98 33c20 3 50 8 90 14l65 3c14 -3 34 -9 61 -16c23 -7 43 -17 60 -30v-12c15 -7 25 -21 29 -43c3 -5 7 -11 12 -19c-4 0 -7 -1 -8 -2c0 -12 0 -18 1 -18h1c-2 1 -5 2 -10 2l-4 -4c5 -12 13 -28 24 -49c1 -3 1 -5 0 -8c4 -33 11 -94 23 -180z
" />
    <glyph glyph-name="h" unicode="h" horiz-adv-x="739" 
d="M676 234l-15 -198c5 -20 8 -42 8 -65c0 -1 -1 -5 -2 -12c0 -8 -1 -12 -1 -14c-9 -1 -15 -6 -18 -15l-23 -8s-13 8 -40 24c-27 32 -39 53 -38 65c-12 16 -17 46 -14 90l10 160c2 41 -13 62 -48 62c-4 0 -10 -2 -18 -5c-74 -5 -168 -71 -280 -198c-10 -9 -32 -21 -65 -36
c-2 -2 -6 -5 -11 -9l-7 7c-4 0 -7 0 -11 -1l-4 -1c-1 3 -3 10 -6 18c-8 -2 -15 -5 -22 -8c-4 5 -9 9 -15 14c-14 50 -21 81 -21 93v99c0 7 1 10 2 11c0 0 1 0 1 -1l10 201c1 10 2 21 4 32c-1 6 -2 11 -2 16c0 8 2 15 5 19c-2 5 -2 13 -2 25c0 21 7 96 20 223
c4 9 13 18 26 26h10c13 0 29 -11 49 -33c9 -10 17 -20 24 -30c10 -47 14 -76 13 -88l-12 -138v-37l-5 -45v-148l4 -4c14 10 36 24 64 43c4 3 27 21 68 54c16 6 33 14 52 24c46 25 89 37 130 37c1 0 5 -2 14 -5s15 -5 17 -5c39 -5 80 -44 125 -118c16 -38 25 -73 25 -106
c0 -5 -1 -10 -1 -15z" />
    <glyph glyph-name="i" unicode="i" horiz-adv-x="260" 
d="M193 233v-61c0 2 -1 0 -2 -6c0 -7 -1 -15 -2 -25c-1 -14 -1 -28 -1 -44v-50l-15 -36l-11 2c-3 -2 -6 -4 -10 -7c-3 1 -6 3 -10 5c-3 -1 -6 -3 -10 -5c-3 2 -16 6 -41 12c-12 19 -22 52 -31 99c-2 11 -3 25 -2 45l3 88l12 58c10 8 15 16 18 25l26 6c4 0 9 -2 16 -7
c10 -11 25 -28 44 -49c11 -19 16 -35 16 -50zM221 540c-2 -3 -4 -6 -8 -10c3 -8 5 -16 5 -23c-3 -5 -12 -11 -26 -18c-1 1 -5 2 -10 2s-9 -1 -10 -2c-14 7 -30 12 -48 15c-12 28 -19 45 -18 52l5 55c3 1 9 6 16 13h31c10 -6 21 -18 33 -35c8 -3 14 -9 18 -20
c6 -16 10 -25 12 -29z" />
    <glyph glyph-name="j" unicode="j" horiz-adv-x="385" 
d="M344 131l13 -113l-7 -268c0 -12 -7 -50 -19 -114c-8 -50 -24 -96 -44 -138c-16 -16 -34 -25 -54 -25c-10 0 -36 6 -78 15c-16 7 -31 12 -45 14c-30 18 -61 37 -93 57c-4 10 -14 21 -29 33c-6 12 -15 28 -27 46c-10 22 -22 55 -37 97l4 28c3 -2 6 -5 11 -8c5 5 8 8 10 8
c3 -5 5 -8 5 -9c14 -11 33 -28 57 -49l74 -34c31 -14 54 -21 69 -21c8 0 15 1 21 4c18 42 29 87 34 133c3 25 10 73 11 125l2 136l-18 179v92v-2c2 0 6 10 13 31c3 3 12 11 28 23c10 -4 19 -5 26 -5c5 -12 18 -35 40 -68c15 -23 24 -44 27 -63c1 -21 3 -43 4 -65zM276 510
v-30c0 -9 -9 -17 -27 -26h-16c-11 0 -24 5 -42 15c0 1 1 3 2 5c1 3 1 5 1 6c-4 4 -8 7 -13 9v72c2 3 6 6 11 10h7c1 0 7 -2 18 -5c10 -3 18 -5 21 -5c2 -10 10 -17 23 -20c2 -9 6 -19 15 -31z" />
    <glyph glyph-name="k" unicode="k" horiz-adv-x="713" 
d="M711 540l7 -46c-5 -8 -11 -19 -18 -36l-392 -205c5 -2 12 -6 21 -10c45 -7 65 -11 59 -11c2 0 4 1 6 3c25 -7 72 -20 143 -39c9 -3 30 -8 63 -17c3 -2 23 -17 61 -45c0 -4 -2 -8 -5 -11c7 -8 12 -16 15 -25l-8 -7l3 -2v-14c-7 -5 -18 -15 -31 -28l-82 -10l-199 28
c-66 9 -124 28 -173 57h-7c-5 -5 -8 -14 -8 -28c0 -28 0 -39 1 -33c-1 -11 -4 -26 -7 -46c-10 -14 -24 -21 -44 -21c-3 0 -6 1 -7 3c-1 -2 -2 -3 -2 -5h-11c-6 7 -15 15 -28 25h-6c-2 -3 -5 -6 -8 -10c-13 17 -19 26 -19 27v32l-5 25v50l70 578c0 1 1 8 4 22s5 24 5 30
c1 10 1 18 -1 25c7 42 11 66 13 73c7 26 17 43 30 51c13 0 29 -9 48 -28c17 -18 29 -35 35 -51c0 -4 2 -12 5 -25s4 -20 4 -20l-15 -195l-10 -62v-28l-13 -125l4 -6c64 32 155 79 272 142c26 8 52 20 78 35c6 3 11 4 15 3l75 43c8 -1 16 -5 24 -12l22 -22c2 -4 3 -10 3 -20
c3 -4 7 -7 13 -9z" />
    <glyph glyph-name="l" unicode="l" horiz-adv-x="258" 
d="M239 807v-53l-88 -774c-11 0 -22 -2 -35 -8c-4 0 -8 2 -11 5l-6 -1c-4 -1 -8 -1 -12 -1c-1 1 -10 8 -25 20c-3 0 -7 -2 -12 -8c-2 6 -5 14 -10 23c-6 44 -9 71 -9 81l41 353c14 116 27 238 40 368c3 12 8 31 15 56c6 23 15 40 25 50l21 -2c9 -9 18 -15 26 -18
c2 -4 10 -15 24 -33c11 -31 16 -50 16 -58z" />
    <glyph glyph-name="m" unicode="m" horiz-adv-x="999" 
d="M929 264l2 -68c-1 -8 -3 -41 -8 -98c-10 -30 -15 -46 -14 -47c-4 -4 -8 -5 -11 -4l-10 -17c-11 1 -28 6 -51 13c-5 7 -13 16 -25 27c-5 13 -8 27 -8 44v131l-22 66c-2 -1 -4 0 -5 2c-6 -3 -16 -6 -29 -10c-37 -7 -78 -34 -122 -82c-2 -4 -32 -47 -90 -128
c-7 -15 -20 -38 -38 -71c-1 1 -10 -2 -26 -7c-2 2 -5 2 -10 2c-4 -3 -10 -7 -18 -12c-4 8 -9 15 -13 22c-2 2 -6 6 -14 10h-7c-1 0 -3 -1 -5 -3c-2 -1 -4 -2 -6 -2c2 0 -2 5 -13 16l-2 78l14 159c0 8 -2 20 -5 36c-1 -1 -2 0 -4 2c-8 -3 -19 -7 -34 -14
c-7 -7 -17 -16 -32 -29c-38 -26 -73 -63 -104 -112c-28 -30 -50 -64 -67 -103c-7 -6 -8 -12 -3 -17c3 -4 4 -7 1 -7c-5 -1 -24 -1 -59 -1c-15 22 -31 33 -48 33c1 4 -1 13 -6 28c0 4 -1 10 -2 19c-1 7 1 13 7 16l-9 7c1 22 9 67 24 134c3 15 9 43 19 82c12 25 18 36 18 34
c0 2 0 3 -1 4c25 12 36 18 34 18c10 0 22 -11 36 -32c6 -9 15 -23 27 -40c2 -1 7 2 16 8c36 33 64 56 83 70c35 26 65 42 90 47c6 1 11 5 15 11c16 6 27 9 32 9c17 0 35 -18 56 -54c7 -12 18 -33 33 -65l13 -74c4 4 15 12 33 25c9 6 18 15 27 25c29 33 63 61 100 85
c45 28 83 43 115 43c22 0 44 -15 68 -43c24 -29 37 -57 39 -83c4 -19 10 -47 19 -83z" />
    <glyph glyph-name="n" unicode="n" horiz-adv-x="603" 
d="M540 278l-3 -81l-15 -161l-20 -57c-4 -1 -10 -5 -18 -11h-8c-2 0 -6 3 -11 8h-6l-9 -3c-7 6 -19 16 -35 29c-4 11 -9 27 -16 48l-1 52l9 141v37c-1 2 -4 5 -7 9c-31 -14 -53 -25 -66 -33l-100 -106c-42 -45 -73 -87 -93 -124c-9 -5 -20 -8 -31 -8c-3 0 -9 2 -19 6l-5 -8
c-1 0 -7 1 -17 3v13l-14 9c-2 -1 -7 -3 -15 -7c-3 7 -7 18 -11 33c0 10 -1 19 -2 25c0 6 -1 11 -1 13s0 2 0 1l8 63c1 9 3 25 8 49c3 20 8 44 13 72c3 23 13 56 29 99l26 12c5 -1 12 -2 21 -5c0 -7 3 -13 9 -18l15 -15c3 -12 8 -22 13 -30c2 -9 5 -23 10 -44
c56 33 94 63 114 91c6 2 15 9 28 20c27 16 55 31 83 46c16 5 29 8 38 8c5 0 20 -8 45 -25c21 -33 39 -83 54 -151z" />
    <glyph glyph-name="o" unicode="o" horiz-adv-x="684" 
d="M517 268v13c-27 43 -51 64 -73 64c-1 0 -3 -1 -4 -1c-1 -1 -2 -2 -3 -2h-6c-7 11 -24 16 -52 15l-54 -2l-120 -23l-6 -8v-18c0 -3 2 -8 5 -15c-1 -2 -5 -5 -10 -10c3 -7 5 -11 5 -12c-6 -5 -11 -8 -15 -10c0 -1 -5 -9 -14 -24c-9 -16 -14 -26 -14 -32c0 1 1 -3 3 -10
c10 -12 26 -22 50 -32c23 -9 42 -14 59 -14c38 7 61 11 68 11l79 31c39 16 65 30 78 42c16 14 24 27 24 37zM629 236c0 -25 -7 -46 -22 -63c-1 -3 -3 -10 -6 -20c-12 -15 -30 -36 -53 -63c-36 -23 -70 -45 -102 -65c-74 -25 -130 -38 -169 -38h-33c-3 0 -7 1 -12 4
c-7 -1 -34 6 -80 19c-18 11 -44 30 -76 58c-5 9 -13 23 -24 42c-11 39 -16 69 -16 90l5 46v72c0 1 3 12 9 32c7 21 11 35 12 41c7 17 32 40 75 68c7 2 19 5 35 9c4 3 9 6 16 9c1 -1 3 -2 6 -2c0 0 9 3 28 9s35 9 49 9h94c11 0 22 -2 36 -7c22 1 67 -20 136 -64v-10
c11 -10 26 -20 44 -31c7 -7 21 -34 42 -80c4 -23 6 -45 6 -65z" />
    <glyph glyph-name="p" unicode="p" horiz-adv-x="797" 
d="M760 263c0 -1 -2 -5 -5 -14s-5 -15 -5 -18c0 -18 -10 -39 -29 -61c-19 -23 -39 -39 -59 -47c-17 -5 -26 -10 -28 -17l-105 -53l-101 -33l-3 3l-172 -43c-3 2 -5 3 -8 3c-4 0 -7 -1 -10 -3l-47 20l-14 -99v-30l-15 -150l3 -103l-8 -86c-5 -3 -12 -9 -21 -18
c-5 -1 -8 1 -11 8c0 -1 -1 -2 -3 -4l-6 -6c-5 -1 -11 2 -18 9c-26 11 -43 34 -50 67c-6 48 -9 73 -9 76v109l15 196c2 27 20 132 54 315c10 25 23 38 38 39l20 -3c12 -8 22 -19 29 -33c9 -20 15 -31 16 -35c1 2 1 -5 1 -22l-10 -102c0 -5 1 -12 4 -21c40 18 87 37 142 57
c57 9 118 30 183 63c2 1 7 3 15 4c13 9 24 15 30 17c12 11 30 28 54 51c-6 15 -19 28 -38 39c-32 18 -49 28 -51 30l-10 -3l-18 10l-5 -1c-3 -1 -5 -1 -6 -1l-58 14l-118 -2c-2 0 -8 0 -17 -2c-11 -2 -19 -4 -23 -4c-57 -7 -103 -20 -140 -40c-9 -1 -27 -9 -53 -23
c-33 -17 -49 -33 -49 -48c0 -6 3 -14 10 -24c-2 -3 -5 -4 -8 -4c-3 -3 -5 -7 -4 -12c-1 0 -3 0 -6 1c-2 1 -4 1 -5 1c0 0 -2 -5 -5 -15c-3 0 -7 2 -13 5c-1 0 -4 -2 -7 -5h-14c-2 3 -6 8 -11 13l-6 -5c-8 11 -15 19 -23 23c-1 10 -2 19 -4 26c-3 7 -4 10 -4 10v44l9 13
c-2 15 6 28 23 41c14 10 27 20 39 28c2 5 5 10 10 15c7 -2 11 -3 13 -3l165 78l103 30c13 -5 26 -7 40 -7c1 0 4 1 9 3c5 1 8 2 9 2h51c1 0 3 2 6 5c20 -3 36 -7 48 -10c9 0 23 -1 42 -3c16 -2 31 -7 46 -15c1 0 3 1 7 1c3 1 6 2 7 2c38 0 79 -26 123 -76
c10 -13 23 -30 38 -53c21 -52 31 -90 31 -114z" />
    <glyph glyph-name="q" unicode="q" horiz-adv-x="633" 
d="M614 -49l6 -71l-3 -184c-5 -28 -8 -57 -9 -88c-5 -19 -13 -49 -24 -88c-25 -7 -35 -11 -29 -11c-8 0 -22 5 -43 16l-20 71v363l-10 89l-5 7h-14l-131 -40l-2 2c-2 -1 -3 -2 -4 -4l-145 -26c-3 -1 -6 -1 -9 -1c-18 0 -44 8 -78 24c-45 21 -68 46 -68 75
c0 55 42 142 98 197c40 40 83 84 155 110c24 9 64 17 121 23c12 1 23 2 33 3c18 0 36 -2 55 -6c8 -6 14 -9 20 -9c4 -6 8 -14 11 -23c11 -7 19 -15 25 -23c1 -3 0 -7 -3 -13l8 -12v-8c-1 -1 -2 -4 -4 -11c-2 -6 -6 -10 -14 -13c-5 -2 -9 -4 -12 -6c3 -2 7 -6 12 -11h-73
c-32 0 -55 -6 -70 -20c-145 -19 -209 -116 -178 -101c-4 -3 -7 -6 -9 -11c3 -5 10 -8 21 -8c3 1 15 2 35 5c15 2 23 0 25 -5l261 70c21 -17 35 -42 44 -73c4 -15 9 -37 16 -66c2 -18 4 -32 6 -43c1 -10 3 -18 4 -21c0 -4 1 -4 1 -1v-58z" />
    <glyph glyph-name="r" unicode="r" horiz-adv-x="696" 
d="M693 366v-14c-2 0 -6 -2 -13 -5c0 -3 -1 -5 -2 -7l10 -10c-3 -3 -11 -7 -24 -9c-14 -3 -21 -6 -22 -7l-91 20c-16 -2 -37 -5 -64 -9c-31 -11 -61 -20 -88 -27c-32 -13 -79 -32 -140 -60c-56 -26 -90 -65 -104 -116c0 -2 2 -15 5 -39v-16c-3 -6 -6 -11 -7 -15
c-2 -6 0 -11 6 -15l-50 -31h-9c-7 4 -16 11 -27 20l-13 -2c-4 6 -10 14 -17 25c-3 9 -7 16 -10 23c-4 20 -6 30 -6 31v42c0 1 1 3 1 6c1 3 2 5 2 6v45c0 13 4 36 14 68c12 41 25 61 40 61h15l17 -15h7c8 0 39 16 90 49c36 16 90 39 163 71c2 -1 18 6 50 20c7 0 22 3 46 8
c23 5 34 8 35 8h49c35 0 75 -23 121 -69c2 -2 3 -6 4 -12c8 -9 12 -18 12 -25z" />
    <glyph glyph-name="s" unicode="s" horiz-adv-x="541" 
d="M476 109c0 -14 -4 -30 -11 -47c-5 -9 -28 -22 -69 -38c-44 -17 -77 -26 -99 -26c-3 0 -15 2 -38 5c-14 2 -27 2 -37 -2l-48 10h-42c-6 0 -20 4 -42 11c-18 7 -30 12 -35 14c-2 7 -7 15 -15 23c0 4 1 6 3 8l-5 5c2 7 2 14 2 20c0 9 -2 17 -5 23c23 9 37 14 44 14h37l50 7
h33l82 10c5 4 7 6 7 6c-2 2 -6 6 -12 11c-11 5 -30 12 -57 24c-97 42 -152 89 -165 140c-2 8 -5 15 -9 20v53c0 3 3 10 9 21c3 35 69 53 198 53c-3 0 24 -4 83 -11c37 -14 63 -24 76 -32c27 -16 46 -36 57 -60c0 -2 -2 -7 -7 -14s-7 -11 -7 -14l2 -6l-26 -18h-8
c9 0 -11 6 -60 19c-41 5 -66 8 -75 8l-69 -9c1 -1 2 -3 2 -6c4 -3 10 -7 17 -12c159 -63 239 -133 239 -210z" />
    <glyph glyph-name="t" unicode="t" horiz-adv-x="871" 
d="M866 366h-17c-2 -5 -4 -9 -4 -12c0 -1 1 -2 1 -3c-7 -4 -12 -6 -15 -6c-17 -18 -28 -27 -31 -27h-42l-44 -10c-4 1 -9 2 -15 2l-62 -12c-1 0 -3 0 -7 1c-3 1 -6 1 -8 1c-4 0 -17 -2 -39 -5c-20 -3 -40 -5 -59 -9c-14 -2 -30 -10 -48 -20c-15 -90 -23 -139 -23 -147v-38
c0 -4 -3 -15 -8 -35c-5 -19 -7 -32 -7 -38c-13 -5 -31 -14 -56 -26l-18 12c-12 8 -18 11 -20 11c-13 20 -22 43 -25 70c0 2 -2 24 -6 65l10 79v29l-4 5h-10l-115 -23c-4 -1 -8 0 -12 3l-91 -18c-5 3 -14 8 -29 16c-7 3 -13 11 -19 23l-12 24c-4 32 -6 46 -6 41
c0 10 4 20 11 32c8 12 15 18 23 17l178 12l117 27c8 59 20 146 37 263c15 47 29 87 41 118c13 15 26 26 40 35c4 -2 23 -13 56 -35c7 -39 10 -57 10 -55l-42 -264v-38h69c1 -1 4 1 7 4h15c1 0 4 0 8 -1s7 -1 9 -1c1 0 7 1 16 4c10 2 15 3 17 3c3 0 8 -2 15 -5
c10 3 35 5 73 5c-1 0 22 -4 70 -11c12 -7 28 -14 48 -22c0 -5 -1 -10 -4 -13c2 -9 7 -17 14 -24c5 1 10 -1 13 -4z" />
    <glyph glyph-name="u" unicode="u" horiz-adv-x="568" 
d="M529 316c-5 -24 -12 -60 -24 -106c-6 -25 -21 -55 -41 -90c-23 -32 -41 -54 -53 -66c-24 -25 -48 -40 -71 -44c-9 -3 -23 -9 -42 -18c-31 -5 -49 -8 -55 -8c-75 0 -139 57 -194 171c-5 30 -8 54 -8 73c0 11 3 31 10 58c21 16 35 23 41 23c40 -20 61 -50 62 -89
c1 -17 11 -38 31 -63c24 -11 36 -17 36 -18h16c5 1 19 6 42 13c34 22 56 39 68 49c25 22 39 44 42 67c2 4 5 12 8 23c5 16 13 41 23 73c11 35 22 58 32 70c1 0 3 0 6 -1c4 -1 7 -1 9 -1h16c1 -3 5 -8 12 -14c7 -12 17 -28 30 -49c2 -9 2 -18 0 -30c-2 -10 0 -17 4 -23z" />
    <glyph glyph-name="v" unicode="v" horiz-adv-x="724" 
d="M689 431c0 -18 -8 -40 -24 -66c-10 -16 -24 -38 -44 -69c-15 -17 -30 -40 -45 -70c-5 -7 -11 -12 -17 -15c-29 -47 -73 -111 -132 -193c-9 -16 -24 -40 -45 -72c-2 -7 -6 -19 -11 -34c-4 -1 -9 -3 -17 -6c0 -5 1 -7 4 -7c-3 -1 -9 -3 -20 -7c-10 -4 -16 -6 -17 -6h-32
c-19 0 -34 7 -45 21c-15 7 -59 49 -132 127c-17 26 -32 47 -45 62c-15 25 -30 50 -45 76c-6 33 -9 52 -9 56c0 12 4 23 12 34c9 12 19 19 30 19c14 0 30 -14 53 -35c10 -7 21 -17 34 -32c37 -70 82 -120 133 -151c38 50 95 124 173 222c54 88 110 161 169 219
c7 -5 17 -9 31 -11c4 -3 14 -14 31 -32c7 -6 10 -17 10 -30z" />
    <glyph glyph-name="w" unicode="w" horiz-adv-x="877" 
d="M859 362c0 -11 -5 -32 -15 -62c-3 -8 -8 -23 -16 -45c-5 -6 -15 -27 -30 -63c-17 -32 -41 -69 -72 -113c-37 -52 -67 -87 -90 -105h-31c-32 0 -64 30 -97 91c-16 24 -38 64 -65 120c-6 12 -15 27 -26 44c2 0 0 1 -6 3c-29 -43 -73 -107 -131 -193
c-33 -21 -64 -34 -93 -37c-8 5 -18 12 -30 23c-6 9 -16 22 -31 37c-8 16 -23 45 -42 90c-35 83 -51 143 -51 179v39c0 11 12 26 36 45h10c7 0 20 -9 39 -27c9 -2 15 -8 20 -17c6 -12 10 -19 12 -20c9 -33 27 -84 55 -152c11 3 25 17 42 43c5 2 11 7 18 14c5 9 20 31 47 64
c22 28 36 49 42 64c5 7 7 13 7 18c5 1 12 5 21 12c7 0 14 1 20 3c8 -1 20 -6 36 -14c46 -32 94 -100 141 -207c4 -5 12 -14 24 -27c8 5 16 12 23 22c20 27 55 76 107 146c7 9 31 35 72 78c3 -2 4 -3 6 -3c0 0 -1 -2 -2 -6c-1 -3 -2 -5 -2 -7c1 0 2 -1 4 -2l20 18
c0 -3 7 -10 18 -22c-1 -2 -2 -4 -2 -9c1 -1 5 -2 10 -2c0 -1 0 -5 1 -10s1 -9 1 -10z" />
    <glyph glyph-name="x" unicode="x" horiz-adv-x="636" 
d="M588 365c-5 -21 -8 -33 -8 -36l-10 -10v-13c-9 -6 -25 -11 -48 -16c-15 -9 -38 -21 -68 -35c-17 -11 -43 -28 -77 -51c25 -23 40 -37 45 -42c23 -24 42 -52 57 -82c1 -5 7 -21 16 -48c-2 -13 -10 -27 -25 -41c1 -7 0 -13 -3 -16c-2 0 -6 -1 -12 -1c-5 -1 -9 -1 -10 -1
c-3 0 -8 2 -17 7s-16 8 -20 8c-45 45 -72 71 -81 80c-30 28 -55 47 -74 57c-22 -8 -47 -26 -73 -57c-24 -28 -41 -55 -49 -80c-14 -13 -31 -24 -48 -33c-12 3 -22 10 -29 20c-10 14 -17 21 -19 23l-3 69c3 25 13 51 31 78c2 2 20 25 54 69l-54 35c-7 20 -14 36 -21 48v40
c0 6 4 14 13 26c9 11 16 18 23 20h10c12 0 42 -13 90 -41l71 -41c-2 0 37 20 117 61s127 61 142 61c12 0 20 -2 24 -5c13 -10 24 -17 33 -21c8 -9 16 -19 23 -32z" />
    <glyph glyph-name="y" unicode="y" horiz-adv-x="557" 
d="M496 242c0 -40 -19 -122 -56 -245c-5 -18 -32 -93 -81 -227c2 -2 4 -2 7 -2h-7l-46 -109l-50 -160c-3 -2 -12 -11 -28 -28c-3 0 -8 -1 -16 -4s-13 -4 -14 -4c0 0 -3 1 -11 3c-11 11 -26 28 -47 51c-8 29 -13 59 -15 74l15 71l47 138l92 219c-1 3 -2 6 -4 10
c-35 -11 -60 -16 -75 -16c-53 0 -96 35 -129 104c-27 56 -40 114 -40 174c0 15 4 33 11 53c6 7 15 16 28 28h7c6 0 21 -12 46 -36c7 -11 12 -25 16 -42c1 -6 6 -27 14 -62c8 -36 17 -54 28 -54c27 0 63 20 111 59c38 32 70 64 95 96c5 1 12 4 20 10c6 -2 15 -3 26 -3
c5 -6 13 -16 25 -30c3 -1 6 -2 10 -4c14 -17 21 -39 21 -64z" />
    <glyph glyph-name="z" unicode="z" horiz-adv-x="648" 
d="M592 76c-4 -1 -9 -5 -15 -10c0 2 0 -1 2 -10c-5 -3 -11 -5 -17 -7l5 -3c3 -1 6 -3 8 -5c-6 0 -11 1 -17 5c-13 -5 -23 -9 -31 -10c1 -7 0 -12 -3 -15l-133 -18c-5 -5 -7 -8 -7 -10l-154 -7h-82l-101 32c-3 8 -9 20 -18 36l-5 71c5 20 24 40 58 60c16 9 40 23 73 41
c18 10 50 35 97 74c0 1 -1 2 -2 4l-100 -8l-45 13c-16 12 -24 33 -24 63c0 13 4 28 11 46c7 3 13 7 18 14c10 4 22 6 35 7l95 5c7 -2 17 -3 27 -5l87 5c27 2 57 -4 90 -16c5 -5 8 -10 8 -15c3 -3 9 -6 16 -11c5 -8 13 -20 24 -37v-8c0 -1 -1 -7 -3 -17
c-1 -24 -15 -46 -40 -66c-22 -14 -44 -28 -65 -41c-26 -22 -65 -56 -117 -102c5 -3 13 -5 22 -5c1 0 5 0 10 1s8 1 9 1l40 -7c2 1 6 3 12 7h8c3 0 7 -2 10 -5c11 5 26 8 43 8l65 2c12 1 27 -2 43 -6c1 -1 5 -4 10 -9h12l18 3c3 -5 6 -17 10 -33l10 2c-1 -3 0 -8 3 -14z" />
    <glyph glyph-name="braceleft" unicode="{" horiz-adv-x="458" 
d="M491 845v-28l-15 -31c-5 -2 -12 -6 -21 -12c-12 -4 -22 -5 -29 -5l-125 5c-19 0 -33 -12 -45 -37c1 -11 1 -19 1 -25s0 -9 -1 -10c3 -16 8 -45 18 -85c5 -21 13 -53 22 -97c11 -50 17 -43 17 -74c0 -33 -6 -67 -18 -103c-5 -9 -15 -23 -29 -42c10 -10 25 -27 46 -49
c7 -15 11 -36 11 -60c0 -42 -4 -81 -21 -111l-50 -87c-35 -60 -49 -109 -49 -143c0 -21 5 -35 15 -40c30 -11 56 -16 80 -16c1 0 7 1 17 2c10 0 16 1 19 1c5 0 17 -2 37 -6c0 -3 10 -8 30 -17c5 -11 10 -21 14 -31c0 -5 1 -14 3 -25c-12 -16 -17 -30 -15 -43
c-17 -5 -33 -13 -48 -23c-33 -9 -56 -13 -68 -13c-24 0 -75 12 -154 35c-3 7 -6 11 -9 14c-29 14 -55 37 -80 70c-11 21 -16 46 -16 74c0 15 4 49 13 102c1 2 3 5 6 10c4 25 18 60 40 105c13 26 32 38 58 89c3 9 6 23 11 42c-6 12 -26 19 -61 21l-38 -5c-7 3 -10 7 -11 13
c-3 1 -8 2 -17 2h-8c-3 5 -6 13 -9 24c-4 3 -10 9 -19 17v28c0 12 6 25 16 39c11 14 23 23 37 26c5 2 15 5 28 8c27 6 49 21 68 46c17 22 25 44 25 64c0 4 0 8 -1 12l-43 236c2 8 3 20 3 36c4 21 8 41 11 62c7 25 23 46 49 63c26 7 65 18 116 32l38 4c18 1 28 2 30 2
c-1 0 22 -4 70 -11c9 -6 17 -10 26 -12c6 -12 10 -22 13 -30c3 -3 7 -7 12 -13z" />
    <glyph glyph-name="bar" unicode="|" horiz-adv-x="223" 
d="M174 809l5 -53l-16 -859l-13 -68c-11 1 -23 -2 -36 -8c-3 0 -7 2 -10 6c0 0 -2 -1 -7 -2c-4 0 -8 -1 -11 -1c-1 2 -10 9 -25 20c-3 1 -7 -2 -12 -8c-2 6 -6 14 -11 25c-5 44 -8 70 -8 79l10 596c1 54 4 143 7 267l10 57c4 24 11 41 21 52l21 -1c10 -9 19 -14 27 -15
c3 -5 12 -15 27 -31c13 -30 20 -49 21 -56z" />
    <glyph glyph-name="braceright" unicode="}" horiz-adv-x="460" 
d="M397 687l-22 -131l-54 -148l97 -73c0 -5 -1 -26 -3 -63c-1 -3 -3 -9 -7 -16c-8 -4 -15 -9 -20 -17l-24 -8c-11 -4 -18 -11 -22 -20c-14 -13 -21 -28 -21 -44c0 -11 4 -25 10 -44c6 -18 12 -32 15 -42c4 -11 -4 21 11 -36c4 -14 10 -43 17 -87c0 -8 0 -20 2 -38l2 -26
c0 -44 -9 -82 -28 -112c-17 -26 -52 -53 -103 -80s-91 -41 -123 -41c-10 0 -22 5 -35 14c-16 12 -32 20 -47 25c-2 1 -6 2 -12 1l-8 32c0 21 5 36 15 45c13 13 39 27 76 44c37 16 65 35 84 58c4 16 6 31 6 45s-2 29 -7 45c0 8 0 16 -2 25c-9 31 -6 20 -27 99
c-13 49 -19 77 -19 85c0 1 2 11 6 29s7 30 7 34c6 13 16 31 30 55c-1 10 -9 24 -23 43c-13 18 -19 32 -18 44c-3 5 -5 8 -5 11c0 24 10 60 30 108c24 58 12 35 15 49c9 19 18 47 28 83c2 4 4 9 4 14c0 2 -1 4 -1 6c7 24 11 45 11 61c0 10 -4 20 -12 30c-7 11 -15 16 -24 16
c-2 0 -4 -1 -6 -1l-65 -12c-42 -4 -69 12 -81 48c-7 19 -11 29 -12 32c0 14 6 30 19 46c13 17 27 26 42 28l105 15c46 2 96 -24 151 -77c31 -40 47 -92 48 -154z" />
    <glyph glyph-name="asciitilde" unicode="~" horiz-adv-x="765" 
d="M806 875v-30c0 3 -5 -2 -14 -15c-14 -16 -36 -39 -67 -69c-17 -12 -33 -25 -46 -40c-53 -40 -95 -61 -126 -62c-15 -4 -20 -6 -14 -6c-7 0 -15 2 -24 5c-16 5 -27 9 -33 10c-22 6 -51 25 -88 59c-33 31 -58 46 -73 46c-4 0 -16 -5 -38 -16c-21 -11 -36 -17 -45 -17
l-121 -102c-7 1 -11 2 -12 2c-8 -2 -15 -5 -22 -8c-5 2 -13 5 -23 8c-17 24 -26 37 -26 40c3 6 11 24 26 53c4 3 12 10 24 21l95 84c47 25 92 37 134 37c15 0 43 -7 85 -21c14 -7 32 -18 55 -33c37 -29 57 -45 60 -46c8 0 19 5 33 15c23 11 75 47 156 109c5 4 13 8 24 14
c8 1 16 2 24 4c7 -3 18 -7 32 -12v-4c3 -4 8 -6 13 -6c1 -1 1 -1 1 -2c0 -2 -1 -4 -2 -7c3 -3 7 -7 12 -11z" />
    <glyph glyph-name="exclamdown" unicode="&#xa1;" horiz-adv-x="267" 
d="M236 435c0 4 -3 -10 -8 -43c-7 -39 -16 -87 -21 -144c-6 -72 -11 -181 -21 -325l2 -108c-5 -4 -9 -15 -12 -32c-21 -14 -42 -21 -61 -21c-11 0 -24 6 -38 18c-5 8 -13 19 -24 32c-8 9 -12 18 -12 27v47c0 6 0 25 2 55c2 39 2 62 2 68c10 103 25 239 45 407
c-1 10 -1 25 -1 45c1 5 5 24 14 56c14 10 21 18 20 25c15 7 27 10 33 10l27 -2c35 -21 53 -59 53 -115zM256 792c0 -15 -5 -27 -15 -37s-22 -15 -35 -15c-19 0 -33 1 -42 5c-6 9 -15 20 -29 33c-8 7 -12 17 -12 29c0 -5 1 1 4 18c-1 4 -1 7 -1 10c0 11 6 21 17 32
c-1 7 10 17 32 27c13 -5 26 -9 38 -12c11 -7 20 -19 29 -35c7 -12 10 -22 10 -30v-5c3 -7 4 -14 4 -20z" />
    <glyph glyph-name="cent" unicode="&#xa2;" horiz-adv-x="569" 
d="M218 244l20 74l-3 21c-30 -13 -53 -29 -69 -48v-9zM561 544v-46c0 -1 -1 -4 -4 -8c1 -7 -3 -18 -11 -32c-8 -15 -15 -23 -21 -26c-3 1 -7 2 -10 2c-4 0 -7 -1 -11 -2c-1 -1 0 -2 2 -3c8 0 18 -3 30 -9l-68 2c-2 0 -9 -2 -22 -5c-13 -4 -20 -6 -21 -6l-12 3
c-7 -4 -12 -11 -16 -20c-3 -7 -6 -14 -10 -22c-13 -41 -25 -84 -38 -129v-25l6 -6c7 -1 30 -7 68 -17c29 -8 59 -12 88 -12c0 2 3 -7 8 -28l-5 -6c3 -15 5 -25 5 -29c5 -5 7 -8 7 -11c-4 -1 -10 -4 -18 -9c-4 -5 -10 -12 -17 -21l-68 -15c-15 -1 -36 -1 -63 0
c-1 0 -5 -1 -13 -5c-3 3 -5 6 -7 10c-3 -3 -9 -6 -16 -10c3 -3 6 -4 10 -4c-5 -2 -11 -4 -18 -7c-4 -4 -9 -15 -15 -34s-10 -30 -14 -33c-3 -3 -6 -11 -11 -25c-2 -2 -5 -3 -8 -3c-3 -3 -8 -12 -16 -27c-7 9 -20 21 -38 38c-3 25 -7 60 -14 105c-2 3 -5 6 -8 9
c-7 1 -15 3 -23 7c-5 1 -12 2 -23 4c-11 9 -23 17 -37 23c-4 4 -18 16 -42 37c-1 3 -6 9 -15 20c-6 14 -14 28 -24 42c-3 5 -5 14 -5 28c0 0 -2 4 -4 12c-2 5 -1 11 2 16l-5 5l-3 32c0 9 1 16 3 19c-1 3 1 7 6 13c14 47 47 91 99 130c43 32 90 56 141 71c8 5 20 13 36 24
c0 2 4 11 10 26c4 11 7 20 7 26c0 2 0 4 -1 5c5 7 8 13 9 18c5 19 13 46 24 83c5 4 7 10 7 17c1 3 16 26 45 68c4 1 9 3 16 6c5 -2 13 -3 23 -3c4 -3 11 -8 20 -15l17 -34c1 -15 3 -34 6 -59l-30 -96v-12c3 -1 6 -4 9 -7c-1 0 21 -2 66 -5c8 -10 20 -21 35 -35z" />
    <glyph glyph-name="sterling" unicode="&#xa3;" horiz-adv-x="748" 
d="M186 89l32 70v18h-5c-10 0 -21 -10 -33 -30c-3 -6 -7 -14 -11 -24c4 -3 7 -5 7 -6c0 0 -3 -1 -11 -2v-26c3 0 6 -2 7 -5c1 -2 2 -3 2 -4c2 3 6 6 12 9zM780 128c-3 -2 -7 -6 -11 -10c0 -4 2 -6 5 -7l-34 -34c1 -1 6 -3 13 -6c-19 -14 -42 -27 -67 -39
c-54 -12 -83 -18 -87 -18c0 0 -4 0 -10 -1h-11c-33 0 -70 11 -109 33c-12 8 -48 30 -108 68c-3 -7 -8 -17 -14 -30c-13 -45 -37 -84 -72 -116c-34 -21 -65 -30 -92 -28l-67 5c1 7 -2 11 -10 11l-8 -2c-11 7 -29 29 -52 65c-1 4 -1 7 -1 10v5l-7 60c3 22 5 37 8 48
c1 21 11 50 31 87c29 38 62 60 99 66c21 6 35 9 41 9h27l11 101l-5 38l-79 6l6 6c-4 3 -9 3 -15 3c-5 13 -12 24 -20 33c-6 16 -9 29 -9 39c0 23 22 34 64 34h55c1 1 1 3 2 4c2 12 3 24 3 38c0 10 -1 20 -2 31c4 14 6 27 6 41c5 23 12 54 21 93c3 6 8 19 13 38
c14 19 26 34 35 44c21 14 38 24 53 30c18 4 33 8 44 10c11 3 19 5 23 6c4 2 4 2 0 2h7c5 -1 12 -1 20 -1c34 -7 68 -20 101 -38c42 -23 69 -50 81 -79c5 -27 7 -39 7 -37c0 -4 -3 -16 -10 -38c-2 1 -3 2 -4 2c-5 -7 -12 -17 -23 -29c-3 0 -7 2 -11 7l-9 -1l-29 43v12
c-12 18 -38 32 -76 44c-2 -1 -6 -2 -12 -3c-26 -1 -41 -6 -45 -14c-25 -13 -41 -36 -47 -70c-1 -4 -5 -31 -13 -79l2 -44c1 -2 4 -4 6 -6l140 13s7 -1 21 -2s23 -2 27 -2c10 -1 24 -6 43 -15c1 -5 5 -10 13 -15c2 -3 3 -8 6 -15c3 -2 6 -4 11 -7l-9 -7c0 -2 1 -4 3 -6
c-1 -1 -1 -4 -1 -8c-5 -4 -14 -8 -26 -12c0 -1 -1 -1 -1 -2c0 -2 1 -4 2 -7c-14 -2 -35 -8 -63 -18c-76 -11 -120 -17 -133 -17h-4c-2 -2 -5 -5 -11 -9c3 -3 6 -5 8 -5c-7 -1 -17 -3 -30 -7l-6 -155c-2 -6 -3 -13 -3 -20c0 -4 1 -8 1 -12c5 -6 29 -24 71 -51
c47 -31 78 -47 90 -47s16 1 12 1c0 -1 1 -2 5 -2h26c3 0 13 2 31 6c7 0 25 7 53 23c27 15 42 22 45 22c5 0 11 1 19 3c5 -4 9 -10 11 -16l5 -1c7 -11 13 -18 20 -20c-1 -3 -3 -8 -6 -15c1 -1 3 -1 6 -1c0 -2 3 -7 9 -16z" />
    <glyph glyph-name="fraction" unicode="&#x2044;" horiz-adv-x="541" 
d="M560 832c0 0 -1 -6 -3 -17c-1 -12 -2 -19 -2 -22l-10 -18l7 -5s-1 -3 -3 -8c-1 -5 -2 -10 -2 -13c-4 -6 -11 -13 -20 -23c0 -2 2 -3 5 -3c-5 -3 -6 -8 -5 -16v-1c-2 1 -4 3 -6 6c-1 -1 -8 -13 -21 -35c-1 -1 0 -2 1 -4c3 2 5 3 6 3c-2 -5 -5 -12 -8 -22h-10
c-9 -11 -13 -23 -12 -35c-3 -2 -6 -4 -10 -7c3 -3 5 -6 5 -9c-1 0 -3 0 -8 -2c-4 -2 -6 -3 -7 -3c-3 -8 -12 -20 -25 -37c0 -2 2 -5 5 -9l-55 -78c1 -2 1 -4 1 -6c0 -9 -5 -18 -14 -28c-11 -12 -15 -25 -15 -39c-5 -4 -11 -12 -20 -23c1 -1 2 -4 3 -7l-23 -25
c0 -2 2 -8 5 -19c-5 -9 -16 -22 -32 -39v-12c1 -6 -2 -12 -8 -17c-2 -2 -7 -7 -15 -14c1 -5 2 -8 2 -10c0 -3 -1 -5 -2 -7c-17 -12 -25 -27 -23 -45c-18 -24 -26 -39 -25 -45c-15 -9 -22 -19 -22 -28c0 -3 1 -6 2 -9c-19 -7 -27 -20 -25 -38c-5 -5 -9 -11 -10 -17
c1 -1 1 -4 1 -7c-6 -5 -12 -15 -19 -30c-7 -13 -14 -21 -19 -24v-9l-100 -188c-1 -6 0 -13 3 -19c-5 -19 -12 -42 -23 -68c-1 -4 -15 -15 -40 -33c1 -1 6 -3 16 -8c-5 -1 -20 -12 -42 -33h-12c-2 0 -4 1 -7 3c-3 1 -5 2 -5 2c-2 -2 -3 -5 -3 -10l-10 2c-3 -4 -7 -6 -11 -6
c-3 0 -5 3 -8 9c-1 3 -1 7 -1 9s0 5 1 7c-13 3 -24 8 -35 14c0 1 1 4 4 10c3 5 4 10 5 13c-1 9 -7 20 -17 33c2 11 5 28 8 48c3 5 7 13 14 23c7 28 22 67 47 115c3 1 8 11 14 30c6 11 16 26 29 45c0 2 2 9 6 20c13 20 51 86 116 198c1 2 2 6 2 10c11 14 28 41 50 81
c17 30 73 127 169 290c7 19 31 64 70 134c1 6 3 13 6 23c11 21 25 52 44 92c1 6 3 11 4 18c9 15 28 42 58 78h20c7 0 13 -1 16 -5c32 -34 48 -61 48 -81z" />
    <glyph glyph-name="yen" unicode="&#xa5;" horiz-adv-x="774" 
d="M802 751l17 -18c-1 -5 -4 -13 -7 -23c-2 -2 -19 -21 -52 -57c-32 -36 -63 -71 -92 -105c-39 -46 -72 -94 -98 -146c-14 -13 -33 -38 -56 -77c-1 -16 -10 -35 -28 -56c12 -6 53 -13 122 -21c68 -7 118 -21 151 -40c1 -3 2 -10 5 -21c-5 -4 -8 -10 -8 -17c0 -5 1 -11 3 -17
c-17 -14 -30 -21 -41 -22l-73 -6h-110c-1 1 -4 -1 -7 -4l-78 3c-3 0 -6 -2 -11 -7c-14 -90 -41 -191 -81 -303c-10 -9 -21 -16 -35 -21c-4 0 -8 2 -11 5c-1 0 -3 -1 -7 -3c-4 -1 -7 -2 -9 -2c-17 0 -33 9 -48 26s-22 34 -20 51l56 249l-5 5h-84c-11 4 -28 6 -50 5
c-4 1 -15 9 -32 23c0 2 -2 10 -6 23c-4 12 -6 18 -6 20c0 22 6 37 18 45c13 6 32 14 55 25c10 1 26 3 46 5l33 4c5 0 9 -2 12 -5c8 3 15 6 20 10l8 -5h14l4 4v7c-18 23 -37 52 -56 85c-16 28 -43 76 -81 147c-8 14 -20 42 -40 80c-19 39 -49 89 -88 151c0 3 -1 9 -3 19
c-1 10 -2 16 -2 17c0 8 5 20 14 37c8 15 14 23 17 25c6 3 22 7 48 11c10 -10 19 -16 29 -19c11 -11 26 -28 47 -49v-10c27 -51 67 -127 121 -228c15 -23 41 -65 77 -125c1 -2 5 -4 11 -7l300 390l48 15c8 -1 17 -5 27 -13s16 -12 19 -12c2 -7 3 -13 3 -17s-1 -8 -3 -9v-8
c0 -13 1 -17 3 -14z" />
    <glyph glyph-name="florin" unicode="&#x192;" horiz-adv-x="420" 
d="M434 847l16 -60c0 -3 -2 -7 -6 -12c-5 -1 -11 -2 -18 -2l-9 -8l-7 1c4 0 -1 -1 -16 -4c-1 0 -2 -3 -2 -7h-13l-75 28c-16 0 -33 -2 -51 -7c-24 -14 -36 -29 -36 -44c-13 -32 -18 -61 -16 -87l14 -198l17 -112h90c2 0 7 -2 13 -5c1 -2 5 -12 15 -31c9 -19 13 -30 13 -35
c0 -9 -6 -15 -18 -20c-11 -12 -27 -20 -49 -25c-23 -5 -40 -11 -50 -19l7 -149l2 -282c1 -16 -7 -46 -21 -91c-14 -41 -20 -73 -20 -94l-61 -19c1 -1 4 -2 7 -2l-105 -15l-44 16c-16 21 -35 50 -57 89c-6 50 -9 73 -9 67c0 11 3 22 9 34c2 2 5 5 10 9c3 0 6 -1 9 -1s6 1 9 1
l97 -71c8 0 18 3 30 10c4 10 7 17 7 23l3 45c-1 1 -2 3 -3 5c1 6 3 16 6 29l-6 351c-3 7 -5 13 -5 18s1 10 4 13l-8 5l-53 6l2 11l-10 9c0 3 1 6 3 7l-5 4c0 2 0 8 -2 17c-2 8 -2 13 -2 14c0 42 15 64 46 67c4 3 9 8 16 15l-20 274v57c0 3 1 6 4 9c4 54 21 106 52 157
c16 14 29 28 40 42l100 31c29 -3 49 -6 61 -9c22 -5 38 -13 50 -23c17 -15 32 -25 45 -32z" />
    <glyph glyph-name="section" unicode="&#xa7;" horiz-adv-x="569" 
d="M407 324c0 -2 -4 12 -11 41c-42 43 -81 66 -117 67c-62 26 -90 39 -83 39h-8c-1 -1 -4 -6 -7 -16c-4 -10 -6 -16 -6 -18c0 -37 38 -74 113 -109c13 -18 30 -30 50 -37c12 -4 29 -10 51 -18c12 16 18 34 18 51zM545 62v-43c0 -4 -5 -22 -14 -53c-10 -31 -15 -48 -17 -50
c-10 -15 -23 -34 -39 -58c-13 -15 -34 -37 -62 -67c-5 -7 -30 -24 -74 -51c-35 -22 -52 -45 -52 -69c-9 -5 -21 -13 -38 -23c-11 1 -21 0 -29 -2c1 -1 3 -2 6 -2c-3 0 -9 -2 -18 -5c-9 -4 -14 -6 -15 -6c-10 0 -18 4 -24 11c-12 14 -19 23 -24 27c0 3 -5 14 -15 34
s-15 30 -15 31c0 33 14 60 44 82c53 41 88 72 104 94c64 58 102 112 114 160c-1 8 -10 21 -27 38c-8 7 -19 15 -32 25c-22 12 -41 23 -55 32c-19 12 -60 41 -125 87c-9 11 -22 25 -38 41c-2 2 -4 5 -6 9c-13 13 -25 28 -34 45c-7 19 -16 48 -28 88c1 17 6 42 13 73
c6 15 16 35 29 60c-35 51 -52 96 -52 137c0 20 8 47 23 82c16 15 44 38 85 67l73 32c20 5 50 14 90 25c38 6 64 9 79 9c22 0 39 -5 50 -14c7 -8 19 -18 38 -29l10 -32l-5 -22c-3 -4 -9 -8 -16 -10c-19 -3 -48 -8 -85 -14c-7 -6 -24 -11 -50 -15c-21 -10 -37 -16 -48 -18
c-53 -23 -90 -47 -111 -73v-30c0 -11 16 -28 49 -53c8 -3 30 -14 65 -33c5 -1 39 -11 100 -31c49 -35 78 -57 86 -64c34 -31 52 -58 52 -83c0 -3 -1 -7 -1 -11c19 -41 29 -74 30 -100c2 -7 4 -13 4 -20c0 -3 -2 -8 -4 -16c0 -5 -2 -17 -7 -35c-17 -32 -25 -50 -26 -52v-17z
" />
    <glyph glyph-name="quotesingle" unicode="'" horiz-adv-x="165" 
d="M177 789v-61c0 3 0 1 -1 -5c-1 -7 -2 -15 -3 -25c-1 -14 -1 -28 -1 -43v-52l-16 -36l-10 2c-3 -2 -6 -4 -10 -6c-3 1 -6 2 -10 4c-3 -1 -6 -2 -10 -4c-2 2 -16 6 -41 12c-11 17 -18 34 -22 50l-10 48c-1 14 -1 29 -1 45l2 89l13 58c9 8 15 16 18 24l25 6c5 0 10 -2 16 -6
c10 -12 25 -28 45 -49c11 -19 16 -36 16 -51z" />
    <glyph glyph-name="quotedblleft" unicode="&#x201c;" horiz-adv-x="358" 
d="M188 643c0 -10 -4 -16 -12 -20c-4 -1 -7 -2 -8 -4c1 -8 2 -13 2 -13c-14 -7 -25 -10 -32 -10c-9 0 -20 4 -32 11c-12 3 -22 7 -30 12c-22 21 -38 50 -45 89c0 0 -7 35 -20 104c-1 7 -2 19 -4 35c5 6 9 15 14 28c7 7 13 14 17 21c1 0 4 0 10 1c5 1 9 1 11 1l28 -5
c9 -10 22 -25 39 -44c1 -1 7 -13 18 -34c1 -31 9 -76 22 -135c5 -6 12 -15 21 -28c1 -1 1 -4 1 -9zM320 694c0 -7 -6 -14 -17 -23v-20l-6 -8h-21c-10 7 -17 10 -23 10c-3 0 -4 -1 -6 -2c-8 5 -19 14 -33 25c-6 7 -11 16 -15 25c-1 1 -7 9 -16 25c-15 64 -23 99 -23 106
c0 5 9 24 28 59c9 3 18 5 26 5c13 0 30 -11 51 -34c21 -22 31 -39 28 -50l15 -80c8 -21 12 -34 12 -38z" />
    <glyph glyph-name="guillemotleft" unicode="&#xab;" horiz-adv-x="783" 
d="M745 65c-2 -3 -3 -8 -3 -15c0 -4 1 -8 1 -13c-5 -5 -10 -13 -16 -25c-1 -1 -8 -5 -20 -13c-18 5 -36 8 -53 8c-1 0 -4 -1 -8 -2c-4 0 -7 -1 -8 -1c-16 0 -52 27 -110 80c-15 13 -42 38 -80 73c-17 21 -38 45 -63 73c-10 23 -17 42 -21 58c1 4 1 9 1 15c0 11 -2 24 -5 40
c1 4 4 10 7 18l-4 4l-131 -110c-1 -2 -2 -5 -3 -9l233 -173c-2 -7 -2 -10 -2 -10c23 -24 35 -46 35 -67c0 -22 -7 -36 -21 -43l-8 -12c-10 4 -24 7 -42 6c-29 -1 -45 -1 -46 0c-22 15 -85 60 -189 134c-73 52 -125 98 -157 139c-7 27 -10 52 -10 73c0 10 6 22 17 35
c12 13 22 21 31 22c5 6 16 14 35 26c16 10 27 20 33 31c4 -1 8 0 12 3c21 18 42 36 63 53c16 12 42 37 80 73c25 23 49 38 71 44c15 -9 34 -25 57 -48c21 -42 31 -65 31 -70c0 -7 -3 -13 -10 -19c0 2 1 -1 3 -10c-5 -3 -11 -8 -18 -14l-17 -14l2 -8l235 158
c9 -2 20 -5 34 -11c4 -5 11 -12 20 -21c6 -7 9 -13 10 -17c23 -19 34 -46 34 -80c0 -12 -18 -31 -53 -58c-13 -9 -37 -23 -70 -44c-18 -11 -39 -28 -62 -48c34 -32 83 -80 147 -143c-2 -12 7 -24 25 -37c2 -6 6 -17 13 -31z" />
    <glyph glyph-name="guilsinglleft" unicode="&#x2039;" horiz-adv-x="438" 
d="M447 44c0 -2 0 -5 -1 -10s-1 -8 -1 -9c-3 -3 -7 -4 -13 -3c-5 -8 -12 -15 -20 -20v-7l-28 -22c-9 1 -17 1 -22 1s-8 0 -10 -1l-36 16c-1 -2 -4 -3 -8 -3c-6 0 -68 31 -186 94c-13 9 -32 22 -57 40c-25 19 -38 37 -38 54c0 3 1 6 1 9c-3 7 -4 13 -4 16c0 1 1 6 3 15
s3 14 3 17c11 14 29 40 58 77c30 38 83 107 158 206c7 4 19 16 34 35l35 8c8 -4 20 -10 37 -18l23 -83c-13 -29 -35 -64 -68 -106c-28 -36 -53 -69 -77 -100v-12c0 -4 11 -13 32 -26s37 -21 47 -24c30 -13 70 -35 120 -67c3 -8 8 -19 16 -33l-5 -6c0 -7 1 -15 4 -24
c2 -9 3 -13 3 -14z" />
    <glyph glyph-name="guilsinglright" unicode="&#x203a;" horiz-adv-x="441" 
d="M400 298c-4 -5 -9 -23 -15 -55c0 -2 -1 -3 -1 -3c-30 -56 -64 -118 -103 -186c-7 -12 -11 -23 -13 -32c-3 -2 -17 -10 -43 -24c-5 -5 -14 -12 -26 -22c-31 3 -51 14 -61 33h-10l-26 21v75l91 153v9l-89 85c-35 34 -59 60 -71 78c-5 15 -8 33 -8 54c0 13 14 34 43 64
c18 9 32 14 43 14c2 0 6 -1 12 -2c5 -2 11 -3 16 -4c13 -10 53 -43 118 -100c8 -7 13 -13 14 -17c23 -23 56 -51 99 -83c3 -5 13 -24 30 -58z" />
    <glyph glyph-name="fi" unicode="&#xfb01;" horiz-adv-x="851" 
d="M814 265c0 -138 -19 -219 -57 -244c-2 -1 -4 -2 -7 -2c-4 0 -10 1 -16 3c-6 -4 -15 -11 -27 -20c-7 -1 -12 -2 -15 -4c-5 0 -9 0 -13 1l-5 2l-21 45l7 54l-1 177c-21 8 -36 11 -47 11l-131 -5l-15 -3c-11 -3 -17 -4 -21 -4c-6 -1 -15 -6 -27 -13h-9c-6 6 -12 10 -19 10
c-2 0 -6 -1 -11 -3c-6 -2 -10 -2 -11 -2c-2 0 -9 0 -23 1c-14 0 -22 1 -23 1c-6 0 -16 -4 -31 -11c0 -1 1 -3 2 -6c-3 -7 -8 -18 -15 -33l48 -130v-34c0 -1 2 -4 5 -7c-3 -8 -5 -17 -5 -27c-6 -3 -15 -9 -28 -17c0 2 -1 0 -2 -7l12 -9c-2 -3 -3 -5 -3 -6s0 -2 1 -2
c-6 0 -10 0 -12 1c-1 -1 -1 -4 -1 -9h-17c0 3 -2 7 -6 13c-3 -2 -5 -6 -5 -12c-28 21 -54 56 -80 106c-5 11 -24 58 -56 140c0 -1 1 -2 1 -2c1 1 1 5 1 11c-4 6 -9 10 -15 13c-1 0 -3 0 -5 -1c-3 -1 -5 -1 -6 -1c-4 -5 -10 -10 -18 -15c0 0 -1 0 -3 1s-3 2 -5 2h-18
c-3 6 -8 9 -14 10l-16 2c-19 17 -28 37 -28 60l4 13c-1 2 -1 4 -1 7c0 6 3 14 9 25c7 14 15 24 24 30c2 -2 4 -2 6 -2c0 0 8 1 24 4c16 2 27 4 32 4l15 9l4 117c0 8 3 28 9 58c7 35 17 78 30 129c9 20 21 48 37 86c2 1 9 10 22 28l86 61c15 7 34 14 56 22c28 10 49 15 62 14
l68 -2c15 0 34 -5 57 -16l46 -22c8 -8 21 -20 40 -35l18 -70c0 -3 -3 -9 -7 -17s-6 -13 -6 -16c0 -4 1 -7 3 -10l-6 -6l-17 2l-5 -6c-10 0 -19 10 -29 32c-3 0 -8 2 -14 4c-10 23 -33 35 -70 38l-37 2c-1 0 -29 -6 -83 -19c-4 -1 -9 -5 -15 -12c-18 2 -33 -7 -44 -29
c0 -2 3 -3 8 -3l5 8c6 0 9 1 11 2v-10h-10c-10 -7 -22 -22 -35 -46c-19 -22 -34 -57 -46 -103c-11 -42 -16 -81 -16 -118c0 -13 2 -29 5 -47c5 -3 11 -4 20 -3l384 21l116 -4c34 -30 51 -82 51 -155zM819 589c0 -10 -1 -18 -3 -23c-13 -12 -20 -19 -20 -23c0 1 -1 2 -6 2
c-3 0 -8 -4 -12 -13c-2 -4 -4 -7 -5 -10c-4 3 -8 5 -11 9c-4 -5 -10 -12 -19 -21l-9 6c0 6 0 9 1 10h-30c-8 2 -12 3 -13 4c-4 4 -6 13 -6 26c-3 4 -7 9 -12 16v9c1 3 3 6 7 9c2 2 2 5 2 9c0 3 0 8 -2 13c6 10 15 25 26 47c6 3 14 10 25 22c7 -2 13 -2 20 -2s14 0 21 2
c9 -7 19 -21 30 -43c10 -22 16 -38 16 -49z" />
    <glyph glyph-name="fl" unicode="&#xfb02;" horiz-adv-x="824" 
d="M771 360l1 -223c0 -14 0 -51 -1 -112c-6 -25 -9 -34 -9 -28l-33 -26h-16c-8 1 -18 6 -31 15c-1 1 -6 -1 -14 -5c-3 4 -9 9 -18 15c-3 6 -5 11 -5 16c0 3 1 6 2 8c-2 2 -6 7 -12 13c-9 26 -13 42 -13 47l17 195v127l-5 25v43l-20 254c-1 7 -9 22 -25 45c-13 4 -25 5 -37 5
c-58 0 -106 -14 -143 -40c-39 -28 -62 -67 -69 -117c-8 -15 -12 -30 -12 -44l-12 -95c7 -4 14 -7 21 -7l146 -2c14 -5 29 -10 45 -14c19 -13 30 -29 31 -47c4 -3 9 -8 17 -15c-3 -11 -9 -26 -18 -47c-41 -19 -63 -28 -68 -28h-70c-1 0 -11 -1 -30 -3c-19 -3 -29 -4 -30 -4
s-5 0 -12 -1c-7 0 -11 -1 -13 -1c-6 -5 -9 -9 -9 -11v-36l4 -3c2 -31 8 -69 19 -114c8 -31 14 -47 19 -47c2 0 3 1 3 5v-48c0 -6 -5 -19 -17 -39c-16 -7 -31 -10 -45 -10c-13 0 -22 1 -26 4c-5 0 -11 -3 -20 -9h-8c-2 2 -4 6 -4 13c-8 6 -16 15 -23 29c-7 13 -11 20 -12 21
l-40 225c-2 3 -4 6 -7 9c-6 -3 -11 -5 -15 -5h-43c-1 0 -8 1 -22 3s-23 3 -28 3c-10 4 -24 13 -39 30c-17 19 -23 35 -22 46c-5 8 -7 16 -7 25s4 21 13 37c8 16 15 25 20 28c13 6 25 9 36 9c2 0 7 -1 16 -2c8 -2 15 -3 21 -3c14 -1 26 0 36 2c3 -1 6 -3 10 -5
c9 1 16 5 21 12v65l25 143c1 2 4 11 8 27c9 33 34 75 75 126c38 29 104 54 196 75l60 -2c30 -1 59 -14 85 -38c20 9 33 13 38 13c8 0 19 -6 35 -19c15 -12 25 -23 30 -32c17 -40 28 -84 32 -132c2 -31 6 -77 11 -139l-2 -6l5 -39v-40z" />
    <glyph glyph-name="endash" unicode="&#x2013;" horiz-adv-x="798" 
d="M244 118c-1 -2 -2 -4 -3 -4s-2 1 -2 1c1 0 3 1 5 3zM752 192v-9c-2 -2 -8 -9 -17 -22c-9 -6 -27 -11 -54 -16l-175 -12l-196 -5c-57 -2 -92 -5 -105 -12c-1 0 -3 1 -6 3c-4 1 -6 2 -8 2h-4c-1 -1 -2 -2 -2 -3s1 -3 3 -4c-3 -2 -8 -3 -14 -3c-1 2 -4 5 -7 10h-53
c-8 7 -20 16 -36 28c-2 9 -7 17 -14 25c-8 19 -11 36 -11 48c0 13 3 25 8 38c5 5 14 13 26 23l84 2l181 -10l158 10c3 0 12 3 26 8c3 -1 6 -3 10 -5l103 12c19 -11 38 -20 58 -28c9 -11 19 -30 30 -55c3 -6 8 -14 15 -25z" />
    <glyph glyph-name="dagger" unicode="&#x2020;" horiz-adv-x="376" 
d="M334 771v-11c-4 -2 -10 -4 -18 -8s-12 -9 -12 -15h-7c-4 -1 -7 -1 -10 -1c-17 0 -37 -5 -59 -14l-5 -52v-30l-7 -140v-74c0 -16 -10 -30 -31 -40h-37c-4 7 -7 17 -9 30c-3 3 -5 12 -6 29l21 262c0 4 -1 8 -1 11c-7 0 -17 0 -28 1c-5 -2 -11 -5 -18 -9c-3 1 -6 2 -7 3
l-3 -3l-29 -3c-14 0 -23 3 -28 10c-1 6 -7 14 -18 23v3c0 3 -1 6 -3 9c1 3 2 6 5 11c-1 5 3 14 10 25c8 12 14 18 20 18h32l71 9l20 106h20c11 0 22 -11 33 -32c2 -21 4 -33 4 -38l1 -31c1 0 2 -1 3 -2c8 -1 20 -3 36 -6c18 -3 34 -10 47 -20c0 -1 1 -2 1 -3s-1 -1 -1 -2
c8 -7 13 -12 13 -16z" />
    <glyph glyph-name="daggerdbl" unicode="&#x2021;" horiz-adv-x="481" 
d="M462 451v-6c-3 -4 -7 -10 -13 -17c-11 -7 -17 -12 -17 -15c-7 -3 -19 -8 -35 -13c-24 -3 -61 -9 -111 -16l-2 -2v-24l7 -63l-12 -38h-8c-1 -1 -1 -3 -1 -6c-4 -2 -10 -5 -17 -8c-1 -1 -2 -3 -3 -7c-4 1 -7 3 -10 7c-1 1 -3 0 -5 -3c-2 3 -9 6 -22 8c0 1 -1 3 -1 5v7
c-11 7 -17 20 -17 41l-4 37v24c0 8 -1 14 -3 18c-3 3 -9 4 -19 3l-60 -5c-6 0 -15 1 -27 4c-3 1 -8 3 -14 6l-14 10c-10 20 -14 30 -15 32c0 2 1 6 2 11c0 8 3 24 10 48c6 9 17 13 34 14l102 4c3 2 4 4 4 7v108h-37c-18 0 -37 2 -58 6c-4 3 -10 6 -19 9c-5 7 -14 16 -25 26
c1 4 1 7 1 10s0 6 -2 8c0 4 2 13 7 27c0 2 -1 4 -1 6c0 8 3 14 9 20s13 8 20 8l48 -3h55l6 5v135c0 3 1 7 4 12c1 19 9 29 24 29c8 0 21 -8 40 -25c5 -8 8 -17 10 -28c7 -13 11 -24 11 -31v-47c0 -7 0 -12 -2 -17l1 -30c5 0 12 -1 21 0l62 4l49 -1c3 -6 8 -11 16 -16
c0 -1 -1 -2 -2 -3c3 -1 7 -4 12 -9c2 -5 3 -13 3 -22c2 -2 4 -3 5 -3v-5c-7 -6 -9 -11 -8 -14c-4 -5 -8 -8 -13 -10c-8 -10 -27 -18 -55 -22c-5 -4 -21 -6 -48 -8c-2 -1 -5 -3 -9 -4h-34l-3 -5v-111h132l30 -6l20 -26c1 -3 -1 -7 -5 -12c-1 -4 1 -10 6 -18z" />
    <glyph glyph-name="periodcentered" unicode="&#xb7;" horiz-adv-x="216" 
d="M142 336l13 -47c1 -7 -3 -14 -11 -22c-9 -4 -23 -9 -44 -15c1 -1 4 -1 7 -1v-10c-2 3 -6 7 -11 13l-4 -8c-3 3 -8 7 -14 12c-7 1 -16 5 -25 11c-3 13 -11 33 -23 58c-1 4 2 9 8 14c0 1 0 4 -1 9c-1 4 -2 7 -2 8c5 4 10 9 16 15c4 1 11 3 20 6c28 -11 52 -26 71 -43z" />
    <glyph glyph-name="paragraph" unicode="&#xb6;" horiz-adv-x="679" 
d="M635 884l22 -108l-8 -223l-9 -88v-37l-18 -178v-42l-8 -276c-7 -15 -12 -26 -15 -31c-5 -3 -9 -9 -12 -17l-11 2c-3 -1 -6 -5 -9 -12h-14l-7 4c-8 -3 -15 -7 -20 -13c-2 3 -7 7 -15 11l-8 -5c-2 1 -6 2 -11 4l-12 4c1 4 0 10 -1 18c-9 23 -14 34 -14 31v175l22 237v45
l11 120l7 116v77c0 18 -1 32 -3 42c-5 6 -12 10 -19 10c-17 0 -26 -4 -28 -12c-5 -18 -8 -41 -10 -69c-2 -39 -5 -61 -6 -68l-10 -201c0 4 2 0 7 -14c2 -6 3 -14 3 -24c0 -27 -5 -46 -14 -55c0 -5 -1 -14 -3 -25l-13 -260l-7 -67v-41c0 -3 -5 -10 -14 -21s-15 -17 -17 -17
s-3 0 -4 1l-1 1c-3 -5 -8 -13 -15 -22l-6 5l-5 -2c-4 -1 -8 -1 -12 -1c-1 3 -4 7 -8 13c-8 -2 -14 -5 -18 -8c-7 -5 -11 -12 -12 -20v6c-16 12 -24 20 -24 25c0 1 1 3 1 5c-4 3 -7 5 -10 5c-4 17 -6 28 -5 34l25 352c-1 1 -5 1 -11 1c-2 1 -8 2 -18 5c1 0 2 -1 2 -1
c-2 -1 -9 -1 -21 -1c-3 0 -14 2 -33 7c-20 5 -31 8 -34 10c-21 3 -45 16 -71 37c-25 22 -42 44 -51 67c-11 45 -16 79 -16 102c0 2 2 5 4 9c3 62 18 106 45 133c22 42 53 81 93 116c22 19 56 47 101 84l51 25c17 8 27 17 29 28l33 20l41 -10l70 13h42l40 5
c15 2 29 -4 44 -16v-8c3 -3 9 -7 18 -12z" />
    <glyph glyph-name="bullet" unicode="&#x2022;" horiz-adv-x="453" 
d="M225 319l33 20c-1 3 -2 5 -3 8c-4 3 -8 4 -13 4l-49 -26l3 -6h29zM396 310c-1 -3 -4 -18 -9 -46c-8 -18 -24 -34 -48 -48c-7 -4 -27 -15 -59 -32c-2 0 -9 -2 -19 -6c-11 -3 -16 -5 -17 -5h-52c-8 0 -32 7 -73 21c-14 12 -37 34 -71 67l-10 62c4 15 9 33 14 55
c23 44 54 71 94 81l42 30c11 8 24 10 38 10c9 0 21 -3 39 -9c52 -31 81 -59 86 -85c6 -6 9 -12 10 -17c13 -17 23 -32 29 -46c0 -7 2 -18 6 -32z" />
    <glyph glyph-name="quotesinglbase" unicode="&#x201a;" horiz-adv-x="368" 
d="M304 49c0 -10 -3 -20 -7 -32c-8 -36 -19 -64 -34 -85c-31 -31 -55 -55 -74 -73c-30 -29 -56 -46 -76 -51c-5 -5 -9 -8 -13 -9c0 1 -1 3 -5 7h-16v13c-3 1 -7 4 -13 8c2 6 3 8 3 7c-5 6 -12 13 -20 20c-1 5 -3 12 -8 21c7 21 33 64 79 129c40 57 60 102 61 134
c7 14 20 21 40 21c10 0 21 -4 32 -11c6 -7 15 -16 27 -29c16 -32 24 -55 24 -70z" />
    <glyph glyph-name="quotedblbase" unicode="&#x201e;" horiz-adv-x="607" 
d="M548 40c0 -10 -2 -21 -7 -32c-8 -35 -19 -63 -35 -85c-22 -22 -47 -47 -74 -73c-30 -29 -55 -46 -75 -51c-5 -5 -9 -8 -13 -9c0 1 -2 3 -6 7h-15v14c-3 1 -7 3 -13 7c1 6 2 8 2 7c-5 6 -11 13 -19 20c-1 5 -4 12 -8 21c7 22 33 65 78 129c40 57 61 102 62 134
c7 14 20 21 40 21c9 0 20 -4 31 -11c6 -7 16 -16 28 -29c16 -32 24 -55 24 -70zM304 49c0 -10 -3 -20 -7 -32c-8 -36 -19 -64 -34 -85c-31 -31 -55 -55 -74 -73c-30 -29 -56 -46 -76 -51c-5 -5 -9 -8 -13 -9c0 1 -1 3 -5 7h-16v13c-3 1 -7 4 -13 8c2 6 3 8 3 7
c-5 6 -12 13 -20 20c-1 5 -3 12 -8 21c7 21 33 64 79 129c40 57 60 102 61 134c7 14 20 21 40 21c10 0 21 -4 32 -11c6 -7 15 -16 27 -29c16 -32 24 -55 24 -70z" />
    <glyph glyph-name="quotedblright" unicode="&#x201d;" horiz-adv-x="481" 
d="M414 815c-3 -24 -7 -43 -11 -58c-10 -19 -28 -45 -54 -78c-5 -10 -13 -25 -25 -45c1 -1 -1 -8 -6 -20c-9 0 -19 -11 -30 -33l-4 -2c-3 -1 -6 -1 -9 -1c-8 0 -16 3 -24 9c-11 8 -20 14 -27 17c-11 24 -14 64 -9 120c0 1 2 2 4 4v6c-2 0 -3 -2 -3 -5l-105 -168
c-17 -5 -26 -8 -26 -8c-1 0 -6 1 -13 2c-8 2 -13 3 -15 3c-5 4 -11 10 -20 18c-11 33 -16 52 -16 57c0 30 7 61 21 92c13 22 37 61 73 118c31 49 54 73 70 73c13 0 25 -5 35 -17c5 -6 12 -14 23 -26c2 -7 5 -17 10 -30c0 -2 -1 -6 -2 -12s-2 -10 -2 -11v-17l4 -4l69 87h33
c4 0 13 -9 28 -28c16 -19 26 -33 31 -43z" />
    <glyph glyph-name="guillemotright" unicode="&#xbb;" horiz-adv-x="760" 
d="M728 285c-18 -27 -51 -68 -101 -124c-30 -34 -77 -95 -140 -182c-10 -14 -19 -32 -26 -54c-5 -8 -13 -19 -23 -33c-7 -5 -17 -13 -31 -23c0 3 -2 7 -5 10h-26c-1 0 -3 -1 -6 -3c-2 -1 -4 -2 -6 -2c-3 0 -11 3 -24 10h-15c-3 7 -5 17 -8 28c-1 1 -5 4 -13 7
c0 1 -1 5 -3 10c-1 5 -2 8 -2 9v47c0 1 -1 2 -1 3c-1 1 -1 2 -1 3s1 6 2 15c2 9 3 15 3 17c17 30 35 60 56 91c4 6 11 15 20 27c7 10 11 20 12 31c-67 -44 -120 -102 -160 -173c-5 -5 -13 -12 -24 -22c-3 -1 -10 2 -21 9h-7c-12 -8 -24 -10 -36 -8c-12 3 -24 10 -36 22
c1 2 1 5 1 7c0 10 -6 16 -18 20c0 1 -1 4 -3 9c-1 4 -2 8 -2 10v59c0 18 40 75 120 170c-33 20 -81 51 -144 92c-19 41 -29 59 -29 54v55c0 12 7 25 20 38c13 12 24 18 35 18c16 0 39 -10 69 -31c9 -8 19 -16 33 -24c22 -12 35 -19 38 -22c8 -4 20 -10 37 -16
c15 -10 38 -20 67 -31c38 -14 59 -22 64 -24l43 -58l21 -67c3 6 13 15 29 28c14 11 21 21 22 31c-25 16 -62 39 -111 70c-42 27 -69 51 -82 72c-15 17 -22 30 -22 39v52c0 13 15 33 46 59l79 -28l142 -98c4 -3 36 -21 98 -56l44 -47c5 -11 13 -27 23 -47c-1 -11 0 -28 2 -49
z" />
    <glyph glyph-name="ellipsis" unicode="&#x2026;" horiz-adv-x="833" 
d="M770 80l13 -46c1 -7 -3 -15 -11 -23c-9 -3 -24 -8 -45 -14c1 -2 4 -2 8 -2c0 -6 0 -9 -1 -9c-2 2 -5 6 -10 12l-5 -7c-3 3 -7 6 -13 11c-8 1 -17 5 -25 12c-3 13 -11 32 -24 58c0 3 3 8 8 13c0 2 0 5 -1 9c-1 5 -1 8 -1 9c4 3 9 8 15 14l21 6c27 -11 51 -26 71 -43z
M457 84l12 -47c2 -6 -2 -13 -10 -22l-45 -15c1 -1 4 -1 7 -1v-10c-2 3 -5 7 -10 13l-5 -8c-4 3 -8 7 -14 12c-7 1 -15 5 -24 11c-4 13 -12 33 -24 58c0 4 3 9 8 14c0 1 0 4 -1 8c-1 5 -2 8 -2 9c5 4 10 9 16 15c5 1 11 3 20 6c28 -11 52 -25 72 -43zM151 84l13 -47
c1 -7 -3 -14 -11 -22c-9 -3 -23 -8 -44 -14c1 -1 3 -2 7 -2c0 -6 0 -9 -1 -9c-1 2 -5 6 -10 12l-5 -7c-3 3 -7 6 -13 11c-7 1 -16 5 -25 12c-3 13 -11 32 -23 58c-1 3 2 8 7 13c0 1 0 4 -1 8c-1 5 -1 8 -1 9c4 4 9 9 16 15c4 1 11 3 20 6c27 -11 51 -25 71 -43z" />
    <glyph glyph-name="perthousand" unicode="&#x2030;" horiz-adv-x="1390" 
d="M969 168v11c-1 -6 -1 -10 0 -11zM1313 238l4 4c-7 7 -17 15 -30 26c-2 3 -6 7 -10 11c-11 4 -20 6 -28 6c-11 0 -23 -2 -35 -5c0 -1 0 -3 -1 -5c-5 1 -25 -4 -58 -15c-15 -9 -37 -23 -66 -43c-7 -9 -16 -21 -29 -35v-13c4 -8 8 -14 12 -20c6 -8 18 -21 38 -41
c30 -6 43 -10 40 -10h28l49 18l39 30c5 3 8 8 10 14c9 3 17 11 25 23c9 11 13 21 12 29l-22 29c2 1 5 3 7 7c3 -3 8 -6 15 -10zM1020 305c11 7 19 17 25 28c9 6 23 15 40 26c51 19 74 29 69 29l96 15c-3 0 4 -1 22 -4c20 -4 33 -7 37 -8c14 -5 28 -14 39 -27
c6 -7 21 -28 47 -63c2 -7 5 -16 10 -29c4 -29 6 -46 6 -53c0 -14 -2 -32 -6 -55c-1 -3 -6 -11 -14 -23c-1 -8 -5 -16 -12 -25c-10 -12 -15 -20 -17 -23h-8l-30 -48c-8 -1 -30 -16 -64 -44c-8 0 -20 -4 -37 -12c-10 -8 -16 -12 -18 -12c-1 0 -2 1 -2 2c-1 1 -2 1 -3 1
c-10 0 -18 -4 -23 -13c-3 5 -7 8 -12 8l-45 -5s-13 4 -39 13l-25 15c-29 10 -54 48 -75 115c-2 3 -5 6 -9 10v36l16 83c7 11 18 32 32 63zM543 151v11c-1 -6 -1 -10 0 -11zM503 696c-16 -5 -23 -7 -21 -7c-3 3 -6 5 -9 5c-11 0 -26 -3 -46 -10c-5 1 -12 2 -21 5
c-1 -3 -4 -6 -9 -10c-9 5 -14 7 -16 6c-3 -1 -5 -2 -6 -2c-4 0 -6 2 -8 4c-15 -5 -21 -8 -20 -8c-29 0 -50 0 -63 -2c-8 3 -15 4 -19 4c2 -2 3 -4 3 -5c0 -2 -1 -3 -2 -4c-17 0 -28 0 -34 -1c-4 1 -7 2 -10 2c-10 0 -18 -5 -24 -15c1 -3 3 -8 7 -15l-3 -3c1 -1 1 -5 1 -10
c25 -27 55 -41 88 -41h17c29 0 63 9 101 28c44 21 75 48 94 79zM891 225c-7 7 -17 16 -30 27c-2 3 -5 7 -10 11c-11 4 -20 6 -28 6c-11 0 -23 -2 -35 -6c0 -1 0 -2 -1 -4c-6 0 -25 -5 -58 -15c-15 -9 -37 -24 -66 -44c-7 -8 -16 -20 -29 -35v-13c3 -5 7 -12 12 -20
c8 -9 20 -23 37 -40c31 -7 44 -11 41 -11h28l49 18c13 9 26 20 39 30c5 4 8 8 10 14c9 3 17 11 26 22c8 12 12 22 11 30l-22 30c2 1 4 3 7 6c3 -3 8 -6 15 -10c1 2 2 3 4 4zM404 784l54 9c-10 5 -25 12 -46 20c-11 0 -25 0 -43 1l-81 -23c11 -6 21 -9 30 -9c3 0 6 0 9 1
c5 -1 13 0 24 0l19 1h34zM985 202c0 -14 -2 -33 -6 -55c-1 -3 -6 -11 -14 -23c-1 -7 -5 -16 -12 -25c-9 -12 -15 -19 -17 -23h-8l-30 -47c-8 -2 -29 -17 -64 -45c-8 0 -21 -4 -37 -11c-10 -8 -16 -12 -18 -12c-1 0 -2 0 -3 1c0 1 -1 1 -2 1c-10 0 -18 -4 -23 -12
c-3 5 -7 7 -12 7l-45 -5c-1 0 -7 2 -18 6s-18 7 -21 7l-25 15c-29 10 -54 48 -75 115c-2 3 -5 6 -9 11v35l-3 7l-117 -69c1 -2 4 -3 7 -3c-12 -2 -19 -3 -21 -3c-13 -16 -29 -33 -50 -50c-58 -32 -94 -48 -108 -48l-47 5c-9 0 -15 -2 -20 -5c-5 2 -12 6 -22 13v63
c0 -4 4 3 12 23c10 24 26 48 48 71c17 17 37 38 61 61c80 62 163 138 251 228c88 91 158 173 208 246c2 4 3 8 4 12c-4 2 -10 6 -19 11c0 -1 -2 -2 -5 -4s-5 -3 -5 -3c-10 7 -19 10 -25 10c-2 0 -9 -2 -22 -5s-21 -5 -22 -5c-3 0 -8 2 -14 5l-27 -7c-1 -7 -4 -16 -7 -28
l-90 -103c-4 -2 -10 -3 -18 -2c-8 -9 -16 -15 -24 -18l-21 -8c-10 -7 -21 -16 -33 -27c-5 1 -12 -2 -21 -7c-9 -6 -14 -8 -14 -8s-2 1 -5 3c-3 -8 -12 -13 -28 -16c-1 0 -2 1 -2 1c0 2 2 4 4 6l-5 4c-6 -4 -25 -6 -57 -6c-1 0 -7 0 -20 1c-12 2 -19 2 -21 2
c-29 0 -61 10 -98 29c-36 19 -56 38 -60 55v8c4 0 7 1 8 2c-8 16 -14 31 -15 46l42 169c0 5 -1 9 -2 10c6 8 16 20 30 35c5 1 20 6 43 14c3 2 14 9 30 19c7 1 17 5 30 10c27 6 46 10 56 12c40 6 62 9 65 9c19 0 43 -4 70 -11c31 -8 51 -18 59 -30c0 -1 -1 -3 -3 -5l94 -57
l90 10h40c1 0 7 1 16 2c10 1 16 1 18 1c32 0 60 -7 84 -21c6 -8 12 -15 17 -20c1 -2 8 -17 21 -45c-1 -9 2 -24 8 -45c-6 -38 -21 -65 -44 -81c-4 -6 -7 -14 -11 -25c-6 -8 -18 -22 -36 -42c-4 -4 -9 -6 -17 -7c-1 0 -1 -1 0 -3v-11l-80 -82l3 -10c-6 -3 -15 -7 -28 -13
l5 -4c-2 -2 -3 -4 -3 -6l-10 2l-24 -25c0 -1 -1 -2 -3 -4c4 -4 7 -6 7 -6h-12c-9 -9 -14 -19 -13 -32c-2 -4 -10 -12 -24 -23c-1 -3 -7 -11 -20 -24c-13 -12 -18 -20 -18 -23c-11 -4 -22 -6 -31 -6c-3 -2 -4 -7 -4 -14c-5 -3 -11 -7 -20 -12c3 -1 6 -4 10 -8c0 0 -2 0 -5 1
c-4 0 -6 1 -8 1c-4 -5 -8 -11 -14 -19l2 -17c2 1 16 5 42 10c15 3 24 12 26 27c13 20 23 39 32 58c11 8 20 17 26 28c9 6 22 15 40 27c51 19 74 28 69 28l96 15c-4 0 2 -1 19 -4c19 -3 32 -6 39 -8c15 -5 28 -14 40 -27c7 -7 22 -28 47 -62c2 -7 5 -17 10 -30
c4 -29 6 -46 6 -53z" />
    <glyph glyph-name="questiondown" unicode="&#xbf;" horiz-adv-x="627" 
d="M659 -67c-2 -4 -6 -11 -12 -20c0 -3 2 -4 5 -4c-3 -7 -10 -14 -20 -21v-23c-35 -31 -68 -49 -99 -54c-15 -14 -41 -24 -80 -29c-2 -3 -4 -5 -4 -7l-14 2c-8 -5 -15 -8 -20 -8c-2 0 -4 1 -8 2c-5 1 -9 1 -12 0c-12 -3 -17 -4 -14 -4c-4 0 -8 2 -11 5c-4 -3 -11 -7 -20 -13
h-37c-11 0 -25 1 -41 4c-1 1 -7 4 -17 9c-1 -1 -1 -3 -1 -5c-27 -4 -43 -6 -46 -6c4 0 6 2 6 7c-41 18 -67 30 -78 36c-27 15 -47 32 -58 51c-2 3 -6 7 -11 10c-5 9 -11 22 -18 40c-5 31 -8 48 -8 53c3 9 14 36 33 81c1 1 22 20 63 57c3 2 29 18 78 50c65 31 103 50 116 55
c44 19 83 30 116 34l7 7l15 170v48l10 132c5 10 10 24 16 41c8 17 23 26 43 26c1 0 4 -1 10 -3c5 -1 9 -2 11 -2c14 -21 27 -43 39 -66c1 -10 2 -25 6 -46l-15 -151v-42l-10 -239l-8 -3h-34c-1 0 -8 -2 -20 -7c-12 -6 -20 -8 -24 -8c-1 0 -3 0 -7 2c-3 1 -5 1 -7 1
c-10 0 -22 -4 -36 -12c-94 -31 -174 -76 -239 -133c-2 -4 -2 -8 -2 -11c0 -14 13 -21 41 -22l76 -2l38 4c26 3 45 4 56 4c11 2 36 7 75 16c56 12 81 18 76 18c5 0 12 -1 19 -2l10 12c-1 0 4 -2 16 -5l40 4c-2 -3 -4 -6 -7 -10c3 -3 4 -6 4 -9c0 -2 -1 -4 -2 -6
c10 -7 15 -9 15 -8zM612 840l7 -53c0 -8 -3 -18 -8 -29c-19 -14 -35 -20 -47 -20c-3 0 -6 1 -9 4l-4 -4h-8c-6 0 -11 2 -15 8c-3 4 -7 8 -11 13c-6 0 -12 4 -20 11c-9 8 -13 15 -13 22c0 15 0 29 -2 41c0 11 6 24 20 40c13 15 25 22 36 22c10 0 20 -3 29 -11
c10 -7 20 -14 29 -20c3 -6 8 -14 16 -24z" />
    <glyph glyph-name="grave" unicode="`" horiz-adv-x="426" 
d="M417 680l13 -8c0 -3 -2 -6 -7 -10c0 -3 1 -6 4 -9c-2 -2 -5 -4 -9 -8l2 -15c-22 -5 -32 -9 -32 -12c1 0 2 -2 2 -4l-11 -1c-7 2 -28 8 -65 18l-206 120c-17 10 -41 27 -71 52c-1 2 -4 3 -11 5c-8 18 -13 29 -13 34l2 9c-1 2 -2 4 -2 7c-1 5 1 12 5 21c7 12 16 18 29 20
c23 2 41 -4 56 -18c4 -1 10 -3 18 -6l125 -85c47 -32 93 -53 138 -63c3 -6 8 -11 17 -16c11 -17 17 -27 16 -31z" />
    <glyph glyph-name="acute" unicode="&#xb4;" horiz-adv-x="437" 
d="M468 849c-2 -3 -6 -8 -12 -14c0 -1 1 -3 3 -4c-6 -6 -14 -15 -24 -27c-17 -12 -58 -38 -122 -79c-56 -37 -100 -68 -132 -93c-10 -9 -24 -20 -42 -35c-10 -5 -24 -11 -43 -17c-1 1 -2 4 -5 8h-27l-14 12l-24 -2c2 4 5 8 8 11l-4 4c-4 4 -6 11 -6 20c0 0 1 3 2 7
c2 4 3 6 3 8c7 5 13 11 17 19c24 17 68 46 131 90c14 10 39 28 75 53c20 14 62 39 126 75c3 2 4 4 4 7l23 11c4 -2 11 -5 19 -8v-13c4 -1 10 -4 17 -9c4 -9 9 -14 14 -14c-1 0 1 1 5 2c0 -4 3 -8 8 -12z" />
    <glyph glyph-name="circumflex" unicode="&#x2c6;" horiz-adv-x="475" 
d="M476 700c-9 -11 -17 -23 -22 -36c-2 -1 -7 -3 -15 -7c6 0 -1 -1 -22 -1c-1 0 -3 1 -6 3c-3 -1 -7 -3 -12 -5c-14 14 -26 29 -38 42c-23 26 -60 57 -110 96c-3 -1 -7 -2 -12 -2l-39 -36c0 -1 1 -3 2 -6c-2 -1 -5 -3 -8 -5c1 -7 2 -9 2 -8c2 0 0 -1 -7 -2l-90 -109l-19 3
c-9 -2 -14 -4 -17 -6c-1 2 -3 5 -5 9l-8 -1c1 1 2 4 2 6c-3 3 -8 4 -14 5l-20 43c0 7 5 19 14 34c6 0 12 1 19 6c3 2 12 12 27 29c16 18 45 50 86 96c13 11 29 29 50 53c8 8 18 13 31 16c4 -1 10 -2 18 -4c7 -5 17 -10 29 -14c22 -18 49 -44 83 -79c41 -42 68 -69 80 -80
c5 -9 12 -22 21 -40z" />
    <glyph glyph-name="tilde" unicode="&#x2dc;" horiz-adv-x="767" 
d="M806 867v-29c0 3 -5 -2 -14 -16c-14 -16 -36 -39 -67 -69c-17 -11 -33 -25 -46 -40c-53 -40 -95 -60 -126 -61c-15 -5 -20 -7 -14 -7c-7 0 -15 2 -24 5c-16 5 -27 9 -33 10c-22 6 -51 25 -88 59c-33 31 -58 46 -73 46c-4 0 -16 -5 -38 -16c-21 -11 -36 -17 -45 -17
l-121 -101c-7 0 -11 1 -12 1c-8 -2 -15 -5 -22 -8c-5 2 -13 5 -23 8c-17 24 -26 38 -26 40c3 6 11 24 26 53c4 3 12 10 24 21l95 84c47 25 92 37 134 37c15 0 43 -7 85 -21c14 -7 32 -18 55 -33c37 -29 57 -45 60 -46c8 0 19 5 33 15c23 11 75 47 156 109c5 4 13 8 24 14
c8 1 16 3 24 5c7 -4 18 -8 32 -12v-5c3 -4 8 -6 13 -6c1 -1 1 -1 1 -2c0 -2 -1 -4 -2 -7c3 -3 7 -7 12 -11z" />
    <glyph glyph-name="macron" unicode="&#xaf;" horiz-adv-x="647" 
d="M216 745c-1 -4 -3 -5 -5 -5zM658 813v-9c-2 -1 -8 -8 -17 -22c-9 -6 -27 -11 -54 -16l-175 -12h-130c-54 0 -89 -4 -105 -13c-1 0 -3 1 -6 3c-4 2 -7 3 -8 3h-4c-2 -1 -2 -1 -2 -2c0 -2 1 -4 3 -5c-3 -2 -8 -4 -14 -4c-1 3 -4 6 -7 10h-53c-7 7 -19 16 -36 28
c-1 10 -6 18 -14 25c-7 20 -11 36 -11 49c0 12 3 25 8 38c5 6 14 13 26 23l84 1l181 -10l92 6c3 1 12 3 26 8c3 -1 6 -3 10 -5l103 12c19 -10 38 -20 58 -28c9 -11 19 -30 30 -55c3 -6 8 -14 15 -25z" />
    <glyph glyph-name="breve" unicode="&#x2d8;" horiz-adv-x="684" 
d="M708 823c-9 -1 -16 -9 -19 -23c-22 -14 -40 -27 -55 -39c-12 -4 -24 -13 -38 -28c-14 -9 -36 -23 -65 -41c-2 -5 -14 -13 -37 -25c-2 -1 -5 -5 -8 -12c-1 -1 -20 -12 -57 -36c-34 -22 -56 -33 -64 -33c-2 0 -3 0 -3 1h-2c-8 0 -20 -4 -35 -13l-8 1
c-31 26 -78 65 -140 116c-1 2 -3 5 -6 9c-22 20 -56 48 -100 85l-19 10c0 1 1 5 5 10c-18 27 -27 42 -27 47c0 15 6 28 20 40c9 3 16 5 21 5c13 0 33 -8 59 -22s41 -26 46 -35c16 -9 35 -25 58 -48l95 -77h7c32 20 77 48 134 84c11 9 33 25 67 49c27 20 42 36 47 50
c20 -2 36 -3 46 -1c9 -6 17 -8 23 -8h5c4 0 19 -9 45 -25c1 -2 1 -3 2 -4c0 -4 -2 -7 -6 -10v-8c0 -4 3 -10 9 -19z" />
    <glyph glyph-name="dotaccent" unicode="&#x2d9;" horiz-adv-x="152" 
d="M150 874l13 -47c1 -7 -3 -14 -11 -22c-9 -4 -23 -9 -44 -16c1 0 3 -1 7 -1c0 -5 0 -8 -1 -8c-1 2 -5 6 -10 12l-5 -7c-3 1 -7 5 -13 11c-7 1 -15 5 -25 11c-3 13 -11 32 -23 58c-1 4 2 8 7 14c0 0 0 3 -1 8s-1 8 -1 8c4 5 9 10 16 16c4 1 10 3 20 5c27 -11 51 -25 71 -42
z" />
    <glyph glyph-name="dieresis" unicode="&#xa8;" horiz-adv-x="356" 
d="M332 820l42 -24c5 -5 8 -13 8 -24c-4 -9 -11 -22 -21 -41c2 0 4 2 6 4c4 -4 6 -7 6 -8c-1 1 -6 1 -16 2l2 -9c-4 0 -9 0 -17 -1c-6 -5 -15 -8 -26 -9c-11 7 -31 15 -58 24c-3 2 -4 7 -4 15c-4 2 -9 6 -14 11c0 19 0 26 1 21c2 4 5 10 10 19c28 11 55 18 81 20zM76 719
l-40 27c-5 5 -7 13 -7 24c5 8 13 21 25 40c-1 0 -3 -1 -7 -4c-4 4 -6 7 -6 8l16 -3l-1 9h18c6 4 15 7 26 8c11 -7 30 -17 56 -29c2 -2 3 -7 3 -15c3 -3 8 -6 13 -11c-2 -19 -2 -27 -2 -22c-3 -3 -7 -9 -12 -18c-28 -9 -55 -14 -82 -14z" />
    <glyph glyph-name="ring" unicode="&#x2da;" horiz-adv-x="336" 
d="M267 767c0 3 0 6 -1 9l-1 4c-13 9 -30 14 -53 14c-21 0 -33 -1 -34 -2c0 0 1 -1 2 -1c0 0 -3 -4 -8 -12s-8 -14 -8 -17c0 -11 16 -16 48 -16c7 0 17 2 30 7c15 5 23 9 25 14zM360 726l-5 -47c-4 -6 -11 -14 -21 -25c-9 -4 -22 -12 -40 -22c-28 -4 -41 -6 -38 -6
c-21 0 -36 -1 -45 -3c-5 -1 -8 2 -11 8c-27 0 -39 -1 -38 -2c-1 1 -2 1 -2 2l-70 35c-8 10 -20 24 -35 43c-15 40 -23 69 -23 87c0 16 7 28 21 36c3 3 9 5 17 5c6 17 19 39 40 66c17 6 27 8 31 8h56c1 -3 14 -9 37 -18c6 -5 19 -12 38 -20l37 -40c7 -12 17 -29 30 -53
c14 -25 21 -43 21 -54z" />
    <glyph glyph-name="cedilla" unicode="&#xb8;" horiz-adv-x="389" 
d="M114 -372l-6 -4zM417 -181c0 -11 -6 -27 -18 -49c-22 -39 -52 -70 -92 -89c-24 -12 -61 -28 -109 -50c-5 -1 -9 -4 -10 -9h-119l2 4l-27 59l4 13c-1 7 -1 17 -1 30c7 33 32 56 75 67c21 9 52 27 92 54c0 4 -3 7 -6 7c-5 1 -9 1 -14 2v7c-12 1 -28 7 -48 18
c-3 9 -7 17 -12 22c0 5 -2 11 -7 20c-2 7 -3 19 -3 36c0 38 15 90 45 156c11 5 17 8 19 8h20c45 -33 68 -65 68 -96c0 -5 -1 -10 -2 -15c4 -7 13 -16 28 -26c18 -12 28 -20 31 -22c27 -25 51 -55 70 -90c3 -15 6 -28 8 -37s3 -16 4 -19s2 -4 2 -1z" />
    <glyph glyph-name="hungarumlaut" unicode="&#x2dd;" horiz-adv-x="466" 
d="M499 836v-31c-7 -13 -12 -28 -16 -45c-23 -33 -58 -82 -105 -146c-10 -5 -24 -12 -43 -20l-43 33c-19 38 -28 64 -28 77c0 21 15 57 45 107c28 47 42 71 41 72c19 27 39 41 60 41c39 0 64 -22 77 -66c8 -18 12 -25 12 -22zM258 832v-30c-7 -14 -12 -29 -17 -46
c-22 -33 -57 -81 -105 -145c-9 -5 -24 -12 -42 -21l-43 33c-19 38 -28 64 -28 78c0 21 14 57 44 107c29 47 42 71 42 72c20 27 40 41 60 41c38 0 64 -22 77 -66c8 -17 12 -25 12 -23z" />
    <glyph glyph-name="ogonek" unicode="&#x2db;" horiz-adv-x="327" 
d="M350 -237l-2 -34c-39 -46 -76 -69 -109 -69h-36c-11 0 -30 5 -57 14c-27 15 -47 35 -58 58c-6 11 -13 35 -22 70l-3 25c-2 11 -3 18 -3 20v42c0 2 5 28 14 78c3 13 5 33 8 60c3 24 11 46 24 66c8 2 18 5 31 8c38 -18 57 -55 58 -110l-17 -140l5 -24c2 -3 7 -6 14 -9
l61 10c2 0 8 3 19 6c10 4 16 6 17 6h21c25 -27 37 -53 35 -77z" />
    <glyph glyph-name="caron" unicode="&#x2c7;" horiz-adv-x="400" 
d="M429 850c-9 -17 -17 -33 -26 -47c-11 -14 -24 -27 -39 -40c-44 -25 -79 -38 -105 -38c-8 0 -20 -1 -35 -3c-25 0 -39 1 -44 2c-59 8 -107 42 -142 103c-3 15 -3 27 -2 36c1 5 5 14 12 25c18 6 29 8 34 7c30 -13 44 -30 43 -49c-1 -8 6 -19 21 -34c5 -3 14 -7 27 -13
l13 -1l34 1c29 8 48 13 57 17c21 7 34 16 38 26c1 2 3 5 7 11c10 16 28 36 54 61c5 -1 13 -3 24 -4c1 -2 4 -4 9 -8c5 -6 11 -15 20 -26c-1 -3 -2 -7 -2 -11c0 -5 1 -10 2 -15z" />
    <glyph glyph-name="emdash" unicode="&#x2014;" horiz-adv-x="1207" 
d="M242 119c-1 -2 -2 -4 -3 -4s-1 1 -2 1c1 0 3 1 5 3zM1171 202v-8c-2 -2 -8 -9 -18 -22c-12 -9 -30 -14 -53 -16l-175 -13l-617 -14c-57 -1 -92 -5 -105 -12c-1 0 -3 1 -7 2c-3 2 -5 3 -7 3h-4c-1 -1 -2 -2 -2 -3s1 -3 3 -4c-3 -2 -8 -3 -14 -3c-2 2 -4 5 -7 10h-53
c-8 7 -20 16 -36 28c-1 9 -6 17 -14 25c-7 19 -11 35 -11 48s3 25 8 38c5 5 14 13 26 23l84 1l181 -10l578 21c4 0 13 2 27 7c3 -1 6 -2 10 -5l103 13c19 -11 38 -21 58 -29c9 -11 19 -29 30 -54c3 -6 8 -15 15 -26z" />
    <glyph glyph-name="AE" unicode="&#xc6;" horiz-adv-x="1266" 
d="M541 490l-22 159c-1 -1 -3 -4 -7 -8h-7c0 -5 -4 -10 -12 -15c-3 -6 -8 -14 -15 -24v-6l-9 -6l-37 -57c2 -1 3 -3 3 -6c-4 -3 -9 -6 -15 -10l-26 -42c2 -4 3 -9 2 -14c6 0 14 0 25 -1l119 16l1 5v9zM1259 404v-12c-18 -11 -27 -20 -26 -29c-6 -5 -13 -7 -19 -7
c-1 0 -3 0 -5 1c-3 1 -5 1 -6 1c-8 -8 -19 -11 -35 -11l-163 9c-4 1 -8 3 -13 4l-140 2l-156 -14c-1 0 -3 1 -6 1c-3 1 -5 1 -6 1c-5 -8 -7 -15 -7 -21c0 4 0 4 1 0s3 -10 4 -19c2 -19 6 -48 11 -86c3 -16 11 -43 24 -79l6 -6l146 -8c5 -1 11 1 17 4c8 -3 15 -4 20 -4l54 6
h32l142 4c14 0 44 -3 91 -11c28 -13 51 -30 70 -50c-1 -8 1 -21 4 -38c3 -3 4 -5 5 -6v-25c-6 -8 -18 -14 -37 -19l-41 -9l-31 4h-31l-341 -10c-30 2 -75 8 -135 17c-26 9 -45 15 -60 17c-13 12 -20 24 -23 36c-1 13 -6 41 -13 85c1 2 -1 10 -6 24l-10 89l-21 92h-14
l-81 -17l-124 -17l-41 6c-3 -1 -11 -8 -22 -21c-2 -3 -4 -8 -6 -15c-4 -5 -15 -21 -35 -49c-18 -25 -45 -72 -80 -140c-2 -9 -4 -17 -5 -27c-3 -7 -9 -17 -15 -31c-7 -7 -11 -12 -12 -16c-12 -2 -25 -6 -39 -13h-8c-1 2 -2 5 -4 8c-14 0 -26 2 -35 5c0 9 -5 21 -14 36
c-2 4 -2 9 -2 13s0 7 1 11c-3 2 -5 4 -8 4c0 4 -1 11 -4 19l3 4c0 1 -1 2 -2 3c6 4 11 13 15 24c7 19 10 30 12 33c9 17 17 32 24 47c1 3 12 19 32 47c14 20 21 34 21 42c0 1 -1 4 -3 7c-1 4 -2 6 -2 8c0 -5 3 6 9 31c17 12 33 29 48 51c10 9 16 16 20 20c7 8 11 16 13 25
l99 128c2 1 5 2 8 4c4 6 12 16 24 30c-1 4 -1 9 0 14c12 15 26 30 38 45c14 17 22 32 24 45c7 8 18 27 35 55c6 10 14 24 23 41c6 8 16 25 31 49c6 26 13 43 22 51c9 9 22 13 39 12l92 -6l104 8c21 1 34 -1 38 -9l56 11h134l34 -4h65l86 -14c3 -6 9 -14 19 -21v-12l11 -7
c-1 -16 2 -24 11 -26v-30c0 -2 -1 -4 -2 -8c-2 -4 -3 -7 -3 -7c-3 -4 -7 -9 -13 -15c-5 3 -9 5 -12 5c-9 0 -18 -3 -27 -9c-17 6 -29 9 -37 9c-1 0 -2 0 -4 -1c-1 -1 -2 -1 -3 -1c-2 0 -5 2 -9 4c-5 3 -8 5 -9 5h-40c-4 0 -7 1 -9 5c-8 -2 -15 -3 -20 -3l-138 3
c-3 0 -10 -1 -20 -3c-2 0 -12 -2 -28 -5c-2 3 -7 7 -12 11c-13 0 -22 1 -27 2l-40 -8h-87c-4 0 -11 -4 -21 -11v-23c0 -1 1 -7 3 -16s3 -15 3 -16v-38l18 -164c0 -7 2 -16 8 -26l66 7l38 -6l133 7l101 -1l83 -15c5 0 11 2 20 5l99 -22c2 -1 5 -4 8 -7c5 0 18 -9 41 -25
c0 -5 1 -11 4 -18s5 -10 5 -10z" />
    <glyph glyph-name="ordfeminine" unicode="&#xaa;" horiz-adv-x="440" 
d="M256 724c-3 9 -7 17 -13 22c-14 -3 -28 -13 -41 -28s-19 -30 -18 -44l6 -6c7 2 14 3 21 3c14 12 29 30 45 53zM472 557c0 -1 -2 -5 -4 -12c-3 -7 -4 -12 -4 -14c-2 0 -6 -3 -11 -8h-20c8 0 -1 1 -26 3c-17 17 -32 29 -45 35c-12 15 -25 30 -39 44l-55 -35c-1 0 -3 1 -4 1
c-7 0 -15 -6 -23 -18h-68c-1 0 -25 11 -71 33c-29 36 -43 72 -43 108c0 16 4 32 13 49c12 24 19 38 20 42c27 36 57 58 90 67c6 0 21 2 43 5c21 3 32 4 33 4c19 0 47 -5 83 -14c1 -1 13 -12 35 -35c0 -4 1 -8 3 -12l-10 -40c14 -27 32 -57 54 -88c3 -10 10 -21 20 -33
c19 -41 29 -69 29 -82z" />
    <glyph glyph-name="Lslash" unicode="&#x141;" horiz-adv-x="750" 
d="M763 163c-2 -6 -2 -13 -2 -21c-1 0 -4 -2 -8 -6v-16c-1 -1 -7 -3 -18 -6c-1 -3 -3 -9 -6 -19h-17l-9 -9c1 -1 5 -3 10 -6c-2 -1 -5 -2 -9 -4c-11 0 -27 -2 -48 -7c-2 1 -9 2 -20 2l-53 -10c-2 0 -6 1 -11 4l-100 -22c-1 0 -4 0 -8 1c-5 1 -7 1 -8 1c-4 0 -14 -1 -30 -4
l-110 -30c2 0 0 1 -6 2c-3 -2 -10 -5 -23 -10s-22 -8 -26 -8c-1 0 -1 0 -2 1c0 1 -1 1 -2 1c0 0 -6 -2 -17 -7s-19 -7 -24 -7c-1 0 -3 0 -4 1c3 1 7 2 12 4c-4 2 -9 3 -15 3c-5 0 -9 -1 -12 -2c-4 5 -10 10 -19 13c1 3 -1 6 -5 8c-7 -2 -13 1 -18 9c-7 13 -13 20 -15 23
l-4 26l40 285c0 2 -1 6 -3 11c-12 -10 -26 -25 -43 -46l-67 -22c-14 8 -27 19 -38 32c-1 6 -4 15 -7 27l20 54c5 3 12 7 21 11c32 29 79 72 141 129c2 16 6 43 8 82l11 214c6 3 9 7 9 11c0 3 -1 7 -4 10c5 7 12 18 21 33c4 0 8 3 14 8h7c29 0 52 -18 69 -54
c9 -20 13 -37 13 -52l1 -54l-8 -55l5 -30c14 6 32 16 53 30c8 -1 16 0 25 2c1 -1 1 -2 1 -3c0 -2 0 -5 -2 -8c2 1 7 0 15 -1c0 -5 1 -8 3 -9l-6 -4l1 -7c7 1 11 2 12 2c-1 -3 -2 -6 -5 -11c2 -1 5 -2 10 -3v-13l-56 -70c0 -3 1 -4 4 -4c-11 -9 -26 -23 -47 -42
c-18 -6 -26 -21 -22 -46c2 -17 1 -34 -4 -50c1 -5 0 -11 -3 -20v-26l-29 -205v-16h21l40 11l225 34h22l67 12c15 2 33 -4 52 -14c18 -11 32 -24 40 -38z" />
    <glyph glyph-name="Oslash" unicode="&#xd8;" horiz-adv-x="1208" 
d="M1007 431c0 10 -3 36 -8 78c-5 22 -15 41 -29 58c-3 12 -8 22 -14 30c-3 4 -8 7 -15 11l-70 -45c-2 1 -4 2 -6 2c-3 -5 -7 -10 -13 -17c-28 -19 -72 -51 -132 -98c-3 -1 -6 -2 -10 -4c-44 -36 -110 -87 -198 -155c-21 -22 -36 -36 -47 -42c-13 -14 -34 -33 -63 -57
l-103 -106c17 -15 62 -27 136 -39l63 -3c14 -1 34 2 60 9c76 8 166 48 271 118c5 3 16 10 32 19c47 42 80 76 99 102c31 44 47 90 47 139zM824 730l-110 30c-8 0 -20 -3 -37 -8c-3 -7 -8 -13 -17 -17c-3 -5 -6 -12 -10 -20h-39c7 0 -16 -8 -69 -24c-29 -6 -55 -15 -77 -28
c-25 -9 -60 -28 -101 -62c-46 -39 -76 -75 -89 -109c-7 -12 -15 -28 -23 -48c-7 -15 -17 -66 -33 -153l-3 -46c2 0 4 -1 6 -3l236 208l365 273c3 0 4 0 4 2c0 1 -1 3 -3 5zM1295 836c-14 -6 -24 -12 -30 -19c4 -7 7 -10 7 -9l-95 -50l-135 -87c21 -33 35 -56 42 -70
c15 -29 23 -55 25 -77c0 -1 0 -3 1 -8s2 -8 2 -10v-37l10 -64c-1 -59 -11 -101 -29 -125c-13 -49 -29 -87 -49 -113c-43 -58 -100 -110 -170 -157c-44 -29 -106 -64 -188 -103c-9 0 -20 -2 -35 -6c-59 -16 -98 -24 -116 -24c-15 0 -26 -1 -35 -3c-12 3 -23 5 -33 5h-37
l-95 23c4 -1 -5 -2 -28 -5c-3 3 -7 5 -11 5v8c-8 2 -20 6 -37 12c-6 5 -25 21 -57 47l-207 -195h-16l-7 5c-1 -1 -2 -3 -2 -5h-16l-6 6c3 2 6 4 10 8l-12 9c-3 0 -5 -1 -6 -3c-3 -1 -7 2 -13 7c-10 -5 -15 -7 -16 -7c1 8 2 13 2 13c-5 5 -7 9 -7 11c1 21 -3 34 -10 39v44
l205 220v19c0 1 -2 11 -5 29s-5 28 -5 30v79c0 -4 1 2 4 20c0 26 3 57 10 93c9 51 15 80 17 88c30 72 57 128 80 168c31 42 72 78 125 109c6 3 17 10 32 20c8 18 33 37 74 55c10 3 41 14 94 34c-2 6 -3 8 -3 8c2 -1 12 1 30 5c0 -5 -2 -8 -6 -8c0 0 -2 1 -5 3
c-1 -1 -2 -2 -2 -3l2 -2c7 0 14 0 20 1s9 1 7 1c2 2 4 5 4 7s-1 3 -2 5c4 -1 9 -2 13 -2c6 0 13 1 20 3c-1 0 -1 -1 -1 -1c0 -1 7 -4 21 -9c3 1 10 2 20 2c4 3 10 8 17 15c2 0 6 0 12 1s10 2 11 2c15 0 41 -5 78 -15l58 -16c16 -4 36 -14 61 -30l62 -39h9c2 2 6 5 12 9
c25 13 67 35 125 65c23 12 48 21 73 30c16 5 37 8 62 8c2 0 8 2 19 5c7 1 13 0 19 -4c7 -6 17 -19 29 -39v-5c0 -6 1 -15 3 -26z" />
    <glyph glyph-name="OE" unicode="&#x152;" horiz-adv-x="1712" 
d="M986 536c0 1 -1 5 -2 13c-1 7 -1 12 -1 14c-5 4 -11 11 -18 20c-5 0 -9 2 -12 5c0 3 -2 7 -5 10c-5 0 -9 1 -13 4c0 3 -2 8 -7 15c-10 7 -23 17 -40 30c-60 30 -102 50 -123 58c-5 1 -26 9 -65 21c-5 0 -8 -1 -10 -2c-3 2 -7 5 -13 10c-6 0 -10 -1 -12 -3
c-3 4 -17 9 -40 13c-14 5 -26 7 -36 7h-60c-24 0 -46 -6 -66 -19c-36 -23 -64 -41 -84 -55c-29 -19 -57 -43 -85 -70c-9 -9 -26 -25 -51 -49c-11 -17 -22 -31 -32 -43c-33 -53 -49 -109 -49 -167c0 -82 37 -142 112 -180h9c4 -6 28 -16 71 -29c43 -12 75 -19 95 -19h39
c9 0 29 3 61 9c5 1 18 2 38 4c13 5 55 21 125 48c23 13 54 31 93 55c6 7 14 17 25 29c5 3 13 8 22 16c15 17 36 42 63 75c13 21 30 56 52 106c13 29 19 54 19 74zM982 -22l7 -2zM1730 170l28 -62c-3 -9 -9 -24 -17 -45c-1 -2 -9 -6 -23 -12c-15 -5 -26 -9 -34 -9l-181 -12
c0 4 1 7 2 8c-1 2 -6 2 -14 2c-1 -1 -1 -2 -1 -3s1 -3 2 -4c-3 1 -13 3 -29 7c-27 -7 -37 -10 -30 -10c5 0 -3 2 -24 5c-3 -5 -15 -9 -36 -13c-3 3 -8 5 -14 5c-8 -5 -16 -7 -23 -7c-2 0 -4 0 -7 1c-2 1 -4 1 -4 1l-51 -10c-9 2 -22 2 -38 0c-25 -3 -38 -5 -40 -5
c-7 0 -12 2 -14 5l-66 -17c-2 -1 -3 -5 -3 -10h-55c-1 0 -4 -1 -8 -4c-8 -1 -20 -2 -35 -2c-1 0 -3 -1 -6 -4s-6 -4 -7 -4h-101c1 1 2 3 2 4s-1 2 -1 3l-26 2c-1 8 -7 14 -17 18c-7 5 -13 15 -19 28s-11 24 -16 32c-7 -5 -18 -13 -32 -22c-10 -2 -18 -5 -26 -10
c-8 -4 -17 -9 -26 -15c-24 -3 -48 -13 -73 -30c-9 0 -22 -2 -39 -5c3 -2 8 -3 15 -2l-109 -8l-156 7c-2 2 -8 6 -18 13c0 1 1 3 3 5c-4 3 -9 4 -14 6l-81 24c-120 62 -197 143 -232 243c-1 3 -7 19 -18 50c0 9 -2 22 -6 40l8 97c0 -8 3 2 9 29c2 6 6 18 12 35
c33 98 111 188 232 269c23 19 60 42 109 69l114 63c19 -6 47 -8 86 -7l335 11l386 -11l227 -2c1 0 3 0 6 1c2 1 4 1 6 1c-5 0 17 -4 65 -11c8 -4 21 -11 38 -20c5 -6 13 -16 23 -29c2 -2 2 -6 2 -13l13 -10c-1 -8 -3 -20 -8 -36c0 0 1 -2 2 -3c2 -2 3 -3 3 -4l-33 -21
c-3 0 -5 1 -7 1s-4 -1 -5 -1c-1 -3 -2 -8 -5 -15c-7 0 -16 -2 -26 -5c-11 5 -23 7 -37 7l-65 9h-37c-15 0 -30 3 -45 8c-5 -2 -12 -3 -21 -3c-13 0 -26 3 -39 8c-5 -3 -11 -5 -18 -5l-46 -5l-86 13l-228 5c-14 0 -22 -4 -26 -12c-2 -1 -6 -1 -11 -1l-2 -8
c23 -22 58 -54 103 -98c43 -42 65 -76 65 -100v-105l4 -4l262 27l107 7c7 0 15 1 22 1c69 0 124 -21 165 -62c2 -12 3 -23 3 -32c0 -29 -14 -45 -42 -45h-55l-85 -10h-28l-282 -44l-2 4l-125 -11c-3 -4 -12 -16 -27 -37c-1 -1 -2 -4 -1 -7c-1 1 -2 1 -2 1c-2 0 -3 -1 -4 -2
c1 -3 1 -6 0 -10l-63 -74c4 -1 10 -2 18 -4l117 17c5 -3 11 -5 17 -5l261 30h30l130 10l60 -6l3 2l70 -3l30 -6c7 -7 19 -14 36 -22z" />
    <glyph glyph-name="ordmasculine" unicode="&#xba;" horiz-adv-x="371" 
d="M287 736c-17 12 -35 18 -54 18c-1 0 -7 -1 -17 -2c-10 -2 -17 -2 -20 -2l-3 3l-23 -33v-11c2 0 5 -2 8 -6c3 3 7 5 11 5h44c9 0 26 7 51 21c0 2 1 4 3 7zM397 697c-2 -4 -8 -21 -18 -50c-1 -3 -11 -17 -30 -43c1 -2 1 -4 1 -5c-3 -2 -14 -7 -31 -15
c-57 -7 -82 -11 -74 -11l-82 5c-14 6 -36 14 -65 26c-34 23 -51 52 -50 88c-3 3 -4 7 -4 11c0 42 14 75 43 100c13 59 53 88 119 88c45 0 78 -10 98 -29c31 -9 51 -29 61 -59c17 -27 25 -50 23 -68c1 -3 3 -6 7 -10c-1 -2 -1 -4 -1 -7c0 -5 1 -12 3 -21z" />
    <glyph glyph-name="ae" unicode="&#xe6;" horiz-adv-x="918" 
d="M317 203c0 2 -1 4 -3 7h-9l-108 -48c-3 -5 -6 -13 -10 -22h13c4 0 32 10 86 31c7 8 18 19 31 32zM645 433c-19 10 -37 15 -56 15c-65 0 -98 -16 -98 -46c0 -3 0 -6 1 -9l24 -3c1 1 24 5 69 14c26 5 46 14 60 29zM892 99v-18c-5 -7 -7 -14 -7 -20c-2 -2 -6 -3 -11 -3
c-3 -7 -5 -13 -5 -20l-16 2c-4 0 -7 -2 -9 -7l-44 -6c-6 0 -14 2 -24 5c-5 0 -7 -2 -7 -7h-24s-7 1 -20 4s-22 4 -27 4c-15 3 -38 7 -70 12c-35 12 -63 22 -85 28c-13 7 -29 16 -48 29c-11 1 -26 3 -47 8l-105 -100c-5 0 -10 -1 -16 -4c5 -4 7 -6 7 -6c-4 0 -8 1 -12 1
c-21 0 -34 -7 -38 -21c-16 1 -29 -1 -39 -5l-5 3c-3 1 -5 2 -8 2h-47c-7 0 -15 7 -23 20l-15 -3c-5 5 -8 8 -8 7c-21 11 -41 27 -59 48c-21 24 -32 46 -32 66c-5 8 -7 17 -7 28c0 24 3 47 8 68c28 43 63 75 108 93c24 10 61 22 110 40c6 0 15 0 28 1c5 2 14 7 27 14
c-10 15 -27 28 -49 40c-22 10 -41 16 -59 16c-22 0 -49 -6 -82 -18c-32 -11 -48 -17 -48 -17s-6 1 -16 3c-11 1 -17 2 -21 2c-3 4 -9 7 -15 10c-18 35 -26 54 -26 59c0 9 4 23 11 43c47 41 118 61 214 61c17 0 40 -7 69 -23c14 -7 34 -18 60 -33c1 1 2 3 3 5
c16 34 45 56 87 67c1 0 5 0 12 2c6 1 10 2 12 2c3 0 5 0 8 -2l3 -1l18 8l60 2c27 0 65 -6 116 -21c12 -4 28 -15 48 -33c20 -19 36 -33 48 -44c-1 -6 2 -11 8 -16c3 -3 6 -9 11 -17c1 -2 1 -5 1 -9c0 -5 -1 -11 -2 -19c4 -9 6 -14 6 -15c-1 1 -2 3 -5 6c-1 -1 -2 -3 -2 -5
c0 -3 1 -6 3 -9l-18 -13c0 -3 1 -4 3 -6c-20 -70 -91 -116 -214 -138c-6 -1 -10 -4 -12 -8c2 -1 3 -2 3 -4c29 -16 46 -23 52 -23c3 -2 20 -9 50 -21c18 -3 40 -5 65 -6c8 -5 24 -9 46 -12c30 -4 48 -7 54 -9c9 -4 21 -10 38 -19c0 -4 2 -8 7 -14s7 -10 7 -11
c0 -2 0 -4 -1 -5c11 -7 17 -13 17 -18z" />
    <glyph glyph-name="dotlessi" unicode="&#x131;" horiz-adv-x="252" 
d="M193 233v-61c0 2 -1 0 -2 -6c0 -7 -1 -15 -2 -25c-1 -14 -1 -28 -1 -44v-50l-15 -36l-11 2c-3 -2 -6 -4 -10 -7c-3 1 -6 3 -10 5c-3 -1 -6 -3 -10 -5c-3 2 -16 6 -41 12c-12 19 -22 52 -31 99c-2 11 -3 25 -2 45l3 88l12 58c10 8 15 16 18 25l26 6c4 0 9 -2 16 -7
c10 -11 25 -28 44 -49c11 -19 16 -35 16 -50z" />
    <glyph glyph-name="lslash" unicode="&#x142;" horiz-adv-x="454" 
d="M487 641l-128 -194v-139l4 -136l7 -113c-2 -4 -6 -9 -11 -15c3 -18 -6 -35 -26 -51l-11 2c-2 -2 -4 -5 -7 -9l-22 12l-7 -21c-3 3 -5 8 -4 15c-11 7 -17 13 -19 16c-1 3 -4 11 -10 24h-15l-10 7v297l-8 2c-13 -16 -39 -41 -78 -76c-10 -5 -25 -12 -46 -23
c-3 3 -8 4 -13 4c-1 -1 -6 -3 -14 -6c-10 -1 -29 16 -55 50v9c0 8 4 20 12 36l16 32c12 7 34 25 65 52c24 20 67 56 129 108c3 10 8 31 14 63c0 34 4 86 10 155v85c-1 2 1 6 5 14c0 2 -1 3 -4 3c3 8 6 15 11 20c3 27 17 40 41 40c20 0 34 -9 43 -27c1 -8 6 -19 15 -33
c-3 0 -5 0 -7 -2l15 -62l-3 -131l72 40c6 -7 10 -10 11 -11h18c1 -3 3 -6 6 -10c-3 -6 -7 -15 -12 -27c0 -1 1 -2 2 -3c5 2 9 3 14 3z" />
    <glyph glyph-name="oslash" unicode="&#xf8;" horiz-adv-x="901" 
d="M222 292l240 262h-14c-3 1 -6 -1 -10 -4c-13 -6 -32 -10 -55 -13l-36 -25c-1 -1 -3 -2 -5 -3c-5 -7 -11 -16 -20 -27c-6 -3 -14 -9 -24 -18c-12 -20 -29 -49 -51 -89c-18 -34 -26 -62 -25 -83zM712 433c0 3 -1 8 -4 15v7c0 11 -4 21 -12 31c-9 9 -18 14 -29 14
c-7 0 -16 -4 -27 -11v-6c1 -2 0 -4 -4 -6c-14 -17 -35 -36 -64 -55c0 -5 -4 -11 -13 -20c-5 -4 -10 -9 -14 -13h-10c-4 -14 -14 -28 -28 -43l-60 -60v-10c-4 -5 -10 -9 -17 -12c-4 -10 -11 -15 -20 -18c-2 -9 -7 -20 -16 -30c-5 -6 -13 -15 -23 -27c-5 -9 -12 -20 -22 -34
c19 -8 33 -11 43 -11c13 0 28 4 44 12c17 2 66 25 145 69c11 11 32 31 60 60c13 13 29 38 49 75c7 13 13 31 17 54c3 14 5 20 5 19zM938 749c0 -7 -6 -15 -17 -27c-13 -12 -20 -21 -21 -24c-37 -15 -75 -41 -115 -80c15 -33 36 -55 62 -66l28 -147l-15 -105l-55 -98
c-10 -25 -33 -51 -68 -80c-32 -27 -59 -48 -81 -65c-1 0 -3 1 -5 2l-142 -75c-3 -1 -8 2 -13 7c-7 -3 -17 -6 -29 -11c1 -1 4 -2 9 -2c-3 0 -5 -1 -7 -3c6 -1 14 -3 23 -5c-29 0 -42 -1 -40 -1l-34 -8l-162 56c-6 -7 -16 -19 -29 -37c-3 -10 -12 -21 -25 -33
c-1 -2 -6 -16 -15 -42c0 -4 -3 -6 -8 -6l-48 -117l-8 -8l-10 10c-5 -6 -12 -13 -20 -23c-4 8 -7 15 -11 18h-16c-3 -3 -7 -6 -13 -10c-5 5 -14 10 -26 17l-20 53c-3 -5 -6 -7 -10 -7l-2 4c-1 3 -1 6 -1 9c0 23 4 39 10 48c-2 7 -3 11 -3 11c0 7 3 16 10 27c9 30 22 60 36 90
c3 5 13 25 33 60c16 29 24 45 24 49l-39 62c-26 41 -39 81 -39 119c0 12 7 47 21 105c39 77 80 135 121 173c10 5 20 13 29 24c12 10 52 34 121 73c3 0 21 9 54 26c30 15 64 23 104 23c31 0 80 -13 148 -38h9c24 17 51 40 82 69l18 9c1 4 14 15 39 33c26 18 43 27 52 27h50
l56 -61c0 -2 1 -6 4 -13s4 -11 4 -12z" />
    <glyph glyph-name="oe" unicode="&#x153;" horiz-adv-x="1092" 
d="M525 304c0 45 -20 77 -61 94l-38 3c-2 3 -5 5 -11 5c-10 0 -22 -3 -39 -10c-10 3 -17 5 -20 5s-25 -9 -66 -26c-12 -7 -29 -18 -52 -32c-46 -36 -69 -72 -69 -107c0 -36 26 -67 79 -92c35 -9 58 -13 69 -13c18 0 46 10 85 31c46 25 81 51 104 80c13 27 19 48 19 62z
M827 356l78 14c-2 4 -13 12 -33 25c-20 4 -31 6 -32 6c-25 0 -42 -4 -52 -12c-18 0 -37 -12 -58 -36c0 -5 1 -7 4 -7c4 0 13 0 27 1s23 2 27 2l36 10zM1053 344c0 -6 -1 -15 -2 -27l-1 -6c-1 -16 -2 -27 0 -32c-6 -4 -14 -10 -25 -17c-29 -9 -72 -18 -130 -27
c-60 -10 -93 -16 -101 -18c-19 -1 -49 -5 -89 -13c0 2 -1 0 -3 -6c13 -17 43 -30 90 -40c15 -9 36 -13 62 -12l101 4l67 -7c9 -16 19 -29 28 -38c-1 -4 -6 -16 -16 -36c-8 -16 -11 -26 -9 -32l-96 -41h-90c-34 0 -75 8 -123 25c-45 16 -78 31 -98 46c-15 11 -33 24 -52 37
c-2 0 -6 -2 -12 -6c-12 -16 -43 -37 -93 -62c-52 -26 -88 -39 -108 -38l-80 3c-3 -1 -7 -3 -14 -8c-9 3 -23 6 -42 11c-18 5 -30 11 -37 19c-8 3 -21 10 -40 19c-7 7 -16 14 -27 20c-6 5 -23 21 -53 47c-8 14 -21 41 -38 81c0 1 -1 9 -2 25c-1 8 -1 15 -1 20c0 2 1 10 4 23
c1 29 15 63 44 102c31 42 64 73 98 93c79 47 159 68 241 66l65 -2c12 -1 28 -6 48 -17c8 -5 23 -13 43 -25c9 -8 21 -21 37 -39c15 15 38 36 69 62c49 26 96 39 141 39c19 0 51 -6 98 -19c11 -7 28 -15 50 -25c19 -14 38 -31 57 -52c6 -7 14 -22 24 -45
c10 -24 15 -41 15 -52z" />
    <glyph glyph-name="germandbls" unicode="&#xdf;" horiz-adv-x="800" 
d="M827 7c0 -41 -9 -82 -28 -121s-44 -69 -75 -90c-5 -5 -12 -14 -23 -28c-79 -62 -141 -123 -186 -184c0 2 -2 4 -5 7c-7 -7 -18 -15 -34 -25c-12 -10 -23 -23 -35 -40c-9 4 -15 7 -16 10c-3 -3 -7 -5 -10 -7l-5 7l-9 -12c-3 1 -8 8 -13 18c-4 5 -14 12 -29 22v21l4 13
c1 4 2 10 3 17c-1 5 -1 12 -1 20c2 11 6 22 13 33c7 28 31 61 70 99c25 25 55 53 89 85c25 23 58 59 99 107c5 10 8 22 8 35c0 31 -9 57 -27 77c-6 7 -33 29 -80 67c-24 19 -46 36 -67 50c-14 13 -33 33 -58 60c-1 4 -6 15 -15 32c-5 11 -8 21 -8 29c0 17 6 39 17 67
c6 16 16 40 29 71c19 31 45 66 78 103c13 15 27 30 40 45c15 17 21 32 21 44c0 30 -13 52 -40 67c-1 9 -2 13 -2 13c-3 4 -7 7 -12 8c-37 5 -59 8 -68 8c-12 0 -21 -3 -26 -10c-6 2 -15 3 -27 5l-41 -10s-1 0 -3 2c-2 1 -4 1 -6 1c7 0 -19 -7 -78 -21c-1 -1 -6 -5 -13 -12
c-2 1 -6 1 -12 -1c-31 -13 -52 -30 -62 -51c-7 -15 -11 -35 -10 -59l17 -608c4 -17 5 -33 4 -48c-4 -8 -6 -27 -6 -58c0 -1 3 -12 8 -31c6 -19 9 -30 9 -31v-26c-1 -1 -8 -6 -19 -15c-8 -6 -12 -11 -11 -15c1 3 -1 5 -5 5h-6c-8 -8 -14 -18 -19 -30c-4 1 -9 7 -16 17
c1 -3 0 -5 -4 -5h-6c1 2 0 7 -2 16c-4 7 -11 17 -19 30l-40 398l-5 183l-20 304c-2 27 6 58 22 94c15 32 35 57 58 73c85 37 153 60 206 69c16 6 35 9 58 10l122 7c7 0 28 -2 63 -8c5 -3 14 -6 26 -11c90 -66 140 -128 149 -187c1 -10 3 -18 4 -24s2 -10 2 -13
c1 -2 1 -2 1 -1v-60c0 -18 -9 -38 -26 -61c-1 -3 -4 -5 -9 -7l5 -5c-5 -3 -9 -10 -14 -21c-1 2 -3 3 -5 3c-8 -7 -12 -13 -12 -16c1 -1 2 -1 4 -1c1 0 2 0 4 1c-2 -4 -6 -10 -11 -19c-10 -8 -15 -14 -15 -19c0 -1 0 -2 1 -3c-10 -9 -25 -22 -45 -38c-14 -21 -28 -44 -43 -69
v-12c12 -11 38 -32 77 -64c16 -13 41 -31 71 -59c29 -26 46 -47 54 -60c11 -17 21 -42 31 -76s15 -61 15 -81z" />
    <glyph glyph-name="onesuperior" unicode="&#xb9;" horiz-adv-x="182" 
d="M154 828l-6 -124c-1 -10 -2 -23 -4 -40c0 -1 1 -2 3 -4l-15 -140l-25 -137l-3 -5c-4 0 -7 1 -9 3l-3 -3h-9l-6 -9c-10 2 -15 3 -16 3l-23 28c-1 0 -1 -1 -2 -1c-2 1 -3 1 -4 2c1 1 1 2 2 4l4 -3l3 4c-1 3 -3 5 -8 7v42c1 4 2 8 5 11v20l2 2l7 14c1 15 2 23 1 25
c1 6 2 13 3 20c0 0 2 8 5 24c0 1 0 1 -1 2l-2 2c5 9 8 18 10 27v6c0 5 0 11 3 17c1 28 2 41 3 38l6 18c1 2 1 5 1 7c0 5 -1 11 -3 18l7 162c-1 4 0 10 2 19c3 2 8 6 13 13l3 -3l2 5h7c0 -1 5 -3 15 -7c2 -1 5 -4 7 -8c18 -5 27 -25 25 -59z" />
    <glyph glyph-name="logicalnot" unicode="&#xac;" horiz-adv-x="1100" 
d="M1049 375l-8 -85v-219c-3 5 -8 10 -15 15c-6 -7 -13 -17 -20 -29c-5 -6 -10 -9 -15 -9c-2 0 -4 1 -6 3l-4 -4v-18c-1 1 -8 3 -21 7c2 0 -1 -2 -10 -5c-10 5 -22 7 -35 7c-5 0 -8 -1 -10 -2c-9 4 -15 7 -17 8c-7 6 -11 14 -12 25c-11 5 -19 15 -22 29c-1 4 -3 17 -5 39
l2 91l10 94c-1 2 -4 6 -7 12c-11 0 -19 1 -23 2l-20 -5l-149 8c-1 0 -4 -1 -8 -3c-3 -1 -6 -2 -7 -2c-2 0 -3 1 -5 2c-2 2 -4 3 -5 3h-15c-2 -3 -6 -4 -13 -4c-1 1 -3 1 -4 1c-2 0 -4 0 -7 -2c-4 1 -9 2 -14 5c-10 -3 -17 -5 -22 -5l-93 12l-234 5c-10 0 -20 2 -30 3
c-21 2 -34 3 -41 3c-21 5 -38 10 -51 17l-43 41c-1 6 -5 16 -10 30c2 9 4 17 6 23c10 34 33 52 67 54l71 -10h28l335 -19l309 -4c1 0 8 2 20 7c12 4 18 6 20 6c29 0 54 -7 75 -22c10 -13 26 -28 50 -47c0 -1 -1 -5 -1 -11c-1 -6 -1 -10 -1 -11c7 -11 10 -23 10 -36z" />
    <glyph glyph-name="mu" unicode="&#xb5;" horiz-adv-x="1269" 
d="M783 635c-3 9 -5 15 -5 19l-58 62l-13 -2l-111 52c-3 -4 -10 -5 -22 -3c-16 4 -27 5 -32 3l-48 10h-24c0 -2 1 -4 3 -5l-5 -5c-17 0 -31 -2 -42 -7c-60 -53 -89 -139 -86 -256l-8 -86l18 -133l206 1c1 0 7 1 16 3c10 2 15 4 17 4h7l5 -7c8 6 15 9 21 9c1 0 4 -1 6 -2
s4 -2 5 -2l75 17c17 141 42 251 75 328zM1226 567v20c0 16 -7 38 -21 67c-4 3 -9 8 -14 14h-13c-3 8 -17 19 -43 32c-9 -6 -13 -8 -13 -9c-34 9 -60 13 -79 13c-28 0 -46 -3 -54 -9c-45 -33 -81 -99 -107 -198c-8 -18 -14 -46 -19 -83c-6 -47 -11 -73 -12 -80
c3 -6 6 -11 8 -13h19c0 4 0 7 1 8c3 -5 7 -8 14 -8c1 0 7 2 17 7c11 4 16 6 18 6c0 4 1 6 2 8l13 -3c0 2 1 3 2 4c2 0 5 -1 10 -1c-4 0 -6 1 -6 2s0 2 1 2h13l7 8c3 -4 7 -6 10 -6c11 6 27 14 48 25c22 4 39 10 50 17c27 10 54 30 82 58c33 35 53 70 59 104c2 6 4 11 7 15z
M1271 680v-58l-7 -61c0 -2 -4 -10 -12 -23c-1 -14 -2 -24 -4 -32c-8 -9 -12 -22 -12 -38c-32 -39 -54 -65 -66 -78c-26 -27 -51 -46 -75 -58c-7 -8 -23 -18 -46 -28c-26 -12 -44 -22 -54 -29c-9 -9 -23 -20 -40 -30c-17 -4 -40 -12 -69 -26c3 -5 8 -8 14 -8h230l71 -10
c1 -5 8 -11 21 -19c4 -6 9 -15 17 -27c-3 -2 -6 -6 -11 -10c-2 -3 -3 -8 -3 -14c0 -4 0 -9 1 -13c-16 -10 -29 -23 -40 -39c-25 -6 -69 -15 -131 -26c-3 2 -11 2 -23 2c-28 -2 -70 -6 -127 -13c-8 -6 -13 -13 -14 -21c3 -10 5 -20 5 -29c0 -32 -14 -53 -41 -64
c0 -7 0 -12 -3 -15h-8c-7 7 -11 11 -14 11c-3 -4 -5 -7 -5 -11c-1 1 -8 3 -21 8c-15 22 -25 33 -30 33l-35 75c-4 0 -9 -1 -15 -3c1 3 0 4 -4 4h-6l-82 -11h-31c-2 5 -8 9 -20 14l-26 49c2 11 5 23 11 35c6 11 9 17 9 17v9c0 3 -4 5 -11 5c-4 0 -14 -1 -28 -4
c-15 -2 -22 -3 -22 -3h-37c-19 0 -41 -6 -67 -18v-13l28 -104c1 -32 -10 -50 -33 -57c-3 -6 -8 -11 -14 -16c-1 2 -5 5 -10 7c-2 -3 -5 -7 -9 -12c-2 0 -9 2 -22 8c-39 46 -73 104 -101 174l-11 11l-120 -6c-4 0 -27 3 -67 8c-13 4 -23 12 -30 26c1 2 1 4 1 6l-20 16v32
c20 38 32 60 36 65c9 9 25 13 48 13l115 -3l4 5l-8 129l3 89l15 109c15 116 69 212 160 289c38 17 70 25 95 25c-8 0 11 -1 59 -3c20 -7 36 -10 48 -10c14 -5 35 -12 63 -21c15 -8 46 -26 95 -55l44 -43c8 -12 23 -36 45 -73c5 8 14 18 26 32c22 34 49 61 82 83
c28 19 54 29 77 29h10c4 2 9 3 16 3l105 -12c8 -4 22 -12 43 -24c11 -6 22 -17 34 -32c6 -8 17 -25 33 -52c14 -32 21 -54 21 -66z" />
    <glyph glyph-name="trademark" unicode="&#x2122;" horiz-adv-x="872" 
d="M845 718l3 -86c2 -59 -10 -108 -36 -148l-39 -8c-12 11 -25 19 -38 26c-10 27 -15 49 -15 64v36c-1 3 -3 6 -6 10l-70 -98c-2 0 -8 -1 -18 -3c-4 -3 -16 -8 -37 -16v3c-15 7 -30 15 -47 26c-2 4 -16 26 -42 68c-9 27 -22 48 -41 62c-8 -15 -15 -41 -19 -80
c-4 -36 -12 -63 -24 -80c-9 -3 -20 -7 -35 -13c-8 5 -14 8 -18 8c-3 0 -6 -1 -7 -3c-1 1 -7 6 -17 16c-7 7 -13 10 -19 10c-3 7 -5 15 -5 25c0 2 0 5 1 9v10c0 11 -2 20 -7 27c3 3 5 6 5 8v37l18 88v27h-7c-1 2 -2 3 -4 3c-1 0 -1 0 -2 -1c-1 0 -7 0 -18 -2
c-11 -1 -19 -1 -23 -1c-7 -7 -11 -24 -11 -49l-8 -70l-25 -96l-13 -10v-13l-10 2c-6 -3 -12 -5 -18 -5c-13 0 -19 1 -19 2c0 0 0 1 1 1c-4 8 -12 17 -23 28c-1 5 -6 32 -15 83v97c-14 8 -25 12 -34 12h-34v6c-7 3 -18 8 -32 15c-1 1 0 3 2 6c-1 3 -4 8 -9 14
c-1 5 -4 16 -8 33c-4 15 -6 23 -6 24c0 17 9 33 26 49c6 3 15 7 28 12c54 11 94 17 118 19l187 10c19 8 33 12 42 12c19 0 41 -13 64 -38c21 -22 35 -44 41 -65l77 -127c13 13 40 38 79 77c7 9 17 23 31 43c4 11 11 27 21 47c7 9 16 13 26 13c7 0 23 -4 48 -12
c17 -17 29 -40 34 -70c3 -16 6 -41 7 -74z" />
    <glyph glyph-name="Eth" unicode="&#xd0;" horiz-adv-x="1238" 
d="M1248 548c0 -17 -9 -41 -26 -70s-34 -50 -51 -64c-1 -1 -3 -6 -7 -13c-21 -8 -37 -19 -46 -36c-15 -9 -33 -24 -56 -45c-6 -2 -15 -6 -26 -11c-2 -4 -10 -16 -23 -37l-55 -29c-1 1 -3 2 -4 2l-176 -124c-13 -4 -32 -18 -58 -42c-12 -6 -20 -11 -26 -16
c-34 -20 -53 -31 -55 -41c-15 0 -36 -13 -63 -38c-6 -2 -24 -10 -54 -25c-1 -2 -3 -6 -5 -11c2 0 -4 -3 -18 -8c-4 -2 -6 -4 -7 -9c-4 -1 -10 -6 -17 -15c-6 -3 -12 -4 -17 -4l-22 -30h-7l-34 -29h-7l-146 -117c-5 2 -13 2 -22 2c-1 0 -5 -1 -12 -3c-7 -3 -11 -4 -12 -4h-9
c-3 3 -7 8 -13 14c-3 0 -9 2 -19 5c-6 12 -10 22 -11 29c-5 -1 -10 0 -16 2c-1 5 1 10 4 13c-2 5 -6 10 -11 15c0 3 2 7 5 10c-1 11 -2 17 -2 18c3 1 9 9 20 22c33 25 75 54 126 87c18 18 43 35 75 52c25 23 49 41 74 54c14 14 39 32 74 54c2 2 5 5 9 10
c38 28 93 63 165 105c28 23 68 52 119 88c7 1 23 10 48 27c164 109 250 191 258 246c-13 20 -33 39 -61 57c-41 26 -67 44 -78 54c-2 0 -4 -1 -6 -2c-4 0 -9 2 -16 8c-3 1 -15 4 -36 9c-28 18 -61 28 -99 31c-24 13 -36 20 -38 20c-1 0 -4 0 -9 -1s-7 -1 -8 -1l-103 18
l-14 -3c-7 8 -21 12 -41 12l-93 9c-7 0 -16 -2 -27 -5c-3 -1 -7 2 -12 7h-8c-5 0 -15 -3 -28 -9h-37c-2 0 -4 0 -8 2c-3 1 -5 2 -5 2l-69 -13l-4 -4l-13 -247l4 -6h24l65 9h100l70 -18c8 -17 19 -27 30 -32v-17c-4 -9 -7 -14 -7 -16c-8 -1 -15 -4 -23 -11c1 -2 4 -3 7 -3
c-3 -7 -6 -11 -7 -12c-2 -3 -8 -5 -16 -7c-9 -2 -13 -6 -13 -12l-46 -3l-153 -29h-9c-14 0 -23 -3 -28 -11l-9 -75c1 -3 3 -10 6 -21l9 -228l-13 -11c1 -4 -2 -10 -9 -18c1 -5 -2 -12 -7 -20l-12 -15l-9 3c-1 -2 -5 -5 -14 -10l-3 3h-22c-2 5 -6 12 -11 20
c-3 -3 -4 -5 -4 -7l-37 41c0 14 0 18 1 14c0 2 -2 7 -5 15c-2 7 -3 11 -3 13v33l-4 261c-2 -1 -10 -1 -24 -1c3 0 -11 3 -41 10c-3 2 -8 5 -14 9c-5 11 -14 25 -25 43c-3 7 -5 14 -5 21c0 1 1 4 3 11c1 7 2 11 2 14c6 10 12 16 18 20c8 5 25 8 49 11c25 2 40 5 45 7l9 88v31
l12 135c0 8 -2 16 -7 24c-12 1 -20 2 -24 3c-10 2 -19 7 -28 16c0 0 -1 4 -3 11c-1 7 -2 11 -2 14c-10 11 -15 19 -15 24c0 3 1 6 3 10c2 10 3 17 5 21c4 11 10 18 17 22c55 8 92 12 111 12l79 9h27l76 3l140 -5l142 -25c6 1 9 2 9 2c22 -5 35 -7 39 -7
c31 -8 79 -21 142 -39c25 -10 62 -26 110 -46c8 -3 24 -8 45 -15c58 -28 108 -62 149 -102c49 -48 73 -94 73 -139z" />
    <glyph glyph-name="onehalf" unicode="&#xbd;" horiz-adv-x="851" 
d="M657 775c-1 -2 -4 -10 -9 -23c-3 -2 -5 -5 -8 -8l3 -4l-6 -12c-3 -3 -8 -6 -15 -10c0 -2 0 -3 2 -3c-3 -1 -5 -3 -5 -8c-1 0 -2 1 -3 3c-2 -2 -8 -7 -18 -16v-2h4c-2 -2 -5 -6 -8 -12l-6 2c-8 -5 -12 -11 -12 -18c-1 0 -2 -1 -4 -2c-2 0 -3 -1 -3 -1c1 -2 2 -3 2 -5
c-3 0 -6 -1 -10 -1c-3 -4 -10 -10 -20 -17c0 -3 0 -5 2 -7l-45 -36c0 -4 -4 -11 -13 -19c-8 -8 -13 -14 -14 -19c-3 -2 -8 -5 -15 -10v-5l-17 -11v-12c-5 -4 -13 -10 -25 -17c0 -1 -1 -4 -1 -7c-5 -3 -11 -8 -18 -15c0 -5 -1 -9 -3 -10c-11 -4 -18 -11 -20 -22
c-7 -3 -14 -11 -22 -22c-13 -4 -19 -10 -18 -19c-11 -1 -18 -7 -20 -18c-4 -2 -7 -6 -9 -13c-4 -1 -9 -5 -15 -13c-6 -7 -11 -11 -15 -11c-1 -3 -1 -5 -1 -6l-88 -93c-1 -4 -1 -8 -1 -12c-5 -9 -13 -21 -24 -36c-2 -2 -11 -7 -28 -13c2 -1 4 -3 8 -6c-4 0 -13 -4 -29 -13
l-8 2c-1 1 -2 3 -5 4c-2 0 -3 -2 -4 -5l-5 3c-3 -3 -5 -4 -8 -3c-7 2 -7 8 -1 17c-7 3 -13 8 -18 14c2 1 5 5 10 11c0 5 -2 13 -5 22l12 27l11 11c9 14 24 34 45 59c2 0 6 5 13 15c5 5 13 13 24 22c1 1 3 5 7 11c10 9 42 41 98 96c1 1 1 3 2 6c11 8 25 21 42 38
c31 33 79 80 143 142c7 11 28 33 61 68c1 3 4 7 7 12c10 10 23 26 40 47c1 2 3 5 5 9c7 8 22 20 46 37l11 -3c4 -1 8 -3 9 -6c14 -25 18 -43 15 -54zM827 80v-20l-24 -12c-4 -1 -10 -2 -17 -3h-19c1 0 0 -1 -5 -3h-46l-69 -10c-4 -1 -8 0 -11 1l-105 -23l-86 -10
c-22 0 -36 9 -43 26c-5 4 -7 9 -7 14v18c8 10 14 17 18 21c33 30 67 62 102 96c5 4 28 33 70 85c41 63 62 110 62 140c0 19 -13 28 -38 28l-71 -20c-1 0 -2 0 -4 1l-62 -33c0 -3 -1 -5 -2 -7l-5 1l-35 -20c-7 -1 -12 -1 -17 0c-1 3 -5 8 -12 17c0 1 -1 4 -2 8s-2 7 -2 7
c0 2 0 4 1 7v9c9 5 18 11 27 20c19 12 37 22 52 30c54 29 102 43 144 43c17 0 36 -6 56 -18c23 -13 34 -29 35 -47c3 -11 5 -15 5 -12v-18c0 9 -1 1 -4 -23c-4 -39 -38 -104 -100 -196c-11 -9 -21 -21 -30 -36c-3 -3 -8 -9 -15 -17c-10 -9 -22 -20 -35 -34l3 -2l175 24
l46 -1l36 -6c15 -2 26 -8 32 -15c0 -2 0 -3 -1 -5c1 -1 2 -3 3 -5zM154 828l-6 -124c-1 -10 -2 -23 -4 -40c0 -1 1 -2 3 -4l-15 -140l-25 -137l-3 -5c-4 0 -7 1 -9 3l-3 -3h-9l-6 -9c-10 2 -15 3 -16 3l-23 28c-1 0 -1 -1 -2 -1c-2 1 -3 1 -4 2c1 1 1 2 2 4l4 -3l3 4
c-1 3 -3 5 -8 7v42c1 4 2 8 5 11v20l2 2l7 14c1 15 2 23 1 25c1 6 2 13 3 20c0 0 2 8 5 24c0 1 0 1 -1 2l-2 2c5 9 8 18 10 27v6c0 5 0 11 3 17c1 28 2 41 3 38l6 18c1 2 1 5 1 7c0 5 -1 11 -3 18l7 162c-1 4 0 10 2 19c3 2 8 6 13 13l3 -3l2 5h7c0 -1 5 -3 15 -7
c2 -1 5 -4 7 -8c18 -5 27 -25 25 -59z" />
    <glyph glyph-name="plusminus" unicode="&#xb1;" horiz-adv-x="651" 
d="M664 52h-11c-5 -8 -12 -19 -22 -33l2 -4c2 -3 3 -5 3 -7v-22l-53 -15h-94c-3 0 -6 1 -9 5c-21 -9 -36 -13 -43 -13c-4 0 -13 2 -27 6c-4 1 -13 -2 -25 -8h-38l-98 -12c-1 -1 -8 -2 -21 -4c-1 0 -2 0 -2 -1s0 -2 1 -3c1 1 2 1 3 1c2 0 4 -1 6 -3c-20 0 -27 -1 -22 -2
c-3 3 -7 4 -13 4c-8 0 -13 -2 -16 -7l-20 2c-3 -1 -6 -4 -8 -8l-5 6c-5 -1 -14 -4 -25 -8c-11 5 -28 10 -51 13v8c-10 6 -23 18 -38 37c-1 11 2 19 8 24v9l-10 34l20 52c6 3 14 10 25 18l71 5c1 2 3 3 8 5l272 20h60l99 10l7 -12c1 0 2 1 4 2c7 -3 16 -6 27 -10l30 -61
c-3 -2 -6 -5 -10 -8c0 0 0 -2 1 -5s1 -6 1 -7c3 -1 7 -3 13 -8zM624 426c0 -3 -4 -5 -11 -4c-2 -1 -2 -4 -2 -7c-5 -2 -14 -6 -25 -12c0 -2 1 -3 2 -4l10 3l8 -6c2 -1 3 -3 3 -4h-9c-1 0 -4 1 -8 2c-4 2 -6 3 -8 3c-1 0 -6 -1 -15 -4c-10 -2 -15 -4 -18 -4v-9
c-18 -5 -26 -8 -24 -8h-54l-60 -13s1 -3 1 -9c-3 -4 -9 -6 -16 -6c-8 -16 -12 -43 -12 -84v-50c-12 -9 -21 -14 -26 -14c-4 0 -6 1 -8 3c-3 -4 -8 -9 -15 -15c-1 5 -6 13 -15 25c-8 1 -18 2 -30 2c-7 11 -13 17 -18 18c-6 10 -10 26 -10 46v52c-4 1 -10 4 -17 7l-55 -10
c-2 0 -4 -1 -7 -1c-12 0 -23 7 -33 19c4 0 -4 -3 -23 -8c0 2 2 4 4 6l-50 47v9c7 5 10 11 11 19c1 9 -2 15 -8 20v10c5 5 8 16 10 33c9 21 31 31 66 31h45l85 13c3 3 5 5 6 7c5 13 9 32 13 56c5 36 8 55 8 59c5 10 16 22 33 35h10c3 0 19 -20 51 -60c0 -1 1 -6 3 -13
s3 -11 3 -13v-47c9 -6 17 -9 24 -9h55l55 -10c4 -3 14 -8 30 -15c11 -5 17 -11 17 -19c0 -2 -1 -4 -1 -7c7 -20 13 -35 20 -45c-3 -6 -5 -9 -5 -8c4 -2 7 -4 10 -7z" />
    <glyph glyph-name="Thorn" unicode="&#xde;" horiz-adv-x="756" 
d="M603 369c0 19 -17 45 -50 78s-62 51 -86 55c-40 20 -80 29 -120 27c-4 5 -14 7 -30 7c-24 0 -36 0 -37 -2h1c-3 -2 -6 -5 -10 -8c-6 0 -11 2 -14 5c-7 -3 -16 -8 -28 -15c-1 0 -6 1 -16 3c-3 -4 -6 -13 -10 -26l13 -342h8l98 43c1 0 3 -1 7 -1c3 -1 5 -2 6 -2
c17 0 66 24 148 71c26 15 55 36 87 64c22 19 33 33 33 43zM766 346c0 -11 -4 -23 -12 -39c-3 -29 -29 -58 -79 -87c-2 -1 -6 -6 -13 -15c0 -1 -10 -6 -29 -16c-18 -11 -34 -23 -48 -38c-5 -1 -17 -7 -33 -19c-10 -1 -22 -6 -36 -15c-6 -4 -16 -11 -29 -18
c-12 -7 -47 -24 -106 -53c-43 -21 -79 -33 -109 -34c-14 -3 -33 -9 -57 -18c0 -3 -1 -6 -2 -7c3 -3 5 -6 7 -10c-1 -7 -1 -13 -1 -18c0 -10 1 -19 4 -25c-3 -11 -5 -22 -5 -32c0 -2 1 -7 4 -15c3 -10 4 -16 5 -18c-3 -17 -4 -29 -4 -34v-48l12 -123s-1 -6 -4 -17
c-3 -12 -4 -20 -4 -24c-2 -3 -5 -7 -10 -13c-2 1 -4 2 -6 2c-3 0 -9 -3 -19 -9c-10 -5 -16 -8 -18 -8c-7 -9 -13 -14 -18 -15c-1 2 -4 8 -8 18c0 1 -4 4 -12 7c-3 0 -7 -2 -12 -7c-9 6 -22 14 -41 25c-1 5 -6 16 -13 31c4 7 6 12 5 16l-7 33c-1 1 -4 2 -7 2
c-5 6 -10 15 -17 28c-4 3 -9 7 -16 13v343c0 4 4 9 10 16l-3 103c0 11 4 31 13 59l-5 15v58c0 1 2 8 6 22c3 13 6 22 6 25c-1 2 -1 3 -1 5s1 5 3 8c-1 2 -1 5 -1 8c0 5 1 12 4 20c-1 14 -5 35 -10 62c3 6 5 11 5 15l3 266l12 73c7 28 23 45 46 51c11 -3 18 -5 22 -7
c10 -5 16 -11 20 -18c17 -10 26 -27 27 -51l5 -138c9 -5 15 -7 19 -7l74 5c6 1 11 1 17 1c50 0 119 -15 207 -44c52 -17 109 -54 170 -111c56 -51 83 -103 82 -155c5 -7 7 -15 7 -24z" />
    <glyph glyph-name="onequarter" unicode="&#xbc;" horiz-adv-x="883" 
d="M467 236l2 2h-7zM863 287c0 1 -2 -1 -5 -4c1 -1 3 -2 4 -5c-4 -7 -12 -14 -25 -23l-70 1c-18 -18 -28 -43 -30 -76c-1 -26 -1 -53 -1 -82l1 -62c-5 -1 -7 -4 -6 -9c-5 -3 -14 -6 -25 -11c-3 3 -7 4 -10 4c-4 0 -6 0 -7 -1c-2 1 -8 7 -19 18c1 4 2 5 2 5h-6l-8 16v66
l19 127l-2 2h-11l-4 -2c-3 -1 -4 -1 -5 -1l-58 -6c-2 1 -5 1 -11 1l-49 -7c-3 1 -5 2 -8 2l-12 -2h-26c-1 0 -2 -1 -4 -3c-1 2 -4 3 -7 3c-5 -3 -10 -5 -13 -5c-15 0 -20 0 -15 1c-6 3 -8 4 -7 4l-6 -1c-4 1 -11 5 -20 12c-3 14 -11 23 -24 27c2 3 3 11 4 26
c14 26 34 65 61 117v5l75 145c3 1 7 3 13 4c4 -3 8 -5 12 -6c0 -3 7 -12 21 -27v-8c1 -4 1 -6 1 -7c0 -20 -14 -59 -42 -115l-44 -87l-3 -6v-6h24l109 7l75 10c3 12 9 34 19 66c10 34 32 91 66 170c6 8 15 16 25 24h5c-4 0 1 -2 15 -5c-1 -6 5 -14 17 -24c2 -10 3 -15 3 -14
c-2 -11 -3 -16 -3 -15c-11 -17 -24 -49 -39 -98c-11 -34 -20 -68 -28 -101l3 -3h27c24 0 41 -14 52 -41zM657 775c-1 -2 -4 -10 -9 -23c-3 -2 -5 -5 -8 -8l3 -4l-6 -12c-3 -3 -8 -6 -15 -10c0 -2 0 -3 2 -3c-3 -1 -5 -3 -5 -8c-1 0 -2 1 -3 3c-2 -2 -8 -7 -18 -16v-2h4
c-2 -2 -5 -6 -8 -12l-6 2c-8 -5 -12 -11 -12 -18c-1 0 -2 -1 -4 -2c-2 0 -3 -1 -3 -1c1 -2 2 -3 2 -5c-3 0 -6 -1 -10 -1c-3 -4 -10 -10 -20 -17c0 -3 0 -5 2 -7l-45 -36c0 -4 -4 -11 -13 -19c-8 -8 -13 -14 -14 -19c-3 -2 -8 -5 -15 -10v-5l-17 -11v-12
c-5 -4 -13 -10 -25 -17c0 -1 -1 -4 -1 -7c-5 -3 -11 -8 -18 -15c0 -5 -1 -9 -3 -10c-11 -4 -18 -11 -20 -22c-7 -3 -14 -11 -22 -22c-13 -4 -19 -10 -18 -19c-11 -1 -18 -7 -20 -18c-4 -2 -7 -6 -9 -13c-4 -1 -9 -5 -15 -13c-6 -7 -11 -11 -15 -11c-1 -3 -1 -5 -1 -6
l-88 -93c-1 -4 -1 -8 -1 -12c-5 -9 -13 -21 -24 -36c-2 -2 -11 -7 -28 -13c2 -1 4 -3 8 -6c-4 0 -13 -4 -29 -13l-8 2c-1 1 -2 3 -5 4c-2 0 -3 -2 -4 -5l-5 3c-3 -3 -5 -4 -8 -3c-7 2 -7 8 -1 17c-7 3 -13 8 -18 14c2 1 5 5 10 11c0 5 -2 13 -5 22l12 27l11 11
c9 14 24 34 45 59c2 0 6 5 13 15c5 5 13 13 24 22c1 1 3 5 7 11c10 9 42 41 98 96c1 1 1 3 2 6c11 8 25 21 42 38c31 33 79 80 143 142c7 11 28 33 61 68c1 3 4 7 7 12c10 10 23 26 40 47c1 2 3 5 5 9c7 8 22 20 46 37l11 -3c4 -1 8 -3 9 -6c14 -25 18 -43 15 -54zM154 828
l-6 -124c-1 -10 -2 -23 -4 -40c0 -1 1 -2 3 -4l-15 -140l-25 -137l-3 -5c-4 0 -7 1 -9 3l-3 -3h-9l-6 -9c-10 2 -15 3 -16 3l-23 28c-1 0 -1 -1 -2 -1c-2 1 -3 1 -4 2c1 1 1 2 2 4l4 -3l3 4c-1 3 -3 5 -8 7v42c1 4 2 8 5 11v20l2 2l7 14c1 15 2 23 1 25c1 6 2 13 3 20
c0 0 2 8 5 24c0 1 0 1 -1 2l-2 2c5 9 8 18 10 27v6c0 5 0 11 3 17c1 28 2 41 3 38l6 18c1 2 1 5 1 7c0 5 -1 11 -3 18l7 162c-1 4 0 10 2 19c3 2 8 6 13 13l3 -3l2 5h7c0 -1 5 -3 15 -7c2 -1 5 -4 7 -8c18 -5 27 -25 25 -59z" />
    <glyph glyph-name="divide" unicode="&#xf7;" horiz-adv-x="995" 
d="M32 178c0 1 -2 3 -6 7c5 -2 7 -4 6 -7zM589 127l13 -59c-2 -14 -20 -36 -54 -68c-1 0 -3 0 -7 -1s-7 -1 -8 -1c-3 -5 -7 -10 -12 -13c-23 0 -39 -1 -46 -2c-3 4 -6 11 -10 22l-10 -2c-4 9 -11 21 -20 38v31c4 3 10 10 19 22c0 3 -2 6 -5 10c5 10 15 24 29 43
c4 11 12 19 25 23c7 2 17 4 30 8c24 -8 43 -25 56 -51zM1000 356v-57c-5 -3 -13 -7 -23 -13c0 1 1 1 1 1c1 -1 1 -5 1 -11c-23 -3 -42 -6 -58 -11c-10 -9 -18 -14 -25 -14l-153 -3l-438 -40c-1 0 -5 0 -11 1s-10 1 -12 1c0 0 -7 0 -22 -2c-14 -1 -25 -1 -30 -1
c-22 -5 -30 -7 -25 -7c-1 0 -3 1 -6 2s-5 1 -7 1c-9 0 -22 -3 -41 -10v-12c-7 -1 -13 2 -17 10c-8 -8 -13 -12 -15 -12h-66l-2 -2l7 -7h13c-7 -4 -13 -5 -19 -5c-3 0 -6 0 -9 1c3 9 8 15 13 19c-2 4 -6 6 -12 6c1 5 2 12 2 23c-3 2 -10 7 -22 15c-9 6 -12 11 -10 16
c3 3 9 10 19 22c1 3 -2 7 -7 12v13c0 4 6 13 17 26c10 12 17 19 21 22c10 0 25 2 44 6l24 -5c6 0 17 0 35 2l349 28c13 1 27 3 42 5l157 2l23 5h27l179 30c2 -1 5 -4 10 -7h14c-3 0 3 -4 16 -11zM614 510v-16c-5 -5 -8 -8 -9 -10c0 -9 -4 -18 -12 -28
c-8 -11 -17 -16 -25 -16c-13 -9 -18 -14 -16 -14h-40c-3 3 -9 13 -17 30c-1 0 -6 -1 -13 -2l-13 35v17c4 0 7 1 10 4c-1 0 -5 3 -10 8c3 0 5 -1 6 -2c8 16 20 39 35 70c7 5 18 12 33 22c11 -1 26 -6 45 -14c16 -14 24 -31 24 -50c0 -6 -1 -12 -2 -19c2 -7 4 -12 4 -15z" />
    <glyph glyph-name="brokenbar" unicode="&#xa6;" horiz-adv-x="224" 
d="M169 264l5 -123v-23c-1 -10 -1 -16 -1 -18c1 -1 2 -2 3 -4l-3 -140l-12 -139l-3 -5c-4 -1 -7 0 -9 2l-3 -3l-9 -1c-1 -2 -2 -5 -5 -10c-10 1 -15 2 -16 2l-26 26c-1 -1 -2 -1 -2 -1c-1 0 -2 0 -3 1l2 4l3 -2l4 4c-1 3 -4 5 -9 6l-4 43c1 4 2 8 4 11l-2 20l2 2
c1 3 3 7 6 14c0 1 -1 9 -1 26v20c1 0 2 0 3 1c-1 13 0 21 1 23c-1 1 -2 2 -3 4c3 9 6 18 7 28l-1 1v5c-1 5 0 10 2 17v37c0 4 2 11 5 19c0 7 -2 15 -5 25l-7 162c-1 2 -1 5 -1 8s0 7 1 11c2 2 4 3 6 3l6 12l3 -3l2 5h6l16 -5c3 -1 5 -4 8 -8c18 -4 28 -23 30 -57zM164 847
l5 -123v-23c-1 -10 -1 -16 -1 -18c1 -1 2 -3 3 -4l-2 -140l-12 -139l-3 -5c-5 -1 -8 0 -10 2l-2 -3l-10 -1c-1 -2 -2 -6 -5 -10l-15 2l-27 26c-1 -1 -1 -1 -2 -1s-2 0 -3 1l2 4l3 -2l4 4c-1 3 -4 5 -9 6l-4 43c0 4 2 8 4 11l-2 20l3 1c0 3 2 8 5 15c0 1 0 9 -1 26
c0 4 0 10 1 20l2 1c0 13 0 21 1 23c-1 1 -2 2 -3 4c3 9 6 19 7 28l-1 1v4c-1 5 0 11 3 18c0 8 0 20 -1 37c1 5 2 11 5 19c0 7 -2 16 -5 25l-7 162c0 2 -1 5 -1 8s1 6 1 11c2 2 4 3 6 3l6 12l3 -3l2 4l6 1l16 -5c3 -1 5 -4 8 -8c19 -4 29 -23 30 -57z" />
    <glyph glyph-name="degree" unicode="&#xb0;" horiz-adv-x="336" 
d="M267 710c0 3 0 6 -1 9s-1 5 -1 5c-13 9 -30 13 -53 13c-21 0 -32 -1 -33 -2c0 0 1 -1 2 -1c-11 -17 -17 -27 -17 -29c0 -11 16 -16 48 -16c7 0 17 2 30 7c15 5 23 10 25 14zM360 669l-5 -46c-4 -7 -11 -15 -20 -25c-10 -5 -23 -13 -41 -23c-4 0 -11 -1 -21 -3
s-16 -3 -17 -3c-20 0 -35 -1 -45 -2c-1 0 -2 -1 -3 -1c-3 0 -6 3 -8 8c-24 0 -37 -1 -38 -2c-1 1 -2 2 -2 3l-70 35c-7 8 -19 23 -34 43c-16 40 -24 69 -24 86c0 16 7 28 21 37c3 3 9 4 17 4c6 17 19 39 40 66c17 6 27 9 31 9h56c2 -3 14 -10 37 -19c2 -2 15 -8 38 -20
c8 -9 20 -22 37 -39l30 -54c14 -25 21 -43 21 -54z" />
    <glyph glyph-name="thorn" unicode="&#xfe;" horiz-adv-x="659" 
d="M519 295c0 16 -13 36 -40 62c-26 26 -49 41 -69 44c-32 16 -64 23 -96 22c-3 4 -11 6 -24 6c-19 0 -29 -1 -30 -2h1c-2 -2 -5 -3 -8 -6c-5 0 -8 1 -11 4c-5 -3 -13 -7 -23 -12c1 0 -3 0 -12 2c-2 -3 -5 -10 -8 -21l10 -273h7l78 33c1 0 3 0 5 -1c3 -1 5 -1 6 -1
c13 0 53 19 118 57c20 12 44 29 70 51c17 15 26 26 26 35zM649 277c0 -9 -3 -19 -9 -32c-2 -23 -23 -46 -63 -69c-1 -1 -5 -5 -11 -13c-11 -4 -31 -18 -61 -42c-5 0 -14 -6 -27 -16c-9 -1 -18 -5 -29 -12c-5 -3 -13 -8 -23 -14c-9 -5 -38 -19 -85 -43
c-34 -17 -63 -26 -87 -27c-11 -2 -26 -7 -45 -14c0 -3 -1 -5 -2 -6c2 -2 4 -5 6 -8c-1 -6 -1 -11 -1 -15c0 -8 1 -14 3 -19c-3 -9 -4 -18 -4 -26c0 2 2 -7 7 -26c-2 -14 -3 -23 -3 -28v-38l10 -98c0 3 -3 -7 -8 -31c-1 -4 -3 -7 -7 -12c-1 1 -3 1 -5 1s-7 -2 -15 -7
c-7 -4 -12 -6 -14 -6c-5 -7 -10 -11 -15 -12c-1 2 -3 7 -6 14c-2 1 -5 3 -10 6c-2 0 -5 -2 -9 -6c-7 5 -18 11 -33 20c-1 5 -4 13 -10 25c3 5 4 10 4 13l-6 26c-1 1 -3 2 -6 2c-3 5 -8 12 -13 22c-3 3 -8 6 -13 11v274c0 3 3 8 8 13l-2 82c0 11 3 27 10 48c0 3 -2 6 -4 11
v46c0 2 2 8 5 18c3 11 5 17 5 20c-1 1 -1 3 -1 4c0 3 1 5 2 7c-1 2 -1 4 -1 6c0 5 1 10 4 16c-1 11 -4 28 -8 50c3 5 4 9 4 12l-6 270c6 36 10 56 12 61c7 21 18 34 35 38c5 -1 17 -9 37 -23c11 -7 17 -20 18 -38l12 -168c6 -4 11 -5 15 -5l59 4c41 2 101 -9 179 -35
c42 -14 87 -43 136 -88c45 -41 67 -82 66 -124c3 -6 5 -12 5 -19z" />
    <glyph glyph-name="threequarters" unicode="&#xbe;" horiz-adv-x="1014" 
d="M487 522c-2 -3 -8 -16 -19 -40l-53 -26s-17 -4 -52 -12c-3 -2 -7 -3 -12 -4c-48 -8 -73 -12 -75 -12h-17l-41 -5l-62 -2l-80 1c-7 3 -11 5 -12 5l-6 7h-4c-1 2 -5 7 -12 15c-1 4 -2 7 -4 10c0 -1 1 2 3 10c0 2 -1 4 -2 5c0 1 0 3 1 7c0 3 1 5 1 6c7 7 13 10 17 10l122 -1
l85 5s2 1 6 2s7 1 9 1c40 4 78 16 113 37c0 1 0 2 1 2c-5 13 -24 31 -57 56l-46 25c-11 4 -26 10 -46 17c-13 2 -23 4 -31 6c-8 1 -14 2 -17 3s-3 1 -1 1c-1 0 -2 0 -3 -1l-16 5c-1 0 -3 -1 -6 -3l-3 3l-48 6l-20 32v4c0 2 2 5 5 8l-2 3c1 2 1 4 1 7c0 2 0 4 -1 7l20 14
c1 -1 3 -1 5 -1c9 0 26 4 50 11c7 3 19 8 35 15c21 10 37 24 47 41c9 9 13 16 13 19v6c-6 6 -11 10 -15 11c-18 4 -33 6 -44 6c-5 0 -16 -1 -34 -4c-19 -5 -41 -14 -66 -27c-12 -6 -24 -13 -37 -19h-20l-14 15c1 2 1 5 1 8c-4 4 -7 6 -10 7c0 2 -1 5 -4 9c-4 0 -6 0 -7 -2
c0 3 0 4 1 5c-1 1 -2 3 -4 6l21 9c2 4 4 7 7 8c9 5 19 11 32 16c14 9 40 19 79 32c22 5 40 7 52 7c3 0 12 -1 30 -4c28 -4 55 -13 78 -27c21 -21 31 -36 29 -45c3 -3 4 -7 4 -12c0 -20 -6 -39 -17 -57c-14 -11 -34 -31 -61 -62c8 -8 19 -15 34 -20c22 -7 34 -11 37 -13
c10 -6 26 -16 50 -31c15 -10 34 -28 56 -55c24 -29 36 -51 36 -66zM605 155l1 2h-7zM1001 205c-2 -1 -3 -2 -5 -4c1 -1 2 -3 4 -5c-4 -6 -13 -14 -26 -23l-70 2c-19 -19 -29 -44 -30 -76s-1 -59 -1 -83l1 -61c-5 -2 -8 -5 -6 -10c-5 -3 -13 -6 -24 -11c-4 3 -8 4 -11 4
s-6 0 -7 -1c-1 1 -8 7 -19 18c1 4 2 6 2 5c-1 1 -3 1 -6 1l-7 15v67l18 126l-2 2h-11c-7 -2 -10 -3 -9 -3l-57 -6c-1 1 -5 1 -11 1l-49 -7c-3 2 -6 2 -9 2l-11 -2h-26c-1 0 -3 -1 -4 -3c-2 2 -5 3 -8 3c-5 -3 -9 -5 -13 -5c-15 0 -19 0 -14 1c-6 2 -8 4 -8 4l-5 -1
c-5 2 -11 6 -20 12c-4 14 -12 23 -24 27c1 3 3 11 4 26l60 117c1 1 1 3 1 5l74 145c3 1 8 3 13 4c4 -3 8 -5 13 -6c0 -3 7 -11 20 -27c0 -1 0 -4 1 -8v-7c0 -17 -14 -55 -42 -115c-26 -57 -40 -85 -43 -87c-1 0 -2 -2 -4 -6v-5h24l110 7l74 9c3 12 10 34 19 66
c10 32 32 89 67 170c6 8 14 16 25 24h5c-4 0 1 -1 14 -5c-1 -6 5 -14 18 -24c0 0 0 -3 1 -7s1 -6 1 -7c0 -6 -1 -11 -3 -15c-11 -18 -24 -51 -39 -98c-9 -30 -19 -64 -28 -101l4 -3h27c23 0 41 -14 52 -41zM794 693c0 -1 -4 -9 -9 -23c-3 -1 -5 -4 -8 -8l3 -4
c-1 -1 -3 -5 -6 -11c-3 -3 -8 -7 -15 -10c0 -2 1 -3 2 -4c-3 0 -5 -3 -5 -8c-1 0 -2 1 -3 3c-2 -2 -7 -7 -17 -16c-1 -1 -1 -1 0 -2h4c-2 -2 -5 -6 -8 -11l-6 1c-8 -5 -12 -11 -13 -18l-2 -1c-2 -1 -3 -1 -4 -2c1 -2 1 -3 1 -5c-2 -1 -5 -1 -10 -1c-3 -4 -9 -10 -20 -17
c0 -3 1 -5 2 -7l-44 -36c-1 -4 -5 -11 -13 -19c-9 -8 -13 -14 -14 -19c-4 -2 -9 -5 -16 -10c1 -1 1 -3 1 -5l-17 -11c-1 -1 -1 -5 0 -12c-5 -4 -13 -10 -25 -17c-1 -1 -1 -4 -2 -7l-18 -15c0 -5 -1 -8 -3 -9c-11 -4 -18 -12 -20 -23c-7 -3 -14 -11 -22 -22
c-13 -4 -18 -10 -17 -19c-12 -1 -19 -7 -20 -17c-5 -3 -8 -7 -10 -14c-4 -1 -9 -6 -15 -13c-7 -7 -11 -11 -15 -11c-1 -3 -2 -5 -1 -6l-87 -93c-2 -4 -2 -8 -2 -12c-5 -10 -13 -22 -24 -36c-1 -1 -11 -5 -28 -12c1 -1 4 -4 9 -7c-4 0 -14 -4 -30 -13l-7 2c-1 1 -3 3 -6 4
c-1 0 -2 -2 -3 -5l-6 3c-3 -2 -5 -3 -7 -3c-7 2 -8 8 -1 17c-7 3 -13 8 -18 14c2 1 5 5 9 11c1 5 -1 13 -5 22c3 7 7 16 12 27c3 2 6 6 11 11c9 15 25 33 46 59c0 0 3 3 8 9c7 8 16 18 28 28c0 1 3 5 7 11c10 9 43 41 98 96l3 6c12 10 26 22 41 38c41 41 88 89 143 143
c7 10 27 33 61 67c2 3 5 7 8 12c11 13 24 28 39 47c2 2 3 5 5 9c7 8 23 20 46 37l12 -3c4 -1 6 -3 8 -6c14 -25 19 -43 15 -54zM566 435l1 1z" />
    <glyph glyph-name="twosuperior" unicode="&#xb2;" horiz-adv-x="451" 
d="M473 505v-21l-24 -12c-1 0 -4 0 -9 -1c-4 -1 -7 -2 -8 -2h-19c-1 0 -1 0 -2 -1s-2 -1 -3 -1h-45l-70 -11c-4 0 -7 0 -11 1l-104 -23l-87 -9c-21 0 -36 9 -43 25c-5 4 -7 9 -7 14v18c6 8 12 15 19 21c22 20 55 52 101 96c4 5 28 33 71 85c41 64 61 111 61 141
c0 18 -12 27 -37 28l-71 -21c-1 1 -3 1 -5 1l-62 -33c0 -3 -1 -4 -2 -6l-5 1l-34 -21h-18c-1 3 -5 9 -12 18c0 1 -1 4 -2 8s-1 6 -1 7v7c1 4 1 7 1 8c8 5 17 12 26 20c10 6 27 16 52 30c53 29 101 43 144 43c18 0 37 -6 56 -17c23 -13 35 -29 36 -47c3 -11 4 -15 4 -12v-18
c0 5 -1 -2 -3 -23c-4 -39 -37 -105 -101 -196c-11 -10 -21 -22 -30 -36c-3 -4 -8 -10 -14 -17c-10 -9 -22 -20 -36 -35l3 -2l176 24l45 -1c22 -3 36 -6 41 -7c14 -4 23 -8 27 -14c0 -1 0 -3 -1 -5c1 -1 2 -2 3 -4z" />
    <glyph glyph-name="registered" unicode="&#xae;" horiz-adv-x="823" 
d="M230 379l28 270c0 1 0 6 -1 14c-2 8 -2 14 -2 16c-68 -59 -102 -121 -102 -186c0 -18 3 -38 10 -60c13 -15 36 -32 67 -54zM553 351c-8 1 -18 4 -31 7c-15 0 -32 5 -51 16c-24 12 -42 20 -54 24c-14 17 -27 31 -38 39l-18 -112l46 -8c8 0 15 2 20 5c10 -3 17 -5 21 -5
c5 0 20 3 44 8c3 2 6 4 10 7c1 -1 4 -2 9 -2c4 0 18 7 42 21zM332 720l73 40c-6 0 -11 1 -16 2l-76 -38l6 -2c5 -1 9 -2 13 -2zM681 546l-10 61c-44 67 -85 105 -124 112l-6 -3v-6c0 -11 3 -21 11 -30c6 -32 9 -52 9 -61c0 -6 -2 -10 -5 -12c1 -2 2 -4 2 -8s-7 -28 -21 -70
l-6 -11v-8l38 -29c15 -16 27 -34 34 -55c-5 -6 -6 -14 -5 -24c1 -8 2 -14 3 -18c0 -4 1 -4 1 -2c47 55 69 89 67 103c6 17 10 37 12 61zM425 762l8 8h-17l-3 -8h12zM804 574v-66l-16 -108c-5 -14 -15 -32 -29 -53c-4 -11 -14 -27 -31 -50c-18 -23 -27 -36 -28 -37
c-56 -53 -103 -84 -140 -92c-4 -1 -10 -4 -17 -11c-21 -5 -53 -11 -95 -18l-54 7h-34c-2 0 -14 4 -37 10c-25 6 -42 10 -49 12c-129 55 -208 120 -236 195c-17 79 -26 130 -26 154c0 4 2 15 5 34c3 17 8 48 16 93c10 20 26 49 48 88c3 3 24 26 65 72c8 4 19 12 30 25
c19 13 48 32 88 58c21 7 43 15 67 24c13 2 32 5 55 7c5 3 17 6 34 9l90 -12c3 -6 8 -13 15 -20c53 -14 107 -50 162 -107c52 -53 89 -109 111 -167c0 -7 0 -18 1 -33c3 -6 5 -11 5 -14z" />
    <glyph glyph-name="minus" unicode="&#x2212;" horiz-adv-x="798" 
d="M244 118c-1 -2 -2 -4 -3 -4s-2 1 -2 1c1 0 3 1 5 3zM752 192v-9c-2 -2 -8 -9 -17 -22c-9 -6 -27 -11 -54 -16l-175 -12l-196 -5c-57 -2 -92 -5 -105 -12c-1 0 -3 1 -6 3c-4 1 -6 2 -8 2h-4c-1 -1 -2 -2 -2 -3s1 -3 3 -4c-3 -2 -8 -3 -14 -3c-1 2 -4 5 -7 10h-53
c-8 7 -20 16 -36 28c-2 9 -7 17 -14 25c-8 19 -11 36 -11 48c0 13 3 25 8 38c5 5 14 13 26 23l84 2l181 -10l158 10c3 0 12 3 26 8c3 -1 6 -3 10 -5l103 12c19 -11 38 -20 58 -28c9 -11 19 -30 30 -55c3 -6 8 -14 15 -25z" />
    <glyph glyph-name="eth" unicode="&#xf0;" horiz-adv-x="586" 
d="M395 219v36c0 34 -8 67 -22 101c-2 0 -3 1 -5 3c-4 -4 -15 -10 -35 -20c-19 -9 -36 -21 -50 -36c-3 -6 -13 -20 -28 -43c-10 -15 -15 -28 -15 -38c-20 -50 -30 -83 -30 -98c0 -5 2 -11 7 -19c21 -4 31 -6 28 -6c40 0 84 23 133 70c11 15 17 31 17 50zM548 276v-71
c0 -1 -1 -6 -3 -15c-4 -52 -20 -94 -48 -125c-2 -1 -13 -10 -33 -27c-11 -9 -23 -15 -36 -17c-20 -17 -35 -29 -46 -36c-17 -11 -35 -18 -51 -19l-64 -18c0 1 1 1 1 2s-2 2 -4 2h-10c-1 -1 -1 -2 -1 -5c1 -2 5 -3 11 -2c0 -1 0 -2 1 -5s1 -4 1 -5c-4 -2 -9 -5 -17 -8
c-1 4 -4 9 -9 16c-5 0 -16 2 -31 5c-2 -1 -5 -3 -9 -5c-12 7 -23 11 -33 11s-18 -4 -24 -12c-9 -11 -16 -13 -19 -7c-6 12 -25 63 -57 153c-2 11 -6 28 -10 50c2 3 5 14 10 32c2 7 4 19 6 36c46 113 122 204 226 273c2 0 4 3 7 9l-44 91h-6c-6 0 -18 -13 -38 -39
c-5 0 -10 -2 -15 -3c-6 -1 -10 0 -13 3l-36 -31c-4 -1 -7 1 -9 6c-3 -1 -6 -3 -9 -6c-3 1 -7 2 -12 5v11c-3 4 -7 5 -11 4c-2 5 -5 11 -9 19c0 5 -1 14 -4 28s-4 21 -4 21c0 18 9 35 28 53l56 54l-65 112c1 1 3 4 5 7c-4 41 -6 56 -6 46c0 11 3 22 10 33c5 3 13 9 25 17h11
l17 -11c21 -8 42 -25 62 -52c9 -13 23 -33 42 -59h6l166 122c0 -5 0 -7 -1 -8l4 -4h36c2 -3 8 -8 19 -14l-1 -4c-1 -3 -1 -6 -1 -9l4 -6l9 2c0 -3 -1 -5 -4 -8c0 -1 1 -4 4 -7c-4 -10 -6 -18 -5 -23c-6 -7 -14 -19 -24 -34c-8 -4 -18 -11 -32 -20l6 -6c-5 0 -8 0 -9 1
c-7 -7 -19 -17 -35 -30c0 -1 0 -3 2 -7l-54 -75c6 -16 17 -34 30 -57c13 -26 43 -78 86 -156c10 -17 24 -48 43 -94c13 -30 18 -59 18 -84z" />
    <glyph glyph-name="multiply" unicode="&#xd7;" horiz-adv-x="625" 
d="M588 400c-5 -21 -8 -33 -8 -36l-10 -10v-13c-9 -5 -25 -11 -48 -16c-15 -9 -38 -20 -68 -35c-17 -11 -43 -28 -77 -51c25 -23 40 -37 45 -42c23 -24 42 -51 57 -82c1 -5 7 -21 16 -48c-2 -13 -10 -27 -25 -41c1 -7 0 -13 -3 -16c-2 0 -6 0 -12 -1c-5 -1 -9 -1 -10 -1
c-3 0 -8 2 -17 7s-16 8 -20 8c-45 45 -72 72 -81 80c-30 28 -55 47 -74 57c-22 -7 -47 -26 -73 -57c-24 -28 -41 -55 -49 -80c-14 -13 -31 -24 -48 -33c-12 3 -22 10 -29 20c-10 14 -17 22 -19 23l-3 69c3 25 13 51 31 78c2 2 20 25 54 69l-54 35c-7 20 -14 36 -21 48v40
c0 6 4 15 13 26s16 18 23 20h10c12 0 42 -13 90 -41l71 -41c-2 0 37 20 117 61s127 61 142 61c12 0 20 -2 24 -5c13 -10 24 -17 33 -21c8 -9 16 -19 23 -32z" />
    <glyph glyph-name="threesuperior" unicode="&#xb3;" horiz-adv-x="479" 
d="M487 522c-2 -3 -8 -16 -19 -40l-53 -26s-17 -4 -52 -12c-3 -2 -7 -3 -12 -4c-48 -8 -73 -12 -75 -12h-17l-41 -5l-62 -2l-80 1c-7 3 -11 5 -12 5l-6 7h-4c-1 2 -5 7 -12 15c-1 4 -2 7 -4 10c0 -1 1 2 3 10c0 2 -1 4 -2 5c0 1 0 3 1 7c0 3 1 5 1 6c7 7 13 10 17 10l122 -1
l85 5s2 1 6 2s7 1 9 1c40 4 78 16 113 37c0 1 0 2 1 2c-5 13 -24 31 -57 56l-46 25c-11 4 -26 10 -46 17c-13 2 -23 4 -31 6c-8 1 -14 2 -17 3s-3 1 -1 1c-1 0 -2 0 -3 -1l-16 5c-1 0 -3 -1 -6 -3l-3 3l-48 6l-20 32v4c0 2 2 5 5 8l-2 3c1 2 1 4 1 7c0 2 0 4 -1 7l20 14
c1 -1 3 -1 5 -1c9 0 26 4 50 11c7 3 19 8 35 15c21 10 37 24 47 41c9 9 13 16 13 19v6c-6 6 -11 10 -15 11c-18 4 -33 6 -44 6c-5 0 -16 -1 -34 -4c-19 -5 -41 -14 -66 -27c-12 -6 -24 -13 -37 -19h-20l-14 15c1 2 1 5 1 8c-4 4 -7 6 -10 7c0 2 -1 5 -4 9c-4 0 -6 0 -7 -2
c0 3 0 4 1 5c-1 1 -2 3 -4 6l21 9c2 4 4 7 7 8c9 5 19 11 32 16c14 9 40 19 79 32c22 5 40 7 52 7c3 0 12 -1 30 -4c28 -4 55 -13 78 -27c21 -21 31 -36 29 -45c3 -3 4 -7 4 -12c0 -20 -6 -39 -17 -57c-14 -11 -34 -31 -61 -62c8 -8 19 -15 34 -20c22 -7 34 -11 37 -13
c10 -6 26 -16 50 -31c15 -10 34 -28 56 -55c24 -29 36 -51 36 -66z" />
    <glyph glyph-name="copyright" unicode="&#xa9;" horiz-adv-x="797" 
d="M622 421c0 15 -3 30 -7 46c0 22 -4 42 -11 60c-15 39 -32 67 -50 85c-17 11 -34 17 -50 17c-6 0 -11 -1 -16 -2c-7 0 -16 1 -29 3l-42 -7l-44 7c-9 -4 -15 -7 -17 -7c0 0 -5 0 -13 2l-109 -69c5 -2 9 -3 12 -3l75 39c21 6 51 15 92 26c5 -4 13 -6 24 -5c15 1 23 2 24 1
c4 -2 14 -7 31 -16c3 -13 10 -26 23 -37c0 -7 2 -20 5 -38l-5 -34c-4 -5 -9 -7 -14 -8c-9 -1 -33 -6 -70 -12c-23 -9 -45 -17 -66 -22c-5 -4 -13 -10 -23 -18c1 -1 2 -3 3 -6c17 -6 39 -13 66 -20c10 -2 20 -3 31 -5c13 -4 26 -12 37 -25c4 -13 6 -22 6 -27
c5 -5 10 -11 15 -20v-7c-2 -1 -8 -8 -18 -21c-1 -3 -2 -7 -4 -10c-5 -3 -12 -7 -20 -12h-76l-81 16c-16 11 -36 27 -61 47c-9 19 -22 43 -40 75c-4 14 -6 25 -6 32l12 74c-31 -33 -47 -73 -47 -121c0 -13 0 -20 1 -23c6 -11 9 -19 9 -23l61 -61c5 0 9 -1 12 -3
c44 -33 85 -49 125 -49h46l74 18c3 3 6 5 11 9c2 -1 4 -2 5 -2c17 0 40 15 67 46c24 26 39 49 46 67c4 18 6 32 6 43zM755 437v-64c0 -9 -3 -25 -9 -48l-12 -47c-26 -40 -44 -72 -55 -96c3 0 -4 -3 -20 -10c-25 -27 -54 -51 -87 -72c-51 -24 -118 -35 -199 -35
c-57 0 -118 21 -183 62c-80 51 -132 124 -157 219c-6 8 -10 24 -12 46c-2 26 -4 42 -7 49c6 31 11 57 15 79c7 32 17 59 33 80c12 15 30 37 53 67c10 7 26 19 47 36c31 33 78 58 143 73c5 3 11 8 20 15c17 -4 30 -6 38 -6c17 21 53 31 110 31c18 0 33 -3 46 -9
c18 -8 31 -14 38 -15c5 -4 22 -17 51 -39c21 -16 33 -30 37 -43l31 -31c48 -83 73 -156 72 -220c5 -17 7 -24 7 -22z" />
    <glyph glyph-name="Aacute" unicode="&#xc1;" horiz-adv-x="600" 
d="M599 1210c-2 -3 -6 -8 -12 -14c0 -1 1 -3 3 -4c-6 -6 -14 -15 -24 -27c-17 -12 -58 -38 -122 -79c-56 -37 -100 -68 -132 -93c-10 -9 -24 -20 -42 -35c-10 -5 -24 -11 -43 -17c-1 1 -2 4 -5 8h-27l-14 12l-24 -2c2 4 5 8 8 11l-4 4c-4 4 -6 11 -6 20c0 0 1 3 2 7
c2 4 3 6 3 8c7 5 13 11 17 19c24 17 68 46 131 90c14 10 39 28 75 53c20 14 62 39 126 75c3 2 4 4 4 7l23 11c4 -2 11 -5 19 -8v-13c4 -1 10 -4 17 -9c4 -9 9 -14 14 -14c-1 0 1 1 5 2c0 -4 3 -8 8 -12zM415 415l117 -46c-2 6 -5 22 -12 48c-8 34 -13 55 -14 63l-38 120
c-15 47 -33 86 -53 117c-9 -9 -18 -26 -28 -50c3 -4 5 -9 -3 -26l-6 9l-12 -18l-3 10l-63 -138c1 -1 1 -3 1 -8c-20 -22 -33 -47 -40 -76c5 1 11 1 20 1c7 -2 12 -2 15 -3l3 -1c5 1 11 2 20 7l33 1c1 0 11 -2 28 -7c15 -4 24 -6 25 -6h1c4 2 6 3 9 3zM210 219
c0 16 2 22 9 35l24 -11c-13 -13 -18 -17 -33 -24zM22 226h3l-2 2v1c1 2 1 5 2 12c19 17 31 32 39 47c16 16 25 32 29 48c6 12 15 28 26 49c6 16 16 36 31 57c7 16 16 40 29 73c3 5 7 11 12 20c3 10 4 15 4 18c13 27 35 73 66 142c3 7 14 26 31 54c4 6 11 21 22 44
c12 33 28 74 51 125c7 3 12 5 23 11c11 -4 24 -7 43 -11c20 -14 35 -25 45 -36c4 -6 7 -14 12 -24c27 -34 63 -111 108 -230c0 0 1 -1 8 -1c0 -9 2 -15 5 -24c4 -10 6 -18 6 -22c0 -3 0 -5 -1 -8c2 -2 4 -3 8 -7c17 -46 41 -134 73 -267l5 -10c15 -73 35 -131 61 -176
c0 -6 7 -24 28 -65l-14 -11c0 -4 1 -8 1 -12c0 -9 -2 -18 -18 -79v58c-2 2 -5 5 -7 8h10s-1 -2 -2 -3l-1 -2c1 0 1 0 4 -3v-17c-4 -4 -9 -6 -13 -7c-3 -7 -6 -14 -13 -25h-60l-50 65c-7 39 -20 69 -42 95c4 10 5 13 5 15c-3 4 -8 13 -14 26c-13 17 -27 32 -44 45
c-13 13 -26 23 -39 30c-24 12 -38 20 -44 23c-16 1 -32 5 -48 13c-5 2 -7 3 -14 3c-1 4 -2 7 -3 9c-1 -2 -3 -5 -7 -10c-20 3 -38 8 -58 15c-5 -4 -13 -9 -29 -20c-3 7 -5 11 -9 15c-1 -1 -2 -1 -6 -5c-4 2 -7 3 -9 4c3 -3 8 -7 14 -16c-36 -4 -49 -10 -58 -22h-27l-5 5
c-4 0 -8 -1 -11 -1l-38 -75l-1 -1c0 -1 0 -2 2 -7c-6 -12 -11 -24 -21 -41c-11 0 -18 1 -24 2l-4 -7h-18c-5 11 -9 15 -13 17c-8 3 -14 6 -19 10c0 4 0 6 1 8c-4 6 -6 13 -7 20c-3 4 -7 10 -14 19v37z" />
    <glyph glyph-name="Acircumflex" unicode="&#xc2;" horiz-adv-x="604" 
d="M608 863c-9 -11 -17 -23 -22 -36c-2 -1 -7 -3 -15 -7c6 0 -1 -1 -22 -1c-1 0 -3 1 -6 3c-3 -1 -7 -3 -12 -5c-14 14 -26 29 -38 42c-23 26 -60 57 -110 96c-3 -1 -7 -2 -12 -2l-39 -36c0 -1 1 -3 2 -6c-2 -1 -5 -3 -8 -5c1 -7 2 -9 2 -8c2 0 0 -1 -7 -2l-90 -109l-19 3
c-9 -2 -14 -4 -17 -6c-1 2 -3 5 -5 9l-8 -1c1 1 2 4 2 6c-3 3 -8 4 -14 5l-20 43c0 7 5 19 14 34c6 0 12 1 19 6c3 2 12 12 27 29c16 18 45 50 86 96c13 11 29 29 50 53c8 8 18 13 31 16c4 -1 10 -2 18 -4c7 -5 17 -10 29 -14c22 -18 49 -44 83 -79c41 -42 68 -69 80 -80
c5 -9 12 -22 21 -40zM415 415l117 -46c-2 6 -5 22 -12 48c-8 34 -13 55 -14 63l-38 120c-15 47 -33 86 -53 117c-9 -9 -18 -26 -28 -50c3 -4 5 -9 -3 -26l-6 9l-12 -18l-3 10l-63 -138c1 -1 1 -3 1 -8c-20 -22 -33 -47 -40 -76c5 1 11 1 20 1c7 -2 12 -2 15 -3l3 -1
c5 1 11 2 20 7l33 1c1 0 11 -2 28 -7c15 -4 24 -6 25 -6h1c4 2 6 3 9 3zM210 219c0 16 2 22 9 35l24 -11c-13 -13 -18 -17 -33 -24zM22 226h3l-2 2v1c1 2 1 5 2 12c19 17 31 32 39 47c16 16 25 32 29 48c6 12 15 28 26 49c6 16 16 36 31 57c7 16 16 40 29 73c3 5 7 11 12 20
c3 10 4 15 4 18c13 27 35 73 66 142c3 7 14 26 31 54c4 6 11 21 22 44c12 33 28 74 51 125c7 3 12 5 23 11c11 -4 24 -7 43 -11c20 -14 35 -25 45 -36c4 -6 7 -14 12 -24c27 -34 63 -111 108 -230c0 0 1 -1 8 -1c0 -9 2 -15 5 -24c4 -10 6 -18 6 -22c0 -3 0 -5 -1 -8
c2 -2 4 -3 8 -7c17 -46 41 -134 73 -267l5 -10c15 -73 35 -131 61 -176c0 -6 7 -24 28 -65l-14 -11c0 -4 1 -8 1 -12c0 -9 -2 -18 -18 -79v58c-2 2 -5 5 -7 8h10s-1 -2 -2 -3l-1 -2c1 0 1 0 4 -3v-17c-4 -4 -9 -6 -13 -7c-3 -7 -6 -14 -13 -25h-60l-50 65
c-7 39 -20 69 -42 95c4 10 5 13 5 15c-3 4 -8 13 -14 26c-13 17 -27 32 -44 45c-13 13 -26 23 -39 30c-24 12 -38 20 -44 23c-16 1 -32 5 -48 13c-5 2 -7 3 -14 3c-1 4 -2 7 -3 9c-1 -2 -3 -5 -7 -10c-20 3 -38 8 -58 15c-5 -4 -13 -9 -29 -20c-3 7 -5 11 -9 15
c-1 -1 -2 -1 -6 -5c-4 2 -7 3 -9 4c3 -3 8 -7 14 -16c-36 -4 -49 -10 -58 -22h-27l-5 5c-4 0 -8 -1 -11 -1l-38 -75l-1 -1c0 -1 0 -2 2 -7c-6 -12 -11 -24 -21 -41c-11 0 -18 1 -24 2l-4 -7h-18c-5 11 -9 15 -13 17c-8 3 -14 6 -19 10c0 4 0 6 1 8c-4 6 -6 13 -7 20
c-3 4 -7 10 -14 19v37z" />
    <glyph glyph-name="Adieresis" unicode="&#xc4;" horiz-adv-x="606" 
d="M457 876l42 -24c5 -5 8 -13 8 -24c-4 -9 -11 -22 -21 -41c2 0 4 2 6 4c4 -4 6 -7 6 -8c-1 1 -6 1 -16 2l2 -9c-4 0 -9 0 -17 -1c-6 -5 -15 -8 -26 -9c-11 7 -31 15 -58 24c-3 2 -4 7 -4 15c-4 2 -9 6 -14 11c0 19 0 26 1 21c2 4 5 10 10 19c28 11 55 18 81 20zM201 775
l-40 27c-5 5 -7 13 -7 24c5 8 13 21 25 40c-1 0 -3 -1 -7 -4c-4 4 -6 7 -6 8l16 -3l-1 9h18c6 4 15 7 26 8c11 -7 30 -17 56 -29c2 -2 3 -7 3 -15c3 -3 8 -6 13 -11c-2 -19 -2 -27 -2 -22c-3 -3 -7 -9 -12 -18c-28 -9 -55 -14 -82 -14zM415 415l117 -46c-2 6 -5 22 -12 48
c-8 34 -13 55 -14 63l-38 120c-15 47 -33 86 -53 117c-9 -9 -18 -26 -28 -50c3 -4 5 -9 -3 -26l-6 9l-12 -18l-3 10l-63 -138c1 -1 1 -3 1 -8c-20 -22 -33 -47 -40 -76c5 1 11 1 20 1c7 -2 12 -2 15 -3l3 -1c5 1 11 2 20 7l33 1c1 0 11 -2 28 -7c15 -4 24 -6 25 -6h1
c4 2 6 3 9 3zM210 219c0 16 2 22 9 35l24 -11c-13 -13 -18 -17 -33 -24zM22 226h3l-2 2v1c1 2 1 5 2 12c19 17 31 32 39 47c16 16 25 32 29 48c6 12 15 28 26 49c6 16 16 36 31 57c7 16 16 40 29 73c3 5 7 11 12 20c3 10 4 15 4 18c13 27 35 73 66 142c3 7 14 26 31 54
c4 6 11 21 22 44c12 33 28 74 51 125c7 3 12 5 23 11c11 -4 24 -7 43 -11c20 -14 35 -25 45 -36c4 -6 7 -14 12 -24c27 -34 63 -111 108 -230c0 0 1 -1 8 -1c0 -9 2 -15 5 -24c4 -10 6 -18 6 -22c0 -3 0 -5 -1 -8c2 -2 4 -3 8 -7c17 -46 41 -134 73 -267l5 -10
c15 -73 35 -131 61 -176c0 -6 7 -24 28 -65l-14 -11c0 -4 1 -8 1 -12c0 -9 -2 -18 -18 -79v58c-2 2 -5 5 -7 8h10s-1 -2 -2 -3l-1 -2c1 0 1 0 4 -3v-17c-4 -4 -9 -6 -13 -7c-3 -7 -6 -14 -13 -25h-60l-50 65c-7 39 -20 69 -42 95c4 10 5 13 5 15c-3 4 -8 13 -14 26
c-13 17 -27 32 -44 45c-13 13 -26 23 -39 30c-24 12 -38 20 -44 23c-16 1 -32 5 -48 13c-5 2 -7 3 -14 3c-1 4 -2 7 -3 9c-1 -2 -3 -5 -7 -10c-20 3 -38 8 -58 15c-5 -4 -13 -9 -29 -20c-3 7 -5 11 -9 15c-1 -1 -2 -1 -6 -5c-4 2 -7 3 -9 4c3 -3 8 -7 14 -16
c-36 -4 -49 -10 -58 -22h-27l-5 5c-4 0 -8 -1 -11 -1l-38 -75l-1 -1c0 -1 0 -2 2 -7c-6 -12 -11 -24 -21 -41c-11 0 -18 1 -24 2l-4 -7h-18c-5 11 -9 15 -13 17c-8 3 -14 6 -19 10c0 4 0 6 1 8c-4 6 -6 13 -7 20c-3 4 -7 10 -14 19v37z" />
    <glyph glyph-name="Agrave" unicode="&#xc0;" horiz-adv-x="602" 
d="M558 995l13 -8c0 -3 -2 -6 -7 -10c0 -3 1 -6 4 -9c-2 -2 -5 -4 -9 -8l2 -15c-22 -5 -32 -9 -32 -12c1 0 2 -2 2 -4l-11 -1c-7 2 -28 8 -65 18l-206 120c-17 10 -41 27 -71 52c-1 2 -4 3 -11 5c-8 18 -13 29 -13 34l2 9c-1 2 -2 4 -2 7c-1 5 1 12 5 21c7 12 16 18 29 20
c23 2 41 -4 56 -18c4 -1 10 -3 18 -6l125 -85c47 -32 93 -53 138 -63c3 -6 8 -11 17 -16c11 -17 17 -27 16 -31zM415 415l117 -46c-2 6 -5 22 -12 48c-8 34 -13 55 -14 63l-38 120c-15 47 -33 86 -53 117c-9 -9 -18 -26 -28 -50c3 -4 5 -9 -3 -26l-6 9l-12 -18l-3 10
l-63 -138c1 -1 1 -3 1 -8c-20 -22 -33 -47 -40 -76c5 1 11 1 20 1c7 -2 12 -2 15 -3l3 -1c5 1 11 2 20 7l33 1c1 0 11 -2 28 -7c15 -4 24 -6 25 -6h1c4 2 6 3 9 3zM210 219c0 16 2 22 9 35l24 -11c-13 -13 -18 -17 -33 -24zM22 226h3l-2 2v1c1 2 1 5 2 12c19 17 31 32 39 47
c16 16 25 32 29 48c6 12 15 28 26 49c6 16 16 36 31 57c7 16 16 40 29 73c3 5 7 11 12 20c3 10 4 15 4 18c13 27 35 73 66 142c3 7 14 26 31 54c4 6 11 21 22 44c12 33 28 74 51 125c7 3 12 5 23 11c11 -4 24 -7 43 -11c20 -14 35 -25 45 -36c4 -6 7 -14 12 -24
c27 -34 63 -111 108 -230c0 0 1 -1 8 -1c0 -9 2 -15 5 -24c4 -10 6 -18 6 -22c0 -3 0 -5 -1 -8c2 -2 4 -3 8 -7c17 -46 41 -134 73 -267l5 -10c15 -73 35 -131 61 -176c0 -6 7 -24 28 -65l-14 -11c0 -4 1 -8 1 -12c0 -9 -2 -18 -18 -79v58c-2 2 -5 5 -7 8h10s-1 -2 -2 -3
l-1 -2c1 0 1 0 4 -3v-17c-4 -4 -9 -6 -13 -7c-3 -7 -6 -14 -13 -25h-60l-50 65c-7 39 -20 69 -42 95c4 10 5 13 5 15c-3 4 -8 13 -14 26c-13 17 -27 32 -44 45c-13 13 -26 23 -39 30c-24 12 -38 20 -44 23c-16 1 -32 5 -48 13c-5 2 -7 3 -14 3c-1 4 -2 7 -3 9
c-1 -2 -3 -5 -7 -10c-20 3 -38 8 -58 15c-5 -4 -13 -9 -29 -20c-3 7 -5 11 -9 15c-1 -1 -2 -1 -6 -5c-4 2 -7 3 -9 4c3 -3 8 -7 14 -16c-36 -4 -49 -10 -58 -22h-27l-5 5c-4 0 -8 -1 -11 -1l-38 -75l-1 -1c0 -1 0 -2 2 -7c-6 -12 -11 -24 -21 -41c-11 0 -18 1 -24 2l-4 -7
h-18c-5 11 -9 15 -13 17c-8 3 -14 6 -19 10c0 4 0 6 1 8c-4 6 -6 13 -7 20c-3 4 -7 10 -14 19v37z" />
    <glyph glyph-name="Aring" unicode="&#xc5;" horiz-adv-x="601" 
d="M446 1034c0 3 0 6 -1 9l-1 4c-13 9 -30 14 -53 14c-21 0 -33 -1 -34 -2c0 0 1 -1 2 -1c0 0 -3 -4 -8 -12s-8 -14 -8 -17c0 -11 16 -16 48 -16c7 0 17 2 30 7c15 5 23 9 25 14zM539 993l-5 -47c-4 -6 -11 -14 -21 -25c-9 -4 -22 -12 -40 -22c-28 -4 -41 -6 -38 -6
c-21 0 -36 -1 -45 -3c-5 -1 -8 2 -11 8c-27 0 -39 -1 -38 -2c-1 1 -2 1 -2 2l-70 35c-8 10 -20 24 -35 43c-15 40 -23 69 -23 87c0 16 7 28 21 36c3 3 9 5 17 5c6 17 19 39 40 66c17 6 27 8 31 8h56c1 -3 14 -9 37 -18c6 -5 19 -12 38 -20l37 -40c7 -12 17 -29 30 -53
c14 -25 21 -43 21 -54zM415 415l117 -46c-2 6 -5 22 -12 48c-8 34 -13 55 -14 63l-38 120c-15 47 -33 86 -53 117c-9 -9 -18 -26 -28 -50c3 -4 5 -9 -3 -26l-6 9l-12 -18l-3 10l-63 -138c1 -1 1 -3 1 -8c-20 -22 -33 -47 -40 -76c5 1 11 1 20 1c7 -2 12 -2 15 -3l3 -1
c5 1 11 2 20 7l33 1c1 0 11 -2 28 -7c15 -4 24 -6 25 -6h1c4 2 6 3 9 3zM210 219c0 16 2 22 9 35l24 -11c-13 -13 -18 -17 -33 -24zM22 226h3l-2 2v1c1 2 1 5 2 12c19 17 31 32 39 47c16 16 25 32 29 48c6 12 15 28 26 49c6 16 16 36 31 57c7 16 16 40 29 73c3 5 7 11 12 20
c3 10 4 15 4 18c13 27 35 73 66 142c3 7 14 26 31 54c4 6 11 21 22 44c12 33 28 74 51 125c7 3 12 5 23 11c11 -4 24 -7 43 -11c20 -14 35 -25 45 -36c4 -6 7 -14 12 -24c27 -34 63 -111 108 -230c0 0 1 -1 8 -1c0 -9 2 -15 5 -24c4 -10 6 -18 6 -22c0 -3 0 -5 -1 -8
c2 -2 4 -3 8 -7c17 -46 41 -134 73 -267l5 -10c15 -73 35 -131 61 -176c0 -6 7 -24 28 -65l-14 -11c0 -4 1 -8 1 -12c0 -9 -2 -18 -18 -79v58c-2 2 -5 5 -7 8h10s-1 -2 -2 -3l-1 -2c1 0 1 0 4 -3v-17c-4 -4 -9 -6 -13 -7c-3 -7 -6 -14 -13 -25h-60l-50 65
c-7 39 -20 69 -42 95c4 10 5 13 5 15c-3 4 -8 13 -14 26c-13 17 -27 32 -44 45c-13 13 -26 23 -39 30c-24 12 -38 20 -44 23c-16 1 -32 5 -48 13c-5 2 -7 3 -14 3c-1 4 -2 7 -3 9c-1 -2 -3 -5 -7 -10c-20 3 -38 8 -58 15c-5 -4 -13 -9 -29 -20c-3 7 -5 11 -9 15
c-1 -1 -2 -1 -6 -5c-4 2 -7 3 -9 4c3 -3 8 -7 14 -16c-36 -4 -49 -10 -58 -22h-27l-5 5c-4 0 -8 -1 -11 -1l-38 -75l-1 -1c0 -1 0 -2 2 -7c-6 -12 -11 -24 -21 -41c-11 0 -18 1 -24 2l-4 -7h-18c-5 11 -9 15 -13 17c-8 3 -14 6 -19 10c0 4 0 6 1 8c-4 6 -6 13 -7 20
c-3 4 -7 10 -14 19v37z" />
    <glyph glyph-name="Atilde" unicode="&#xc3;" horiz-adv-x="605" 
d="M916 1297v-30c0 3 -5 -2 -14 -15c-14 -16 -36 -39 -67 -69c-17 -12 -33 -25 -46 -40c-53 -40 -95 -61 -126 -62c-15 -4 -20 -6 -14 -6c-7 0 -15 2 -24 5c-16 5 -27 9 -33 10c-22 6 -51 25 -88 59c-33 31 -58 46 -73 46c-4 0 -16 -5 -38 -16c-21 -11 -36 -17 -45 -17
l-121 -102c-7 1 -11 2 -12 2c-8 -2 -15 -5 -22 -8c-5 2 -13 5 -23 8c-17 24 -26 37 -26 40c3 6 11 24 26 53c4 3 12 10 24 21l95 84c47 25 92 37 134 37c15 0 43 -7 85 -21c14 -7 32 -18 55 -33c37 -29 57 -45 60 -46c8 0 19 5 33 15c23 11 75 47 156 109c5 4 13 8 24 14
c8 1 16 2 24 4c7 -3 18 -7 32 -12v-4c3 -4 8 -6 13 -6c1 -1 1 -1 1 -2c0 -2 -1 -4 -2 -7c3 -3 7 -7 12 -11zM415 415l117 -46c-2 6 -5 22 -12 48c-8 34 -13 55 -14 63l-38 120c-15 47 -33 86 -53 117c-9 -9 -18 -26 -28 -50c3 -4 5 -9 -3 -26l-6 9l-12 -18l-3 10l-63 -138
c1 -1 1 -3 1 -8c-20 -22 -33 -47 -40 -76c5 1 11 1 20 1c7 -2 12 -2 15 -3l3 -1c5 1 11 2 20 7l33 1c1 0 11 -2 28 -7c15 -4 24 -6 25 -6h1c4 2 6 3 9 3zM210 219c0 16 2 22 9 35l24 -11c-13 -13 -18 -17 -33 -24zM22 226h3l-2 2v1c1 2 1 5 2 12c19 17 31 32 39 47
c16 16 25 32 29 48c6 12 15 28 26 49c6 16 16 36 31 57c7 16 16 40 29 73c3 5 7 11 12 20c3 10 4 15 4 18c13 27 35 73 66 142c3 7 14 26 31 54c4 6 11 21 22 44c12 33 28 74 51 125c7 3 12 5 23 11c11 -4 24 -7 43 -11c20 -14 35 -25 45 -36c4 -6 7 -14 12 -24
c27 -34 63 -111 108 -230c0 0 1 -1 8 -1c0 -9 2 -15 5 -24c4 -10 6 -18 6 -22c0 -3 0 -5 -1 -8c2 -2 4 -3 8 -7c17 -46 41 -134 73 -267l5 -10c15 -73 35 -131 61 -176c0 -6 7 -24 28 -65l-14 -11c0 -4 1 -8 1 -12c0 -9 -2 -18 -18 -79v58c-2 2 -5 5 -7 8h10s-1 -2 -2 -3
l-1 -2c1 0 1 0 4 -3v-17c-4 -4 -9 -6 -13 -7c-3 -7 -6 -14 -13 -25h-60l-50 65c-7 39 -20 69 -42 95c4 10 5 13 5 15c-3 4 -8 13 -14 26c-13 17 -27 32 -44 45c-13 13 -26 23 -39 30c-24 12 -38 20 -44 23c-16 1 -32 5 -48 13c-5 2 -7 3 -14 3c-1 4 -2 7 -3 9
c-1 -2 -3 -5 -7 -10c-20 3 -38 8 -58 15c-5 -4 -13 -9 -29 -20c-3 7 -5 11 -9 15c-1 -1 -2 -1 -6 -5c-4 2 -7 3 -9 4c3 -3 8 -7 14 -16c-36 -4 -49 -10 -58 -22h-27l-5 5c-4 0 -8 -1 -11 -1l-38 -75l-1 -1c0 -1 0 -2 2 -7c-6 -12 -11 -24 -21 -41c-11 0 -18 1 -24 2l-4 -7
h-18c-5 11 -9 15 -13 17c-8 3 -14 6 -19 10c0 4 0 6 1 8c-4 6 -6 13 -7 20c-3 4 -7 10 -14 19v37z" />
    <glyph glyph-name="Ccedilla" unicode="&#xc7;" horiz-adv-x="838" 
d="M336 -426l-6 -4zM639 -235c0 -11 -6 -27 -18 -49c-22 -39 -52 -70 -92 -89c-24 -12 -61 -28 -109 -50c-5 -1 -9 -4 -10 -9h-119l2 4l-27 59l4 13c-1 7 -1 17 -1 30c7 33 32 56 75 67c21 9 52 27 92 54c0 4 -3 7 -6 7c-5 1 -9 1 -14 2v7c-12 1 -28 7 -48 18
c-3 9 -7 17 -12 22c0 5 -2 11 -7 20c-2 7 -3 19 -3 36c0 38 15 90 45 156c11 5 17 8 19 8h20c45 -33 68 -65 68 -96c0 -5 -1 -10 -2 -15c4 -7 13 -16 28 -26c18 -12 28 -20 31 -22c27 -25 51 -55 70 -90c3 -15 6 -28 8 -37s3 -16 4 -19s2 -4 2 -1zM630 76h-9
c0 2 -1 -1 -3 -9c3 0 7 3 12 9zM860 163c-6 -1 -17 -9 -32 -23c-1 -3 -1 -5 -1 -7s0 -4 1 -6c-1 0 -6 1 -14 2c-2 0 -4 -3 -6 -9c-14 -3 -29 -9 -46 -20l-47 -13c-4 0 -7 1 -8 2c-5 -4 -7 -6 -7 -5c3 -4 7 -8 15 -13c-2 -1 -6 -1 -10 -1c-8 0 -18 1 -32 3c5 0 8 2 8 6h-9
c-3 -3 -5 -7 -5 -10c-3 3 -8 5 -15 5v-9l-12 -7c13 0 21 -1 25 -3c-3 0 -5 -2 -5 -5h-77c-2 0 -3 -1 -3 -3l-68 -12c10 0 25 -3 44 -8c1 2 2 6 5 12h9l-2 -3l11 -2l8 5c0 -1 1 -4 5 -8h26c-7 -1 -18 -4 -32 -9c-2 1 -6 2 -10 5l-4 -5c-2 1 -6 2 -13 2c-2 -1 -5 -3 -9 -6
c8 -2 17 -3 28 -3c-3 0 -9 0 -19 -1c-9 -1 -15 -2 -18 -2c-1 0 0 2 4 5h-18l5 -4c0 -5 -3 -8 -9 -8h-100c-5 5 -8 7 -8 7h-5l2 -5c-19 0 -46 -1 -79 -5c-5 4 -7 7 -7 8s1 1 1 1c-5 2 -10 3 -16 3c-2 0 -4 0 -9 -1s-8 -1 -9 -1c-14 0 -22 3 -25 10h-7c1 0 -2 -1 -8 -3l-68 24
c1 2 3 2 5 2s4 -1 6 -3h7c3 0 7 1 12 4c-8 4 -13 6 -17 6c-1 0 -3 -1 -5 -3c-2 3 -13 7 -32 15c-1 -1 -2 -4 -2 -7h-9c-1 4 -4 7 -9 8c-8 3 -12 5 -13 5c-1 5 -2 7 -3 7c1 0 2 2 2 3c-2 2 -5 3 -9 3c3 0 4 1 6 2l-6 4l-5 -5c-2 2 -5 3 -8 3c-2 4 -5 10 -8 18l-28 13
c0 1 1 3 3 5c-3 1 -8 7 -13 17c-4 1 -13 12 -24 33c-2 18 -4 43 -9 75l-7 50c0 127 75 259 226 396c13 4 25 10 35 19c15 13 26 19 33 17c4 6 11 15 20 26c18 10 45 25 80 44c7 -2 11 -2 13 -2l42 30l136 37h43c2 -5 5 -13 9 -23c3 -3 8 -9 17 -16c-7 -3 -10 -8 -10 -14
c0 -22 0 -34 1 -35c0 0 1 1 1 2c4 -3 10 -10 18 -18c-2 0 -6 -2 -13 -5c0 2 1 -1 3 -10l-15 -12c3 -1 10 -4 20 -7c-12 -7 -21 -10 -28 -10c-2 0 -4 0 -6 1c-1 -2 -4 -4 -7 -7c-10 -1 -23 -4 -40 -7c-6 -4 -24 -12 -55 -25c-9 -3 -24 -10 -45 -20c-18 -11 -52 -30 -103 -57
c-29 -27 -57 -48 -82 -64c-20 -21 -50 -55 -89 -103c-4 -2 -7 -4 -11 -7c-6 -3 -9 -9 -9 -16c0 -3 1 -7 4 -11c-6 -7 -16 -17 -30 -31c0 2 1 -1 3 -9l-15 -55v-36c0 -3 5 -9 14 -17s16 -12 20 -12c4 -3 9 -8 17 -14c2 -1 28 -8 78 -22c11 -2 31 -5 60 -6l86 -3l96 6l130 15
c5 0 9 -1 13 -3l38 13c1 -2 4 -3 7 -3l57 15h21l5 -7h35c2 -2 3 -6 3 -11c1 -1 4 -2 8 -2c-1 -2 -2 -5 -3 -8c5 -4 8 -7 8 -6c-4 -2 -10 -6 -18 -14c-1 -1 -1 -2 -1 -2c0 -1 2 -2 4 -2h15c0 2 -3 -4 -8 -19c3 -1 6 -3 10 -5z" />
    <glyph glyph-name="Eacute" unicode="&#xc9;" horiz-adv-x="682" 
d="M615 1134c-2 -3 -6 -8 -12 -14c0 -1 1 -3 3 -4c-6 -6 -14 -15 -24 -27c-17 -12 -58 -38 -122 -79c-56 -37 -100 -68 -132 -93c-10 -9 -24 -20 -42 -35c-10 -5 -24 -11 -43 -17c-1 1 -2 4 -5 8h-27l-14 12l-24 -2c2 4 5 8 8 11l-4 4c-4 4 -6 11 -6 20c0 0 1 3 2 7
c2 4 3 6 3 8c7 5 13 11 17 19c24 17 68 46 131 90c14 10 39 28 75 53c20 14 62 39 126 75c3 2 4 4 4 7l23 11c4 -2 11 -5 19 -8v-13c4 -1 10 -4 17 -9c4 -9 9 -14 14 -14c-1 0 1 1 5 2c0 -4 3 -8 8 -12zM854 849c-17 -9 -25 -19 -24 -31c-7 -5 -18 -13 -32 -22l4 -4
c3 0 6 1 7 3c2 -4 3 -6 3 -8c-1 0 -6 -2 -13 -6l-5 8c-3 -5 -8 -8 -15 -8c-10 0 -17 -1 -21 -2c1 -1 4 -2 7 -2c-38 -15 -55 -22 -51 -22c0 0 -2 1 -5 3c-1 -3 -5 -7 -10 -14h-25c-16 -19 -34 -27 -55 -24c-33 -4 -50 -11 -50 -21c-4 0 -8 2 -11 6c-28 -8 -38 -12 -33 -12
c-6 0 -10 1 -11 3c-3 -3 -6 -8 -10 -14l-6 6c-1 -1 -3 -1 -7 -1c-3 0 -8 0 -14 1c-2 -3 -3 -7 -3 -10s1 -7 3 -10c1 4 -1 6 -5 6h-8c-5 -4 -7 -7 -7 -11l-16 2c-1 0 -6 -1 -13 -4c-8 -3 -13 -4 -15 -4c0 0 -2 1 -7 3c-3 -3 -4 -7 -4 -11l-66 -29c-5 -16 -13 -37 -24 -63
c1 -5 2 -12 4 -22l255 20h74c0 -10 -1 -15 -2 -15c0 0 -1 0 -1 1h33c-1 -2 0 -5 2 -10c-5 -6 -7 -8 -7 -7c6 -2 15 -6 27 -12c-5 -7 -12 -13 -23 -16l-4 -8c0 -1 1 -5 2 -10v-12c-2 -3 -7 -6 -15 -9c1 -2 2 -5 3 -8l-104 -35c-9 0 -15 1 -18 3c-5 -4 -17 -8 -37 -11
c-3 -4 -8 -9 -15 -17c-4 1 -7 1 -11 1c-3 0 -5 0 -7 -1c-1 1 -2 1 -2 1c-1 0 -2 -3 -2 -6c-3 0 -13 -2 -31 -5c-15 -3 -25 -1 -31 4l-76 -31c-9 0 -19 -3 -30 -9c-12 -6 -22 -10 -30 -13c-2 -3 -7 -12 -14 -25c-6 -19 -12 -40 -18 -63v-19l325 25c1 0 5 -1 11 -2
c7 -2 10 -3 11 -3h47c5 -1 18 -3 40 -7c16 -2 36 -5 61 -9c10 -3 25 -8 45 -14c9 -9 24 -23 44 -42v-29l-10 -11l7 -8c-12 -5 -19 -8 -20 -10h2c-1 -5 -4 -12 -7 -22c-2 -1 -6 -1 -11 -1s-12 0 -20 1c-1 -2 -2 -5 -2 -8c-9 -3 -15 -7 -19 -12c0 3 -3 5 -9 8
c-5 -1 -12 0 -22 1c-7 1 -13 2 -17 2c-7 0 -14 -2 -20 -7l7 -6c-10 0 -16 1 -19 2c0 2 2 4 4 7c-2 1 -6 1 -13 1c0 0 0 -2 1 -4l2 -4l-135 -3c-17 0 -27 -4 -31 -11l-6 5h-22l-101 -17c-6 0 -10 1 -11 3c0 0 -2 -2 -5 -4s-5 -3 -5 -4h-17c-2 -2 -3 -5 -3 -10c0 3 -1 5 -3 7
h-9c-3 -3 -5 -6 -5 -8c-5 -1 -21 -3 -48 -4c-4 -3 -12 -6 -23 -10l-77 -10h-56l-6 18c-27 19 -44 43 -51 71c-4 16 -6 38 -6 66c1 3 4 14 11 34c16 47 30 94 42 140c-1 3 -1 5 -1 6c7 12 11 24 12 36c-5 24 -7 34 -7 32v39c3 4 9 15 18 35c6 13 14 19 23 17l24 75v13l-4 5
h-15c-33 36 -52 70 -58 103l17 65c19 13 29 20 29 21c1 0 3 0 6 -1c3 -2 5 -2 6 -2c19 0 45 6 80 17c8 9 22 20 41 36c17 -9 28 -14 35 -14c2 0 7 1 17 3c10 1 17 1 23 0l196 42c6 0 10 -1 11 -3c1 2 2 4 2 6l36 6c7 -1 19 -3 35 -6c9 5 16 10 20 14c3 0 8 -1 16 -3l60 12
c2 -1 10 -3 24 -6c3 4 8 8 15 11c4 0 6 -3 6 -8c-5 -3 -11 -5 -17 -7c1 -1 6 -2 13 -2c1 1 11 3 29 8c1 0 1 -1 1 -1c0 -1 -1 -2 -3 -3c5 -7 8 -10 8 -8v-11c2 -1 6 -2 11 -4c3 3 8 5 15 5c17 -4 32 -6 43 -6c2 -3 2 -6 2 -7zM471 657c-1 3 -3 4 -4 4c4 -1 5 -3 4 -4z" />
    </font>
</defs>
</svg>
